<svg viewBox="0 0 96 96" xmlns="http://www.w3.org/2000/svg" xmlns:xlink="http://www.w3.org/1999/xlink" id="Icons_Whistle_M" overflow="hidden"><style>
.MsftOfcThm_Accent2_Fill_v2 {
 fill:#22354B; 
}
.MsftOfcThm_Text1_Stroke_v2 {
 stroke:#22354B; 
}
</style>
<g id="Icons"><rect x="54.558" y="25.5" width="9.899" height="2" class="MsftOfcThm_Accent2_Fill_v2 MsftOfcThm_Text1_Stroke_v2" stroke="#22354B" stroke-width="1.68421" fill="#22354B" transform="matrix(0.707107 -0.707107 0.707107 0.707107 -1.309 49.84)"/><rect x="48.993" y="18" width="2" height="11" class="MsftOfcThm_Accent2_Fill_v2 MsftOfcThm_Text1_Stroke_v2" stroke="#22354B" stroke-width="1.68421" fill="#22354B"/><rect x="39.496" y="21.56" width="2" height="9.889" class="MsftOfcThm_Accent2_Fill_v2 MsftOfcThm_Text1_Stroke_v2" stroke="#22354B" stroke-width="1.68421" fill="#22354B" transform="matrix(0.707082 -0.707131 0.707131 0.707082 -6.88 36.4)"/><path d="M86.669 34 33.5 34C24.6822 34.0005 16.8519 39.6379 14.054 48L12 48C8.68629 48 6 50.6863 6 54 6 57.3137 8.68629 60 12 60L13.723 60C13.75 60.1 13.77 60.2 13.798 60.308 16.2385 68.9215 24.0599 74.8993 33.012 74.993 33.202 74.998 33.39 75 33.578 75 41.296 75 47.258 71.078 51.566 64.222L54.438 59.369C56.8968 55.2158 60.9977 52.2965 65.727 51.333L85.634 47.278C86.4546 47.1111 87.0844 46.4506 87.212 45.623L88.646 36.3C88.8117 35.2079 88.0607 34.1883 86.9686 34.0226 86.8695 34.0076 86.7693 34 86.669 34ZM45.007 36 55.007 36 55.007 39 45.007 39ZM12 58C9.79086 58 8 56.2091 8 54 8 51.7909 9.79086 50 12 50L13.5 50C12.9163 52.6285 12.8463 55.345 13.294 58ZM85.235 45.318 65.328 49.373C60.0463 50.4533 55.4665 53.7138 52.717 58.351L49.858 63.18C45.756 69.7 40.279 73 33.578 73 33.407 73 33.234 73 33.061 72.993 24.989 72.9275 17.9281 67.5444 15.727 59.778 14.0949 54.1115 15.2244 48.0073 18.776 43.3 22.2618 38.6853 27.7167 35.9808 33.5 36L43.008 36 43.008 41 57.008 41 57.008 36 86.669 36Z" class="MsftOfcThm_Accent2_Fill_v2 MsftOfcThm_Text1_Stroke_v2" stroke="#22354B" stroke-width="1.68421" fill="#22354B"/><path d="M33.5 42C26.5964 42 21 47.5964 21 54.5 21 61.4036 26.5964 67 33.5 67 40.4036 67 46 61.4036 46 54.5 45.9923 47.5996 40.4004 42.0077 33.5 42ZM33.5 65C27.701 65 23 60.299 23 54.5 23 48.701 27.701 44 33.5 44 39.299 44 44 48.701 44 54.5 43.9934 60.2962 39.2962 64.9934 33.5 65Z" class="MsftOfcThm_Accent2_Fill_v2 MsftOfcThm_Text1_Stroke_v2" stroke="#22354B" stroke-width="1.68421" fill="#22354B"/></g></svg>