<svg viewBox="0 0 96 96" xmlns="http://www.w3.org/2000/svg" xmlns:xlink="http://www.w3.org/1999/xlink" id="Icons_RadarChart" overflow="hidden"><path d="M73.706 43.25 88 40.041 87.123 36.141 72.9 39.333 49.657 16.752 49.657 9.1 45.657 9.1 45.657 16.807 19.176 38.6 8.191 36.139 7.314 40.039 18.3 42.507 28.474 72.9 21.318 83.91 24.672 86.09 31.81 75.105 59.029 68.218 70.643 86.09 74 83.91 62.3 65.917ZM58.518 60.091 50.9 48.37 66.134 44.95ZM65.9 40.9 49.657 44.55 49.657 25.119ZM45.657 24.577 45.657 44.55 26.594 40.27ZM25.137 44.042 44.413 48.37 32.649 66.47ZM36.624 67.7 47.657 50.719 55.574 62.9Z" stroke-width="1.95394" fill="#91ADCD"/></svg>