<svg viewBox="0 0 512 512" xmlns="http://www.w3.org/2000/svg" xmlns:xlink="http://www.w3.org/1999/xlink" id="Capa_1" overflow="hidden"><style>
.MsftOfcThm_Background1_Fill_v2 {
 fill:#FFFFFF; 
}
</style>
<g><g><path d="M251.328 196.704C245.088 190.464 234.944 190.432 228.672 196.672L176 249.376 155.328 228.672C149.088 222.432 138.944 222.432 132.704 228.672 126.464 234.912 126.464 245.056 132.704 251.296L164.704 283.296C167.808 286.432 171.904 288 176 288 180.096 288 184.192 286.432 187.328 283.328L251.328 219.328C257.568 213.088 257.568 202.944 251.328 196.704Z" class="MsftOfcThm_Background1_Fill_v2" fill="#FFFFFF"/></g></g><g><g><path d="M251.328 324.704C245.088 318.464 234.944 318.432 228.672 324.672L176 377.376 155.328 356.704C149.088 350.464 138.944 350.464 132.704 356.704 126.464 362.944 126.464 373.088 132.704 379.328L164.704 411.328C167.808 414.432 171.904 416 176 416 180.096 416 184.192 414.432 187.328 411.328L251.328 347.328C257.568 341.088 257.568 330.944 251.328 324.704Z" class="MsftOfcThm_Background1_Fill_v2" fill="#FFFFFF"/></g></g><g><g><path d="M368 224 304 224C295.168 224 288 231.168 288 240 288 248.832 295.168 256 304 256L368 256C376.832 256 384 248.832 384 240 384 231.168 376.832 224 368 224Z" class="MsftOfcThm_Background1_Fill_v2" fill="#FFFFFF"/></g></g><g><g><path d="M368 352 304 352C295.168 352 288 359.168 288 368 288 376.832 295.168 384 304 384L368 384C376.832 384 384 376.832 384 368 384 359.168 376.832 352 368 352Z" class="MsftOfcThm_Background1_Fill_v2" fill="#FFFFFF"/></g></g><g><g><path d="M416 64 352 64 352 48C352 39.168 344.832 32 336 32L301.28 32C294.656 13.376 276.864 0 256 0 235.136 0 217.344 13.376 210.72 32L176 32C167.168 32 160 39.168 160 48L160 64 96 64C78.368 64 64 78.368 64 96L64 480C64 497.632 78.368 512 96 512L416 512C433.632 512 448 497.632 448 480L448 96C448 78.368 433.632 64 416 64ZM192 64 224 64C232.832 64 240 56.832 240 48 240 39.168 247.168 32 256 32 264.832 32 272 39.168 272 48 272 56.832 279.168 64 288 64L320 64 320 96 192 96 192 64ZM416 480 96 480 96 96 160 96 160 112C160 120.832 167.168 128 176 128L336 128C344.832 128 352 120.832 352 112L352 96 416 96 416 480Z" class="MsftOfcThm_Background1_Fill_v2" fill="#FFFFFF"/></g></g><g></g><g></g><g></g><g></g><g></g><g></g><g></g><g></g><g></g><g></g><g></g><g></g><g></g><g></g><g></g></svg>