<svg viewBox="0 0 96 96" xmlns="http://www.w3.org/2000/svg" xmlns:xlink="http://www.w3.org/1999/xlink" id="Icons_Rating2Star_M" overflow="hidden"><style>
.MsftOfcThm_Text1_Fill_v2 {
 fill:#22354B; 
}
</style>
<g id="Icons"><path d="M78.5 33 74.625 44.625 51.875 44.625 48 33 44.125 44.625 21.375 44.625 17.5 33 13.625 44.625 2 44.625 10.912 52.375 7.425 64 17.5 57.025 27.575 64 24.088 52.375 32.743 44.848 32.757 44.848 41.412 52.375 37.925 64 48 57.025 58.075 64 54.588 52.375 63.243 44.848 63.257 44.848 71.913 52.375 68.425 64 78.5 57.025 88.575 64 85.088 52.375 94 44.625 82.375 44.625ZM21.8 51.713 24.018 59.105 17.5 54.593 10.981 59.105 13.2 51.713 7.348 46.625 15.067 46.625 17.5 39.325 19.933 46.625 27.652 46.625ZM52.3 51.713 54.518 59.105 48 54.593 41.481 59.105 43.7 51.713 37.849 46.625 45.568 46.625 48 39.325 50.433 46.625 58.152 46.625ZM84.515 52.213 87.685 62.78 78.5 56.417 69.314 62.776 72.484 52.209 64.337 45.125 74.985 45.125 78.5 34.581 82.015 45.125 92.663 45.125Z" class="MsftOfcThm_Text1_Fill_v2" stroke-width="1.07297" fill="#22354B"/></g></svg>