<svg viewBox="0 0 49.4536 69.4636" xmlns="http://www.w3.org/2000/svg" xmlns:xlink="http://www.w3.org/1999/xlink" overflow="hidden"><defs></defs><g><g id="Calque_1"><path d="M29.3367 17.6112C39.0743 22.2786 45.2173 29.5703 49.9867 31.7041 52.3508 32.7619 56.1518 39.9483 49.1525 40.5507 40.0138 39.2507 35.4068 32.8365 24.8201 29.7237Z" id="bras_gauche" fill="#F8F7F7" transform="translate(-4.1358 -3.2623)"/><path d="M39.0513 56.0936C37.2701 57.0069 35.5683 58.0673 33.9635 59.2636 29.7867 62.3687 26.1967 66.1932 23.3617 70.5578 21.8745 72.7845 18.8639 73.384 16.6372 71.8968 15.5997 71.2039 14.8693 70.1377 14.5978 68.92 14.1994 67.1984 13.9851 65.4393 13.9586 63.6724L10.6686 49.3413 6.6864 31.92 18.4381 23.319C18.4381 23.319 25.6126 19.3469 25.9988 19.3469L32.7781 18.1881C32.7781 18.1881 37.4131 26.8986 38.5452 32.4926 39.6773 38.0866 38.8381 47.3698 39.8106 50.7393 39.9042 51.0446 40.0385 51.3358 40.21 51.6052 41.1513 53.0802 40.7186 55.039 39.2436 55.9802 39.1808 56.0203 39.1167 56.0581 39.0513 56.0936Z" id="torse" fill="#F8F7F7" transform="translate(-4.1358 -3.2623)"/><path d="M29.7161 30.9692C29.7294 31.2908 29.7331 31.6123 29.727 31.9338 29.7037 33.2438 30.1833 34.6701 29.477 35.8053 28.927 36.6907 28.3456 32.1724 27.7264 31.4528 26.602 30.1467 24.2789 33.6933 23.1285 32.4307 21.8664 31.0459 20.2624 29.9246 18.9339 28.5927 18.4322 28.2454 18.2789 27.5724 18.5807 27.0421 19.1817 25.2679 20.4625 24.4578 22.1044 23.7806 23.7825 23.2115 25.5929 23.1596 27.3008 23.6317 27.8484 24.6463 28.3444 25.6924 28.8089 26.7472 29.3717 28.0857 29.6793 29.5176 29.7161 30.9692Z" fill="#D18E6E" transform="translate(-4.1358 -3.2623)"/><path d="M19.8455 22.3607C19.8275 22.5138 19.8155 22.6678 19.8039 22.8207 19.7348 23.7439 19.6911 24.6685 19.6726 25.5946 19.6659 25.9228 19.5426 26.5636 19.7172 26.8327 19.9076 27.0404 20.1264 27.22 20.3672 27.3663 21.5373 28.2898 22.841 29.0302 24.2336 29.5621 27.7493 30.8774 28.7699 30.0499 28.7699 30.0499L29.1564 22.6491C28.9128 22.5124 28.6566 22.3996 28.3912 22.3124 27.7493 22.0424 27.0993 21.7937 26.4412 21.5663 25.2999 21.1556 24.1225 20.8531 22.9246 20.6627 22.3623 20.5739 21.7923 20.5429 21.2237 20.5702 20.978 20.5503 20.7336 20.6217 20.5372 20.7707 20.2782 21.0266 20.0869 21.3429 19.9805 21.6912 19.9147 21.9097 19.8695 22.1338 19.8455 22.3607Z" fill="#D18E6E" transform="translate(-4.1358 -3.2623)"/><path d="M22.13 20.5885C21.4411 20.5169 20.7449 20.5871 20.0842 20.7948 19.5722 20.9792 18.9323 21.3828 18.8942 21.9702 18.7771 23.7826 18.7242 25.5922 18.438 27.3902 18.4132 27.4849 18.4165 27.5848 18.4473 27.6778 18.5175 27.7893 18.6293 27.8682 18.7578 27.8971 19.3927 28.1236 20.0454 28.2969 20.7091 28.4152 21.3146 28.4494 21.9134 28.5599 22.4913 28.7439 22.4794 28.3779 22.6437 28.0283 22.9331 27.8039 23.3063 27.6016 23.7641 28.0803 24.1079 28.1897 24.618 28.3624 25.137 28.5079 25.6625 28.6255 26.7197 28.8416 27.8024 28.9049 28.8776 28.8135 29.1222 28.7924 29.4316 28.784 29.4734 28.4868 29.4904 28.3115 29.3994 28.1434 29.2434 28.0617 28.8768 27.8874 28.5 27.7357 28.1149 27.6074 27.1065 27.0653 26.2191 26.3135 25.1649 25.8541 24.5493 25.6424 23.9499 25.3862 23.3715 25.0876 23.0581 24.9433 22.8342 24.6559 22.7708 24.3168 22.7566 23.9234 22.8433 23.5332 22.7897 23.122 22.7279 22.6903 22.6343 22.2638 22.5097 21.8459 22.4165 21.4174 22.2895 20.997 22.13 20.5885Z" fill="#C77752" transform="translate(-4.1358 -3.2623)"/><path d="M26.9263 29.6194 26.128 32.3657 28.3171 35.6144C29.0902 40.5711 31.0082 50.1154 30.9396 53.9725L34.53 58.3583 35.3827 53.6834C34.2237 47.6293 31.1984 38.2747 29.9927 34.3209L29.7385 29.9967 28.0751 29.4347Z" fill="#238856" transform="translate(-4.1358 -3.2623)"/><path d="M29.2584 26.8481 28.1513 29.417 30.6313 32.839C30.6313 32.839 32.543 30.8126 32.3633 26.665 32.1836 22.5174 29.2584 26.8481 29.2584 26.8481Z" fill="#FFFFFF" transform="translate(-4.1358 -3.2623)"/><path d="M32.1355 26.0178C31.8088 28.2558 29.7014 28.9334 26.8455 28.3894 25.3938 28.0132 24.0324 27.3493 22.8422 26.4369 22.3893 26.0998 22.0039 25.802 21.6859 25.5437L21.4114 25.3037C21.3401 25.2315 21.2638 25.1643 21.1831 25.1028 20.9991 24.9223 20.8847 24.8219 20.8847 24.8219 13.4647 17.0877 17.9697 16.1878 19.4163 12.6705 19.5223 12.3929 19.6642 12.1303 19.8385 11.8896 19.9645 11.6802 20.11 11.4832 20.273 11.3011 22.4197 8.5977 27.1387 7.0384 29.4198 7.3611 31.0809 7.67921 32.4853 8.78181 33.1885 10.32 33.5921 11.0569 33.9104 11.8374 34.1373 12.6464 34.1714 12.7574 34.1936 12.8717 34.2035 12.9874 34.62 15.7146 32.4464 23.8871 32.1355 26.0178Z" fill="#F1BA90" transform="translate(-4.1358 -3.2623)"/><path d="M33.6823 12.4141C33.5184 12.3885 33.3509 12.3981 33.1909 12.4421 32.8925 12.5406 32.5882 12.6204 32.2799 12.681 31.5623 12.8079 30.838 12.893 30.1106 12.9359 29.6428 12.9755 29.1721 12.9627 28.7071 12.8979 28.2038 12.8006 27.6902 12.768 27.1787 12.8008 26.2524 12.9382 25.4078 13.4082 24.8029 14.1231 24.4085 14.6237 24.1429 15.2133 24.0293 15.8404 23.7993 16.9023 23.9528 18.0249 23.8132 19.1099 23.7755 19.4037 23.8195 19.7137 23.7601 20.0007 23.6588 20.3449 23.501 20.6699 23.293 20.9623 23.0164 21.3053 22.8251 21.7091 22.7351 22.1405 22.6989 22.5725 22.688 23.0386 22.6638 23.4805 22.6001 24.4694 22.6599 25.4625 22.8418 26.4366 22.3889 26.0995 22.0035 25.8017 21.6855 25.5434 21.6043 25.4524 21.5121 25.3717 21.411 25.3034 21.34 25.2309 21.2637 25.1637 21.1827 25.1025 20.9987 24.922 20.8843 24.8216 20.8843 24.8216 13.4643 17.0874 17.9693 16.1875 19.4159 12.6702 19.5219 12.3926 19.6638 12.13 19.8381 11.8893 19.9641 11.6799 20.1096 11.4829 20.2726 11.3008 21.42 10.1439 22.9105 9.3887 24.522 9.1479 25.5266 8.97031 26.5484 8.91021 27.5668 8.9688 28.9203 8.99177 30.2583 9.26093 31.5154 9.7631 31.9159 9.9522 32.5709 10.1031 33.1885 10.3203 33.5185 10.4361 33.7068 11.0423 33.7972 11.3368 33.8535 11.5211 33.8437 11.7051 33.8899 11.8878 33.9524 12.1023 34.0313 12.3117 34.1259 12.5141 33.9809 12.4693 33.8325 12.4359 33.6823 12.4141Z" fill="#DF9877" transform="translate(-4.1358 -3.2623)"/><path d="M32.4186 7.5866C30.5075 5.612 28.1186 3.7966 25.3321 3.3666 22.4955 2.99058 19.6431 3.93552 17.5921 5.9307 17.5313 5.98156 17.4777 6.04047 17.4328 6.1058 17.3812 6.14945 17.3333 6.19739 17.2897 6.2491 17.1683 6.33265 17.0608 6.43472 16.971 6.5516 16.7304 6.8408 16.5071 7.14396 16.3022 7.4595 16.2222 7.5868 16.1589 7.6984 16.0793 7.8258 15.6487 8.61107 15.3475 9.46064 15.1874 10.3418 15.1714 10.4374 15.1556 10.5487 15.1396 10.6445 15.0679 11.2789 15.052 11.9184 15.0919 12.5556 15.1642 13.3473 15.3081 14.1308 15.5219 14.8965 15.7286 15.6926 15.9515 16.4888 16.1906 17.2852 16.2544 17.4764 16.3022 17.6675 16.35 17.8426 16.6367 18.7663 16.9074 19.6899 17.1781 20.5976 17.2865 21.1631 17.4465 21.7176 17.6559 22.254 17.927 22.6739 18.2723 23.0409 18.6749 23.337 19.0572 23.6553 19.4397 23.958 19.8849 24.2762L19.9009 24.2922C19.8878 24.2821 19.8854 24.2632 19.8955 24.2501 19.897 24.2481 19.8989 24.2463 19.9009 24.2447 19.8936 24.0101 19.9096 23.7753 19.9487 23.5439L19.9487 23.48C19.8531 22.0745 19.3678 20.7234 18.5472 19.5783 18.257 19.1543 18.0366 18.6866 17.8942 18.193 17.8478 18.0218 17.8264 17.8448 17.8306 17.6674 17.8306 17.5718 17.8467 17.4763 17.8467 17.3807 17.8514 16.9531 17.9723 16.5348 18.1967 16.1707 18.6617 15.5884 19.5108 15.4933 20.093 15.9584 20.246 16.0805 20.3706 16.2346 20.4581 16.4097 20.73 17.0085 20.9228 17.6402 21.0315 18.2888 21.1613 18.805 21.2359 19.3335 21.2542 19.8654 21.2702 20.0405 21.2702 20.2159 21.2702 20.391 21.7162 20.5183 22.1463 20.6459 22.5921 20.7575 22.6241 20.5026 22.6716 20.2475 22.7194 19.9927 22.9581 18.5117 23.2608 17.0627 23.4042 15.5498 23.4202 15.4698 23.4202 15.4062 23.4362 15.3267 23.452 15.2791 23.452 15.2151 23.468 15.1675 23.914 12.5239 26.6848 11.5842 31.3508 11.5842 32.3606 11.4605 33.3738 11.7866 34.1218 12.4761 34.1762 10.692 33.5696 8.95077 32.4186 7.5866Z" fill="#3B3B3B" transform="translate(-4.1358 -3.2623)"/><path d="M23.4688 15.3422C23.4398 15.4682 23.4185 15.5958 23.405 15.7244 23.2616 17.2372 22.9589 18.6865 22.7202 20.1676 22.6724 20.4223 22.6249 20.677 22.5929 20.9319 22.1471 20.8205 21.717 20.693 21.271 20.5658L21.271 20.3905C21.271 20.2154 21.271 20.04 21.255 19.8649 21.221 19.3923 21.1465 18.9235 21.0323 18.4636 20.9236 17.815 20.7309 17.1833 20.4589 16.5845 20.126 15.9179 19.3158 15.6473 18.6492 15.9802 18.4739 16.0678 18.3197 16.1924 18.1975 16.3456 18.003 16.6592 17.8833 17.0133 17.8475 17.3806 17.8475 17.4762 17.8314 17.5717 17.8314 17.6673 17.8268 17.9025 17.8481 18.1375 17.895 18.368 17.9091 18.4339 17.9305 18.498 17.9588 18.5592 18.1034 18.9808 18.3014 19.3822 18.548 19.7535 19.3443 20.8695 19.8281 22.1779 19.9495 23.5435L19.9495 23.6549C19.9495 23.7507 19.9017 24.0371 19.9017 24.2443 19.8926 24.2524 19.8869 24.2637 19.8857 24.2758 19.4401 23.9576 19.0576 23.6549 18.6757 23.3366 18.2731 23.0405 17.9278 22.6735 17.6567 22.2536 17.4473 21.7172 17.2873 21.1627 17.1789 20.5972 16.9082 19.6895 16.6375 18.7659 16.3508 17.8422 16.303 17.6671 16.2552 17.476 16.1914 17.2848 15.9528 16.4885 15.7299 15.6923 15.5227 14.8961 15.3089 14.1304 15.165 13.3469 15.0927 12.5552 15.0528 11.918 15.0687 11.2785 15.1404 10.6441 15.1564 10.5483 15.1722 10.437 15.1882 10.3414 15.3819 9.46954 15.6814 8.62461 16.0801 7.8254 16.1601 7.698 16.2232 7.5864 16.303 7.4591 16.5079 7.14356 16.7312 6.8404 16.9718 6.5512 17.0616 6.43432 17.1691 6.33225 17.2905 6.2487 17.3341 6.19699 17.382 6.14906 17.4336 6.1054 17.2474 6.2864 17.0915 6.49614 16.9718 6.7266 16.204 8.5866 16.6244 10.7255 18.039 12.1566 18.6992 12.6441 19.4089 13.0608 20.1562 13.4 21.1887 13.911 22.1886 14.4855 23.1501 15.12 23.252 15.1799 23.348 15.2492 23.437 15.327 23.4528 15.3262 23.4528 15.3262 23.4688 15.3422Z" fill="#626262" transform="translate(-4.1358 -3.2623)"/><path d="M19.9493 23.5437 19.9493 23.6551C19.9493 23.7509 19.9015 24.0373 19.9015 24.2445 19.8924 24.2526 19.8867 24.2639 19.8855 24.276 19.4399 23.9578 19.0574 23.6551 18.6755 23.3368 18.2729 23.0407 17.9276 22.6737 17.6565 22.2538 17.4471 21.7174 17.2871 21.1629 17.1787 20.5974 16.908 19.6897 16.6373 18.7661 16.3506 17.8424 16.6859 18.0621 17.0504 18.2338 17.4334 18.3524 17.6087 18.4162 17.7839 18.4798 17.959 18.5596 18.1036 18.9812 18.3016 19.3826 18.5482 19.7539 19.3443 20.8699 19.828 22.1782 19.9493 23.5437Z" fill="#7F8080" transform="translate(-4.1358 -3.2623)"/><path d="M18.8047 23.4815 18.8047 23.4815C18.3587 23.9332 18.0304 24.4874 17.8486 25.0955 17.8004 25.7467 16.6014 31.7044 23.5944 33.3694L26.2844 33.7878 27.1727 29.5194C27.1727 29.5194 19.6554 29.1349 18.9832 25.0955 18.9258 24.7524 18.8047 23.4815 18.8047 23.4815Z" fill="#FFFFFF" transform="translate(-4.1358 -3.2623)"/><path d="M35.7812 34.932C34.8151 35.1724 33.8043 35.1675 32.8406 34.9179 31.9687 34.5709 31.124 34.159 30.3137 33.6856 30.3137 33.6856 30.1164 34.3624 29.1248 33.9892 28.3245 33.7617 27.6231 33.2732 27.1321 32.6015 27.0449 32.3588 27.0573 32.0915 27.1666 31.8579 27.1666 31.8579 26.4266 31.3415 26.7805 30.6712 26.4106 30.4813 26.143 30.1384 26.0487 29.7335 25.9267 29.3596 26.1309 28.9575 26.5049 28.8355 26.5304 28.8272 26.5565 28.8203 26.5828 28.8149 26.5828 28.8149 25.7892 28.2834 25.716 27.9959 25.6793 27.7497 25.6883 27.4989 25.7424 27.2559 25.7424 27.2559 25.9583 26.0494 26.3367 25.9448 27.7194 26.0074 29.0943 26.1869 30.4467 26.4815 30.6034 26.5834 32.2645 27.4287 32.7643 27.7852 33.2641 28.1417 34.2615 29.9429 34.8765 30.3792 35.7127 31.3998 36.4275 32.5142 37.0065 33.6998 37.0018 33.7245 35.7812 34.932 35.7812 34.932Z" fill="#F1BA90" transform="translate(-4.1358 -3.2623)"/><path d="M35.3831 30.6425C43.5305 33.5618 46.2731 30.4276 51.4114 32.155 53.8725 33.0118 55.6196 39.765 48.7609 40.4037 42.4988 40.5837 40.7409 39.0916 33.7577 35.4116Z" fill="#F8F7F7" transform="translate(-4.1358 -3.2623)"/><path d="M33.9635 59.2669C29.7868 62.3721 26.1967 66.1967 23.3617 70.5613 21.8746 72.788 18.864 73.3875 16.6374 71.9005 15.5997 71.2074 14.8692 70.141 14.5978 68.9231 14.1994 67.2015 13.9851 65.4424 13.9586 63.6755L10.6686 49.3443 15.85 41.353 20.6849 53.5266Z" id="ombre_ventre" fill="#C7C6C6" opacity="0.5" transform="translate(-4.1358 -3.2623)"/><path d="M6.6809 31.9312C5.7385 33.3111 5.05582 34.8514 4.6664 36.4764 4.00972 39.1933 3.95936 42.0215 4.5189 44.76 5.59078 51.0884 7.83926 57.1599 11.1479 62.66 12.4197 65.0569 24.0344 67.477 33.7285 69.9772 33.7677 69.9872 34.2475 71.0318 34.2867 71.0419 34.3852 70.6429 34.4629 70.239 34.5193 69.8319 34.5778 69.4763 34.7799 69.1604 35.0782 68.9582 36.2159 68.3776 37.5076 65.2143 36.7906 62.9395 31.0101 59.9319 24.9047 57.595 18.5933 55.9743L16.0185 42.25C14.33 32.9847 9.8271 29.5209 6.6809 31.9312Z" id="bras_droit" fill="#F8F7F7" transform="translate(-4.1358 -3.2623)"/><path d="M34.908 68.1459 37.8336 69.2531C39.6262 69.6189 41.4661 69.6921 43.2821 69.4697L47.0556 70.6386 48.7009 70.9851C49.372 71.1366 49.6968 70.3788 48.8741 69.9026L44.8668 68.4154 45.0207 67.911 47.2289 68.3439 49.1771 68.95C50.1729 69.21 50.3029 68.3439 49.3937 67.6945L47.0556 66.5689 45.1939 66.0061 45.3672 65.7461 47.3154 66.2297 49.3937 67.1966C50.4977 67.4996 50.8224 66.7636 49.9998 66.1359L47.9864 65.0967 45.5619 64.2092 45.7352 63.8192 47.6619 64.1872 50.1729 65.2264C51.2121 65.4864 51.2986 64.7284 50.3694 64.0379L47.9 62.6506 43.9167 61.72 44.0467 61.5035 45.3024 61.3303 46.9142 61.617C47.9216 61.8282 48.3542 61.0706 47.099 60.5076L44.9344 59.9448C44.9344 59.9448 41.7304 60.0532 40.9862 60.5624 39.983 61.2493 37.4008 63.1488 37.4008 63.1488L36.4787 63.0488C34.8978 62.6818 33.3062 67.6046 34.908 68.1459Z" id="main_droite" fill="#F1BA90" transform="translate(-4.1358 -3.2623)"/><path d="M36.8739 62.9981C36.8739 62.9981 35.3839 63.1354 34.7375 65.6638 34.4632 66.7395 34.3486 67.8497 34.3975 68.9588 34.4293 69.3617 34.2882 69.7678 34.3514 70.0653 34.3843 70.3922 34.3625 70.7224 34.2868 71.0421 34.2468 71.0673 30.8537 70.1302 30.8537 70.1302 30.695 68.0855 30.9361 66.0295 31.5637 64.0771 32.0001 62.9776 32.7767 62.0466 33.78 61.42Z" id="manchette_droite" fill="#FFFFFF" transform="translate(-4.1358 -3.2623)"/><path d="M37.0067 37.3286C36.2546 37.2893 36.1278 38.1322 36.1125 38.2252 36.1048 38.2715 33.9898 37.4946 33.9898 37.4946L35.0937 36.3514C35.6895 36.7532 36.3319 37.0814 37.0067 37.3286Z" id="manchette_gauche_dessous" fill="#FFFFFF" transform="translate(-4.1358 -3.2623)"/><path d="M38.46 31.4905C38.46 31.4905 37.5723 31.6481 36.9259 34.1765 36.6263 35.1425 36.443 36.1408 36.3799 37.1503 36.3623 37.5226 36.2716 37.8879 36.113 38.2252 36.073 38.2504 33.4515 37.3013 33.3059 37.2667 33.7582 35.9198 33.2493 35.1006 34.2569 32.6357 35.0225 30.7627 35.3836 30.6425 35.3836 30.6425Z" id="manchette_gauche_dessus" fill="#FFFFFF" transform="translate(-4.1358 -3.2623)"/></g></g></svg>