<svg viewBox="0 0 511.795 511.795" xmlns="http://www.w3.org/2000/svg" xmlns:xlink="http://www.w3.org/1999/xlink" id="Layer_1" overflow="hidden"><style>
.MsftOfcThm_Text1_lumMod_75_Fill {
 fill:#192838; 
}
</style>
<g><g><g><path d="M307.098 179.004C307.098 183.714 310.912 187.537 315.631 187.537L400.964 187.537C405.683 187.537 409.497 183.714 409.497 179.004 409.497 174.294 405.683 170.471 400.964 170.471L315.631 170.471C310.912 170.47 307.098 174.293 307.098 179.004Z" class="MsftOfcThm_Text1_lumMod_75_Fill" fill="#192838"/><path d="M358.298 230.204C358.298 234.914 362.112 238.737 366.831 238.737L418.031 238.737C422.75 238.737 426.564 234.914 426.564 230.204 426.564 225.494 422.75 221.671 418.031 221.671L366.831 221.671C362.112 221.67 358.298 225.493 358.298 230.204Z" class="MsftOfcThm_Text1_lumMod_75_Fill" fill="#192838"/><path d="M349.764 136.337C354.483 136.337 358.297 132.514 358.297 127.804 358.297 123.094 354.483 119.271 349.764 119.271L332.697 119.271C327.978 119.271 324.164 123.094 324.164 127.804 324.164 132.514 327.978 136.337 332.697 136.337L349.764 136.337Z" class="MsftOfcThm_Text1_lumMod_75_Fill" fill="#192838"/><path d="M247.364 221.67C242.645 221.67 238.831 225.493 238.831 230.203 238.831 234.913 242.645 238.736 247.364 238.736L332.697 238.736C337.416 238.736 341.23 234.913 341.23 230.203 341.23 225.493 337.416 221.67 332.697 221.67L247.364 221.67Z" class="MsftOfcThm_Text1_lumMod_75_Fill" fill="#192838"/><path d="M290.031 460.604 127.898 460.604C113.784 460.604 102.298 449.118 102.298 435.004L102.298 42.47C102.298 37.76 98.484 33.937 93.765 33.937 70.239 33.937 51.098 53.077 51.098 76.604 51.098 81.314 54.912 85.137 59.631 85.137 64.35 85.137 68.164 81.314 68.164 76.604 68.164 65.476 75.298 55.987 85.231 52.463L85.231 435.004C85.231 458.53 104.371 477.671 127.898 477.671L290.031 477.671C294.75 477.671 298.564 473.848 298.564 469.138 298.564 464.428 294.75 460.604 290.031 460.604Z" class="MsftOfcThm_Text1_lumMod_75_Fill" fill="#192838"/><path d="M162.031 187.537 281.498 187.537C286.217 187.537 290.031 183.714 290.031 179.004 290.031 174.294 286.217 170.471 281.498 170.471L162.031 170.471C157.312 170.471 153.498 174.294 153.498 179.004 153.498 183.714 157.312 187.537 162.031 187.537Z" class="MsftOfcThm_Text1_lumMod_75_Fill" fill="#192838"/><path d="M162.031 136.337 196.164 136.337C200.883 136.337 204.697 132.514 204.697 127.804 204.697 123.094 200.883 119.271 196.164 119.271L162.031 119.271C157.312 119.271 153.498 123.094 153.498 127.804 153.498 132.514 157.312 136.337 162.031 136.337Z" class="MsftOfcThm_Text1_lumMod_75_Fill" fill="#192838"/><path d="M298.564 119.27 230.297 119.27C225.578 119.27 221.764 123.093 221.764 127.803 221.764 132.513 225.578 136.336 230.297 136.336L298.564 136.336C303.283 136.336 307.097 132.513 307.097 127.803 307.098 123.093 303.283 119.27 298.564 119.27Z" class="MsftOfcThm_Text1_lumMod_75_Fill" fill="#192838"/><path d="M418.031 0 93.764 0C51.515 0 17.126 34.295 16.964 76.501L16.964 76.603 16.964 76.697 16.964 76.8 16.964 76.902C17.075 104.115 31.761 129.467 55.355 143.121 59.434 145.476 64.648 144.085 67.011 140.015 69.383 135.936 67.975 130.714 63.905 128.358 45.508 117.7 34.065 97.92 34.031 76.698 34.091 43.81 60.86 17.067 93.764 17.067L418.031 17.067C450.961 17.067 477.764 43.862 477.764 76.8L477.764 435.2C477.764 439.526 476.552 443.87 474.274 447.744 471.893 451.806 473.241 457.037 477.303 459.426 478.668 460.228 480.153 460.604 481.621 460.604 484.548 460.604 487.398 459.102 488.985 456.397 492.808 449.903 494.83 442.573 494.83 435.2L494.83 76.8C494.831 34.449 460.382 0 418.031 0Z" class="MsftOfcThm_Text1_lumMod_75_Fill" fill="#192838"/><path d="M443.631 392.337C443.631 364.1 420.668 341.137 392.431 341.137 364.194 341.137 341.231 364.1 341.231 392.337 341.231 420.574 364.194 443.537 392.431 443.537 420.668 443.537 443.631 420.574 443.631 392.337ZM392.431 426.47C373.606 426.47 358.298 411.161 358.298 392.337 358.298 373.513 373.607 358.204 392.431 358.204 411.256 358.204 426.564 373.513 426.564 392.337 426.564 411.161 411.256 426.47 392.431 426.47Z" class="MsftOfcThm_Text1_lumMod_75_Fill" fill="#192838"/><path d="M377.028 452.079C372.958 449.724 367.735 451.123 365.371 455.202L346.999 487.04 344.081 482.637C342.605 480.393 340.156 478.976 337.476 478.823L332.202 478.507 350.882 446.166C353.237 442.087 351.838 436.865 347.759 434.509 343.68 432.145 338.458 433.545 336.094 437.632L310.52 481.929C309.044 484.489 309.001 487.638 310.4 490.24 311.799 492.842 314.445 494.541 317.406 494.711L332.194 495.598 340.36 507.963C341.939 510.361 344.618 511.794 347.477 511.794L347.742 511.794C350.686 511.7 353.391 510.087 354.876 507.527L380.16 463.734C382.515 459.657 381.116 454.434 377.028 452.079Z" class="MsftOfcThm_Text1_lumMod_75_Fill" fill="#192838"/><path d="M448.99 438.033C446.626 433.946 441.395 432.546 437.333 434.91 433.246 437.265 431.846 442.488 434.201 446.566L452.659 478.506 447.385 478.822C444.706 478.984 442.257 480.401 440.772 482.636L437.871 487.039 419.593 455.363C417.221 451.284 411.998 449.885 407.928 452.24 403.849 454.595 402.45 459.818 404.805 463.897L429.995 507.528C431.48 510.088 434.185 511.701 437.129 511.795L437.394 511.795C440.244 511.795 442.932 510.361 444.519 507.964L452.677 495.608 467.457 494.712C470.418 494.541 473.063 492.843 474.463 490.241 475.863 487.639 475.811 484.49 474.344 481.93L448.99 438.033Z" class="MsftOfcThm_Text1_lumMod_75_Fill" fill="#192838"/><path d="M162.031 238.737 213.231 238.737C217.95 238.737 221.764 234.914 221.764 230.204 221.764 225.494 217.95 221.671 213.231 221.671L162.031 221.671C157.312 221.671 153.498 225.494 153.498 230.204 153.498 234.914 157.312 238.737 162.031 238.737Z" class="MsftOfcThm_Text1_lumMod_75_Fill" fill="#192838"/><path d="M162.031 289.937 264.431 289.937C269.15 289.937 272.964 286.114 272.964 281.404 272.964 276.694 269.15 272.871 264.431 272.871L162.031 272.871C157.312 272.871 153.498 276.694 153.498 281.404 153.498 286.114 157.312 289.937 162.031 289.937Z" class="MsftOfcThm_Text1_lumMod_75_Fill" fill="#192838"/><path d="M162.935 396.151C165.034 400.366 170.163 402.073 174.378 399.974 178.593 397.866 180.309 392.738 178.192 388.522 169.744 371.626 167.85 356.471 173.106 347.963 175.905 343.432 180.786 341.136 187.63 341.136 191.7 341.136 193.219 342.535 194.175 343.901 200.532 353.066 194.491 380.978 188.168 397.874 186.76 401.637 188.168 405.87 191.547 408.046 194.909 410.205 199.355 409.736 202.197 406.903 205.841 403.268 209.792 399.641 213.231 396.697L213.231 400.87C213.231 404.317 215.305 407.432 218.496 408.746 221.687 410.077 225.348 409.343 227.797 406.903 231.697 403.012 236.219 399.197 240.025 396.45 239.923 396.663 239.82 396.868 239.718 397.064 238.412 399.709 238.557 402.85 240.111 405.358 241.673 407.867 244.412 409.403 247.364 409.403L281.497 409.403C286.216 409.403 290.03 405.58 290.03 400.87 290.03 396.16 286.216 392.337 281.497 392.337L259.285 392.337C259.976 388.275 259.806 384.145 257.749 380.817 255.573 377.293 251.784 375.27 247.364 375.27 242.09 375.27 235.887 378.478 230.221 382.455 229.786 378.734 227.584 375.671 224.239 374.289 221.961 373.35 219.025 372.122 211.9 376.397 214.707 361.694 215.527 344.747 208.205 334.183 205.005 329.566 198.844 324.071 187.631 324.071 174.848 324.071 164.531 329.37 158.584 338.996 150.076 352.768 151.654 373.598 162.935 396.151Z" class="MsftOfcThm_Text1_lumMod_75_Fill" fill="#192838"/><path d="M392.431 281.404C392.431 276.694 388.617 272.871 383.898 272.871L298.565 272.871C293.846 272.871 290.032 276.694 290.032 281.404 290.032 286.114 293.846 289.937 298.565 289.937L383.898 289.937C388.617 289.937 392.431 286.114 392.431 281.404Z" class="MsftOfcThm_Text1_lumMod_75_Fill" fill="#192838"/></g></g></g><g></g><g></g><g></g><g></g><g></g><g></g><g></g><g></g><g></g><g></g><g></g><g></g><g></g><g></g><g></g></svg>