<svg viewBox="0 0 496 496" xmlns="http://www.w3.org/2000/svg" xmlns:xlink="http://www.w3.org/1999/xlink" id="Capa_1" overflow="hidden"><style>
.MsftOfcThm_Text1_lumMod_75_Fill {
 fill:#192838; 
}
</style>
<g><g><path d="M217.528 96 203.128 96 183.44 32 155.616 32 135.928 96 121.528 96 121.528 112 131.008 112 121.88 141.648 137.168 146.352 147.744 112 191.312 112 201.88 146.352 217.168 141.648 208.048 112 217.528 112 217.528 96ZM152.664 96 167.44 48 171.616 48 186.384 96 152.664 96Z" class="MsftOfcThm_Text1_lumMod_75_Fill" fill="#192838"/></g></g><g><g><path d="M294.672 88C301.328 82.136 305.528 73.544 305.528 64 305.528 46.352 291.176 32 273.528 32L241.528 32 241.528 144 273.528 144C291.176 144 305.528 129.648 305.528 112 305.528 102.456 301.328 93.864 294.672 88ZM273.528 128 257.528 128 257.528 96 273.528 96C282.352 96 289.528 103.176 289.528 112 289.528 120.824 282.352 128 273.528 128ZM273.528 80 257.528 80 257.528 48 273.528 48C282.352 48 289.528 55.176 289.528 64 289.528 72.824 282.352 80 273.528 80Z" class="MsftOfcThm_Text1_lumMod_75_Fill" fill="#192838"/></g></g><g><g><path d="M377.528 48 377.528 32C346.648 32 321.528 57.12 321.528 88 321.528 118.88 346.648 144 377.528 144L377.528 128C355.472 128 337.528 110.056 337.528 88 337.528 65.944 355.472 48 377.528 48Z" class="MsftOfcThm_Text1_lumMod_75_Fill" fill="#192838"/></g></g><g><g><path d="M97.528 160 97.528 304 401.528 304 401.528 160 97.528 160ZM385.528 288 113.528 288 113.528 176 385.528 176 385.528 288Z" class="MsftOfcThm_Text1_lumMod_75_Fill" fill="#192838"/></g></g><g><g><rect x="105.528" y="320" width="288" height="16" class="MsftOfcThm_Text1_lumMod_75_Fill" fill="#192838"/></g></g><g><g><rect x="105.528" y="352" width="288" height="16" class="MsftOfcThm_Text1_lumMod_75_Fill" fill="#192838"/></g></g><g><g><rect x="377.528" y="384" width="16" height="16" class="MsftOfcThm_Text1_lumMod_75_Fill" fill="#192838"/></g></g><g><g><rect x="105.528" y="384" width="256" height="16" class="MsftOfcThm_Text1_lumMod_75_Fill" fill="#192838"/></g></g><g><g><path d="M494.472 32 433.528 32 433.528 0 41.528 0C19.472 0 1.528 17.944 1.528 40L1.528 456C1.528 478.056 19.472 496 41.528 496L409.528 496 433.528 496 433.528 480 409.528 480C396.296 480 385.528 469.232 385.528 456 385.528 442.768 396.296 432 409.528 432L425.528 432 433.528 432 433.528 112 494.472 112 474.472 72 494.472 32ZM377.736 480 41.528 480C28.296 480 17.528 469.232 17.528 456 17.528 442.768 28.296 432 41.528 432L377.736 432C372.656 438.704 369.528 446.96 369.528 456 369.528 465.04 372.656 473.296 377.736 480ZM417.528 416 409.528 416 81.528 416 81.528 384 65.528 384 65.528 416 41.528 416C32.528 416 24.216 418.992 17.528 424.016L17.528 40C17.528 26.768 28.296 16 41.528 16L65.528 16 65.528 368 81.528 368 81.528 16 417.528 16 417.528 416ZM468.584 96 433.528 96 433.528 48 468.584 48 456.584 72 468.584 96Z" class="MsftOfcThm_Text1_lumMod_75_Fill" fill="#192838"/></g></g><g><g><rect x="65.528" y="448" width="288" height="16" class="MsftOfcThm_Text1_lumMod_75_Fill" fill="#192838"/></g></g><g><g><rect x="33.528" y="448" width="16" height="16" class="MsftOfcThm_Text1_lumMod_75_Fill" fill="#192838"/></g></g><g></g><g></g><g></g><g></g><g></g><g></g><g></g><g></g><g></g><g></g><g></g><g></g><g></g><g></g><g></g></svg>