<svg viewBox="0 0 60 60" xmlns="http://www.w3.org/2000/svg" xmlns:xlink="http://www.w3.org/1999/xlink" id="Capa_1" overflow="hidden"><style>
.MsftOfcThm_Text1_lumMod_75_Fill {
 fill:#192838; 
}
</style>
<g><path d="M21.021 28.977C18.75 26.412 15.722 25 12.493 25 9.264 25 6.236 26.412 3.966 28.977-0.646 34.188-0.646 42.665 3.966 47.876L12.493 57.509 21.02 47.876C25.633 42.665 25.633 34.188 21.021 28.977ZM19.523 46.55 12.494 54.491 5.464 46.55C1.498 42.071 1.498 34.782 5.464 30.303 7.349 28.173 9.846 27 12.493 27 15.14 27 17.638 28.173 19.522 30.303 23.488 34.782 23.488 42.07 19.523 46.55Z" class="MsftOfcThm_Text1_lumMod_75_Fill" fill="#192838"/><path d="M48.747 24.507 55.211 17.221C58.689 13.301 58.689 6.925 55.211 3.005 53.491 1.067 51.195 0 48.746 0 46.298 0 44.002 1.067 42.282 3.005 38.804 6.925 38.804 13.301 42.282 17.221L48.747 24.507ZM43.778 4.333C45.113 2.828 46.877 2 48.746 2 50.616 2 52.38 2.828 53.715 4.333 56.543 7.52 56.543 12.706 53.715 15.893L48.747 21.494 43.778 15.893C40.95 12.706 40.95 7.52 43.778 4.333Z" class="MsftOfcThm_Text1_lumMod_75_Fill" fill="#192838"/><path d="M52.604 54.517C52.065 54.396 51.53 54.734 51.409 55.273 51.294 55.783 51.071 56.252 50.746 56.665 50.405 57.099 50.479 57.728 50.914 58.069 51.098 58.213 51.315 58.283 51.531 58.283 51.828 58.283 52.121 58.152 52.318 57.901 52.822 57.261 53.182 56.505 53.36 55.713 53.481 55.173 53.143 54.638 52.604 54.517Z" class="MsftOfcThm_Text1_lumMod_75_Fill" fill="#192838"/><path d="M31.995 31C31.562 30.999 31.141 30.922 30.743 30.77 30.231 30.575 29.65 30.832 29.452 31.348 29.256 31.864 29.515 32.442 30.03 32.639 30.656 32.877 31.315 32.999 31.993 33L32.35 33C32.903 33 33.35 32.553 33.35 32 33.35 31.447 32.903 31 32.35 31L31.995 31Z" class="MsftOfcThm_Text1_lumMod_75_Fill" fill="#192838"/><path d="M29.621 24.676C29.802 24.676 29.984 24.627 30.149 24.525 30.592 24.249 31.082 24.08 31.603 24.022 32.152 23.961 32.548 23.467 32.488 22.918 32.428 22.369 31.937 21.977 31.384 22.033 30.562 22.124 29.79 22.39 29.09 22.827 28.621 23.119 28.479 23.736 28.771 24.205 28.961 24.509 29.287 24.676 29.621 24.676Z" class="MsftOfcThm_Text1_lumMod_75_Fill" fill="#192838"/><path d="M18.064 58 16.064 58C15.511 58 15.064 58.447 15.064 59 15.064 59.553 15.511 60 16.064 60L18.064 60C18.617 60 19.064 59.553 19.064 59 19.064 58.447 18.616 58 18.064 58Z" class="MsftOfcThm_Text1_lumMod_75_Fill" fill="#192838"/><path d="M35.993 40C35.907 40 35.822 40.002 35.737 40.006 35.185 40.028 34.757 40.494 34.779 41.046 34.8 41.584 35.244 42.005 35.777 42.005 35.791 42.005 35.805 42.005 35.819 42.004L37.778 42C38.331 42 38.778 41.553 38.778 41 38.778 40.447 38.331 40 37.778 40L35.993 40Z" class="MsftOfcThm_Text1_lumMod_75_Fill" fill="#192838"/><path d="M35.493 24 37.493 24C38.046 24 38.493 23.553 38.493 23 38.493 22.447 38.046 22 37.493 22L35.493 22C34.94 22 34.493 22.447 34.493 23 34.493 23.553 34.94 24 35.493 24Z" class="MsftOfcThm_Text1_lumMod_75_Fill" fill="#192838"/><path d="M47.778 40C47.225 40 46.778 40.447 46.778 41 46.778 41.553 47.225 42 47.778 42L49.778 42C50.331 42 50.778 41.553 50.778 41 50.778 40.447 50.331 40 49.778 40L47.778 40Z" class="MsftOfcThm_Text1_lumMod_75_Fill" fill="#192838"/><path d="M51.351 32C51.351 31.447 50.904 31 50.351 31L48.351 31C47.798 31 47.351 31.447 47.351 32 47.351 32.553 47.798 33 48.351 33L50.351 33C50.903 33 51.351 32.553 51.351 32Z" class="MsftOfcThm_Text1_lumMod_75_Fill" fill="#192838"/><path d="M41.778 42 43.778 42C44.331 42 44.778 41.553 44.778 41 44.778 40.447 44.331 40 43.778 40L41.778 40C41.225 40 40.778 40.447 40.778 41 40.778 41.553 41.226 42 41.778 42Z" class="MsftOfcThm_Text1_lumMod_75_Fill" fill="#192838"/><path d="M43.493 24C44.046 24 44.493 23.553 44.493 23 44.493 22.447 44.046 22 43.493 22L41.493 22C40.94 22 40.493 22.447 40.493 23 40.493 23.553 40.94 24 41.493 24L43.493 24Z" class="MsftOfcThm_Text1_lumMod_75_Fill" fill="#192838"/><path d="M36.351 31C35.798 31 35.351 31.447 35.351 32 35.351 32.553 35.798 33 36.351 33L38.351 33C38.904 33 39.351 32.553 39.351 32 39.351 31.447 38.904 31 38.351 31L36.351 31Z" class="MsftOfcThm_Text1_lumMod_75_Fill" fill="#192838"/><path d="M45.351 32C45.351 31.447 44.904 31 44.351 31L42.351 31C41.798 31 41.351 31.447 41.351 32 41.351 32.553 41.798 33 42.351 33L44.351 33C44.903 33 45.351 32.553 45.351 32Z" class="MsftOfcThm_Text1_lumMod_75_Fill" fill="#192838"/><path d="M59.426 35.632C59.338 35.086 58.823 34.713 58.28 34.803 57.734 34.89 57.363 35.404 57.451 35.949 57.479 36.127 57.495 36.308 57.493 36.501 57.493 36.837 57.445 37.169 57.351 37.489 57.196 38.019 57.499 38.575 58.03 38.73 58.124 38.757 58.218 38.77 58.311 38.77 58.744 38.77 59.143 38.488 59.271 38.051 59.418 37.548 59.493 37.027 59.493 36.508 59.495 36.22 59.473 35.925 59.426 35.632Z" class="MsftOfcThm_Text1_lumMod_75_Fill" fill="#192838"/><path d="M42.064 58 40.064 58C39.511 58 39.064 58.447 39.064 59 39.064 59.553 39.511 60 40.064 60L42.064 60C42.617 60 43.064 59.553 43.064 59 43.064 58.447 42.616 58 42.064 58Z" class="MsftOfcThm_Text1_lumMod_75_Fill" fill="#192838"/><path d="M36.064 58 34.064 58C33.511 58 33.064 58.447 33.064 59 33.064 59.553 33.511 60 34.064 60L36.064 60C36.617 60 37.064 59.553 37.064 59 37.064 58.447 36.616 58 36.064 58Z" class="MsftOfcThm_Text1_lumMod_75_Fill" fill="#192838"/><path d="M47.065 50C47.065 49.447 46.618 49 46.065 49L44.065 49C43.512 49 43.065 49.447 43.065 50 43.065 50.553 43.512 51 44.065 51L46.065 51C46.617 51 47.065 50.553 47.065 50Z" class="MsftOfcThm_Text1_lumMod_75_Fill" fill="#192838"/><path d="M41.065 50C41.065 49.447 40.618 49 40.065 49L38.065 49C37.512 49 37.065 49.447 37.065 50 37.065 50.553 37.512 51 38.065 51L40.065 51C40.617 51 41.065 50.553 41.065 50Z" class="MsftOfcThm_Text1_lumMod_75_Fill" fill="#192838"/><path d="M47.993 58 46.063 58C45.51 58 45.063 58.447 45.063 59 45.063 59.553 45.51 60 46.063 60L48.034 59.999 48.063 58.999 48.063 59.999C48.616 59.999 49.028 59.552 49.028 58.999 49.028 58.447 48.546 58 47.993 58Z" class="MsftOfcThm_Text1_lumMod_75_Fill" fill="#192838"/><path d="M51.531 52.719C51.747 52.719 51.966 52.649 52.148 52.505 52.583 52.163 52.657 51.534 52.316 51.101 51.813 50.462 51.164 49.934 50.437 49.573 49.94 49.326 49.342 49.529 49.096 50.023 48.85 50.518 49.052 51.118 49.546 51.364 50.009 51.593 50.423 51.93 50.743 52.338 50.941 52.588 51.234 52.719 51.531 52.719Z" class="MsftOfcThm_Text1_lumMod_75_Fill" fill="#192838"/><path d="M55.345 39.729C54.916 39.909 54.462 40 53.993 40L53.778 40C53.225 40 52.778 40.447 52.778 41 52.778 41.553 53.225 42 53.778 42L53.993 42C54.729 42 55.444 41.856 56.118 41.573 56.628 41.359 56.867 40.773 56.653 40.264 56.44 39.755 55.85 39.515 55.345 39.729Z" class="MsftOfcThm_Text1_lumMod_75_Fill" fill="#192838"/><path d="M28.029 29.855C28.553 29.682 28.839 29.117 28.667 28.592 28.552 28.241 28.493 27.874 28.493 27.504 28.494 27.353 28.503 27.202 28.521 27.055 28.59 26.507 28.202 26.006 27.654 25.938 27.089 25.875 26.605 26.259 26.537 26.805 26.509 27.031 26.494 27.261 26.493 27.499 26.493 28.087 26.585 28.665 26.766 29.217 26.905 29.638 27.296 29.905 27.716 29.905 27.82 29.905 27.926 29.89 28.029 29.855Z" class="MsftOfcThm_Text1_lumMod_75_Fill" fill="#192838"/><path d="M24.064 58 22.064 58C21.511 58 21.064 58.447 21.064 59 21.064 59.553 21.511 60 22.064 60L24.064 60C24.617 60 25.064 59.553 25.064 59 25.064 58.447 24.616 58 24.064 58Z" class="MsftOfcThm_Text1_lumMod_75_Fill" fill="#192838"/><path d="M34.122 50.594C34.502 50.594 34.864 50.377 35.032 50.01 35.261 49.507 35.041 48.914 34.539 48.685 34.07 48.47 33.645 48.147 33.311 47.749 32.955 47.326 32.325 47.271 31.902 47.627 31.479 47.982 31.424 48.613 31.78 49.036 32.304 49.659 32.97 50.167 33.707 50.503 33.842 50.564 33.983 50.594 34.122 50.594Z" class="MsftOfcThm_Text1_lumMod_75_Fill" fill="#192838"/><path d="M56.746 31.738C56.032 31.324 55.252 31.081 54.429 31.016 53.88 30.976 53.397 31.383 53.354 31.935 53.311 32.486 53.722 32.967 54.273 33.01 54.795 33.051 55.29 33.205 55.743 33.468 55.901 33.56 56.074 33.603 56.244 33.603 56.589 33.603 56.925 33.424 57.11 33.105 57.387 32.628 57.224 32.016 56.746 31.738Z" class="MsftOfcThm_Text1_lumMod_75_Fill" fill="#192838"/><path d="M30.064 58 28.064 58C27.511 58 27.064 58.447 27.064 59 27.064 59.553 27.511 60 28.064 60L30.064 60C30.617 60 31.064 59.553 31.064 59 31.064 58.447 30.616 58 30.064 58Z" class="MsftOfcThm_Text1_lumMod_75_Fill" fill="#192838"/><path d="M32.555 44.839C32.654 44.325 32.862 43.85 33.174 43.426 33.501 42.982 33.406 42.356 32.961 42.028 32.516 41.702 31.891 41.796 31.563 42.241 31.074 42.907 30.746 43.654 30.59 44.463 30.486 45.005 30.841 45.529 31.384 45.634 31.447 45.646 31.511 45.652 31.573 45.652 32.043 45.65 32.462 45.317 32.555 44.839Z" class="MsftOfcThm_Text1_lumMod_75_Fill" fill="#192838"/><path d="M48.993 15C52.025 15 54.493 12.532 54.493 9.5 54.493 6.468 52.025 4 48.993 4 45.961 4 43.493 6.468 43.493 9.5 43.493 12.532 45.961 15 48.993 15ZM48.993 6C50.923 6 52.493 7.57 52.493 9.5 52.493 11.43 50.923 13 48.993 13 47.063 13 45.493 11.43 45.493 9.5 45.493 7.57 47.064 6 48.993 6Z" class="MsftOfcThm_Text1_lumMod_75_Fill" fill="#192838"/><path d="M12.493 31C9.184 31 6.493 33.691 6.493 37 6.493 40.309 9.184 43 12.493 43 15.802 43 18.493 40.309 18.493 37 18.493 33.691 15.802 31 12.493 31ZM12.493 41C10.287 41 8.493 39.206 8.493 37 8.493 34.794 10.287 33 12.493 33 14.699 33 16.493 34.794 16.493 37 16.493 39.206 14.699 41 12.493 41Z" class="MsftOfcThm_Text1_lumMod_75_Fill" fill="#192838"/></g><g></g><g></g><g></g><g></g><g></g><g></g><g></g><g></g><g></g><g></g><g></g><g></g><g></g><g></g><g></g></svg>