<svg viewBox="0 0 96 96" xmlns="http://www.w3.org/2000/svg" xmlns:xlink="http://www.w3.org/1999/xlink" id="Icons_MapCompass_M" overflow="hidden"><style>
.MsftOfcThm_Text1_lumMod_75_Fill_v2 {
 fill:#192838; 
}
.MsftOfcThm_Text1_Stroke_v2 {
 stroke:#22354B; 
}
</style>
<g id="Icons"><path d="M78.516 42.583 80.652 43.237C78.5259 28.8208 67.2137 17.4956 52.8 15.353L53.491 17.496C66.2507 19.8164 76.2272 29.8176 78.516 42.583Z" class="MsftOfcThm_Text1_lumMod_75_Fill_v2 MsftOfcThm_Text1_Stroke_v2" stroke="#22354B" stroke-width="1.77778" fill="#192838"/><path d="M15.36 43.146 17.5 42.5C19.8205 29.7697 29.7878 19.8103 42.52 17.5L43.175 15.361C28.8071 17.5083 17.5228 28.7805 15.36 43.146Z" class="MsftOfcThm_Text1_lumMod_75_Fill_v2 MsftOfcThm_Text1_Stroke_v2" stroke="#22354B" stroke-width="1.77778" fill="#192838"/><path d="M42.386 78.481C29.7473 76.1304 19.861 66.2397 17.516 53.6L15.365 52.9C17.5361 67.2003 28.7475 78.4311 43.044 80.627Z" class="MsftOfcThm_Text1_lumMod_75_Fill_v2 MsftOfcThm_Text1_Stroke_v2" stroke="#22354B" stroke-width="1.77778" fill="#192838"/><path d="M80.654 52.746 78.513 53.437C76.2161 66.1971 66.2378 76.1898 53.481 78.505L52.79 80.648C67.214 78.5082 78.5338 67.1729 80.654 52.746Z" class="MsftOfcThm_Text1_lumMod_75_Fill_v2 MsftOfcThm_Text1_Stroke_v2" stroke="#22354B" stroke-width="1.77778" fill="#192838"/><path d="M75.8 44.888 60.666 39.964 65.503 30.584 56.072 35.39 51.2 20.182 49.2 13.982 48 10.082 46.7 14.082 44.8 20.282 40.016 35.416 30.6 30.584 35.42 40.013 20.3 44.789 14 46.689 10 47.989 14 49.289 20.1 51.289 35.348 56.089 30.5 65.494 39.886 60.547 44.7 75.8 46.6 82 47.9 86 49.2 82 51.2 75.8 56.1 60.5 65.5 65.4 60.672 56.049 75.7 51.19 81.9 49.19 85.9 47.89 82 46.79ZM75.086 49.288 59.745 54.242 57.735 50.349C57.5336 51.2279 57.2137 52.0753 56.784 52.868L60.829 60.7 53.106 56.673C52.3669 57.1164 51.5733 57.4617 50.745 57.7L54.3 59.554 49.3 75.183 47.918 79.466 46.61 75.195 41.685 59.6 45.279 57.706C44.4517 57.4704 43.6584 57.1286 42.919 56.689L35.189 60.763 39.24 52.9C38.8083 52.1123 38.4857 51.2696 38.281 50.395L36.281 54.28 20.724 49.39 16.53 48.015 20.9 46.7 36.341 41.823 38.308 45.67C38.5225 44.8047 38.8525 43.9723 39.289 43.195L35.201 35.195 43.217 39.308C44.0108 38.8773 44.8596 38.5566 45.74 38.355L41.82 36.342 46.714 20.868 47.984 16.72 49.3 20.792 54.266 36.31 50.255 38.354C51.138 38.5552 51.9893 38.8766 52.785 39.309L60.885 35.184 56.738 43.227C57.1712 44.0069 57.4977 44.8413 57.709 45.708L59.742 41.765 75.217 46.8 79.1 47.992Z" class="MsftOfcThm_Text1_lumMod_75_Fill_v2 MsftOfcThm_Text1_Stroke_v2" stroke="#22354B" stroke-width="1.77778" fill="#192838"/><path d="M48 41.088C44.134 41.088 41 44.222 41 48.088 41 51.954 44.134 55.088 48 55.088 51.866 55.088 55 51.954 55 48.088 54.995 44.2241 51.8639 41.093 48 41.088ZM48 53.088C45.2386 53.088 43 50.8494 43 48.088 43 45.3266 45.2386 43.088 48 43.088 50.7614 43.088 53 45.3266 53 48.088 52.9978 50.849 50.761 53.0871 48 53.091Z" class="MsftOfcThm_Text1_lumMod_75_Fill_v2 MsftOfcThm_Text1_Stroke_v2" stroke="#22354B" stroke-width="1.77778" fill="#192838"/></g></svg>