<svg viewBox="0 0 96 96" xmlns="http://www.w3.org/2000/svg" xmlns:xlink="http://www.w3.org/1999/xlink" id="Icons_TrafficCone" overflow="hidden"><path d="M81.2 65.3 67.2 56.7 68.8 63.2C68.9 63.8 69 64.4 69 64.9 69 71.7 60 76.9 48 76.9 36 76.9 27 71.7 27 64.9 27 64.3 27.1 63.8 27.2 63.2L28.8 56.7 14.8 65.3C13.5 66.1 13.5 67.9 14.8 68.7L45.9 87.7C47.2 88.5 48.8 88.5 50.1 87.7L81.2 68.7C82.5 67.9 82.5 66.1 81.2 65.3Z" fill="#22354B"/><path d="M41.3 43.3C43.3 43.8 45.6 44 48 44 50.4 44 52.6 43.7 54.7 43.3L57 52.7C54.4 53.6 51.3 54.1 48 54.1 44.7 54.1 41.6 53.6 39 52.7L41.3 43.3ZM46.5 21.9C47 21.9 47.5 22 48 22 48.5 22 49 22 49.5 21.9L51.9 31.7C50.6 31.9 49.3 32 48 32 46.7 32 45.4 31.9 44.1 31.8L46.5 21.9ZM48 74C57.9 74 66 70 66 65 66 64.6 65.9 64.3 65.9 64L52.9 10.6C52.6 9.1 50.5 8 48 8 45.5 8 43.4 9.1 43.1 10.6L30.1 64C30 64.3 30 64.7 30 65 30 70 38.1 74 48 74Z" fill="#22354B"/></svg>