<svg viewBox="0 0 96 96" xmlns="http://www.w3.org/2000/svg" xmlns:xlink="http://www.w3.org/1999/xlink" id="Icons_BooksOnShelf_M" overflow="hidden"><style>
.MsftOfcResponsive_Fill_080808 {
 fill:#080808; 
}
</style>
<g id="Icons"><path d="M81 75 81 18 60 18 60 32 44 32 44 20 27 20 27 14 15 14 15 75 14 75 14 82 82 82 82 75ZM62 20 79 20 79 27 62 27ZM62 32 62 29 79 29 79 63 62 63ZM79 65 79 75 62 75 62 65ZM60 34 60 75 44 75 44 34ZM42 22 42 75 27 75 27 22ZM17 16 25 16 25 75 17 75ZM80 80 16 80 16 77 80 77Z" class="MsftOfcResponsive_Fill_080808" stroke-width="1.90749" fill="#080808"/><path d="M38 26 31 26 31 33 38 33ZM36 31 33 31 33 28 36 28Z" class="MsftOfcResponsive_Fill_080808" stroke-width="1.90749" fill="#080808"/><circle cx="52" cy="42" r="2" class="MsftOfcResponsive_Fill_080808" stroke-width="1.90749" fill="#080808"/><circle cx="52" cy="65" r="2" class="MsftOfcResponsive_Fill_080808" stroke-width="1.90749" fill="#080808"/></g></svg>