<svg viewBox="0 0 96 96" xmlns="http://www.w3.org/2000/svg" xmlns:xlink="http://www.w3.org/1999/xlink" id="Icons_WeightsUneven" overflow="hidden"><path d="M33 60 9 60C9 63.3 14.4 66 21 66 27.6 66 33 63.3 33 60Z" stroke-width="1.11811" fill="#56676E"/><path d="M63 39C63 42.3 68.4 45 75 45 81.6 45 87 42.3 87 39Z" stroke-width="1.11811" fill="#56676E"/><path d="M60 80C59.9967 78.8968 59.1032 78.0033 58 78L51 78 51 27.189C52.3822 26.3886 53.3895 25.0715 53.8 23.528L71.881 16.078 66.712 36 70.844 36 75 19.97 79.156 36 83.288 36 77.519 13.748C79.0179 13.0419 79.6606 11.2545 78.9545 9.75561 78.2879 8.34041 76.6457 7.675 75.182 8.227L52.182 17.704C51.8262 17.3594 51.4292 17.0602 51 16.813L51 11C51 9.34315 49.6569 8 48 8 46.3431 8 45 9.34315 45 11L45 16.812C43.1786 17.8655 42.0421 19.7962 42.005 21.9L17.857 31.85C16.3266 32.4775 15.5946 34.2269 16.2221 35.7573 16.5185 36.48 17.0854 37.0583 17.802 37.369L12.712 57 16.844 57 21 40.97 25.156 57 29.288 57 23.813 35.88 44.964 27.166 45 27.188 45 78 37.9 78C36.7968 78.0033 35.9033 78.8968 35.9 80L35.9 82 24 82 24 88 72 88 72 82 60 82ZM46 22C46 20.8954 46.8954 20 48 20 49.1046 20 50 20.8954 50 22 50 23.1046 49.1046 24 48 24 46.8954 24 46 23.1046 46 22Z" stroke-width="1.11811" fill="#56676E"/></svg>