<svg viewBox="0 0 96 96" xmlns="http://www.w3.org/2000/svg" xmlns:xlink="http://www.w3.org/1999/xlink" id="Icons_GanttChart_RTL_M" overflow="hidden"><style>
.MsftOfcThm_Background2_Fill_v2 {
 fill:#E7E6E6; 
}
</style>
<g id="Icons"><path d="M82 14 80 14 80 80 14.03 80 14.03 82 82 82 82 14Z" class="MsftOfcThm_Background2_Fill_v2" stroke-width="1.77594" fill="#E7E6E6"/><path d="M18 74.02 29 74.02 29 66.02 18 66.02ZM20 68.02 27 68.02 27 72.02 20 72.02Z" class="MsftOfcThm_Background2_Fill_v2" stroke-width="1.77594" fill="#E7E6E6"/><path d="M25 63.017 37 63.017 37 55.017 25 55.017ZM27 57.017 35 57.017 35 61.017 27 61.017Z" class="MsftOfcThm_Background2_Fill_v2" stroke-width="1.77594" fill="#E7E6E6"/><path d="M52 52.014 52 44.014 30 44.014 30 52.014ZM32 46.014 50 46.014 50 50.014 32 50.014Z" class="MsftOfcThm_Background2_Fill_v2" stroke-width="1.77594" fill="#E7E6E6"/><path d="M27 41.011 62 41.011 62 33.011 27 33.011ZM29 35.011 60 35.011 60 39.011 29 39.011Z" class="MsftOfcThm_Background2_Fill_v2" stroke-width="1.77594" fill="#E7E6E6"/><path d="M74 22.007 53 22.007 53 30.007 74 30.007ZM72 28.007 55 28.007 55 24.007 72 24.007Z" class="MsftOfcThm_Background2_Fill_v2" stroke-width="1.77594" fill="#E7E6E6"/></g></svg>