<svg viewBox="0 0 96 96" xmlns="http://www.w3.org/2000/svg" xmlns:xlink="http://www.w3.org/1999/xlink" id="Icons_DimMediumSun" overflow="hidden"><style>
.MsftOfcThm_Text2_lumMod_40_lumOff_60_Fill_v2 {
 fill:#A7E7C6; 
}
</style>
<path d="M26.592 47.973C26.5965 47.1265 26.6512 46.281 26.756 45.441L13.226 45.441 13.226 50.441 26.746 50.441C26.6471 49.622 26.5957 48.798 26.592 47.973Z" class="MsftOfcThm_Text2_lumMod_40_lumOff_60_Fill_v2" fill="#A7E7C6"/><path d="M48.006 26.559C48.8417 26.5629 49.6765 26.6159 50.506 26.718L50.506 13.161 45.506 13.161 45.506 26.718C46.3355 26.6159 47.1703 26.5628 48.006 26.559Z" class="MsftOfcThm_Text2_lumMod_40_lumOff_60_Fill_v2" fill="#A7E7C6"/><path d="M64.78 34.7 74.367 25.114 70.832 21.58 61.24 31.171C62.5527 32.2062 63.7407 33.3905 64.78 34.7Z" class="MsftOfcThm_Text2_lumMod_40_lumOff_60_Fill_v2" fill="#A7E7C6"/><path d="M34.772 31.171 25.181 21.58 21.646 25.115 31.232 34.7C32.2713 33.3905 33.4593 32.2062 34.772 31.171Z" class="MsftOfcThm_Text2_lumMod_40_lumOff_60_Fill_v2" fill="#A7E7C6"/><path d="M61.277 64.748 70.832 74.3 74.367 70.764 64.808 61.205C63.7723 62.5189 62.5873 63.7078 61.277 64.748Z" class="MsftOfcThm_Text2_lumMod_40_lumOff_60_Fill_v2" fill="#A7E7C6"/><path d="M69.256 45.441C69.4713 47.1005 69.4746 48.7807 69.266 50.441L82.786 50.441 82.786 45.441Z" class="MsftOfcThm_Text2_lumMod_40_lumOff_60_Fill_v2" fill="#A7E7C6"/><path d="M48.006 69.388C47.1703 69.3837 46.3355 69.3306 45.506 69.229L45.506 82.721 50.506 82.721 50.506 69.229C49.6765 69.3305 48.8417 69.3836 48.006 69.388Z" class="MsftOfcThm_Text2_lumMod_40_lumOff_60_Fill_v2" fill="#A7E7C6"/><path d="M31.2 61.208 21.642 70.766 25.181 74.3 34.734 64.747C33.4232 63.7078 32.2373 62.5202 31.2 61.208Z" class="MsftOfcThm_Text2_lumMod_40_lumOff_60_Fill_v2" fill="#A7E7C6"/><path d="M65.42 47.973C65.42 57.5905 57.6235 65.387 48.006 65.387 38.3885 65.387 30.592 57.5905 30.592 47.973 30.592 38.3555 38.3885 30.559 48.006 30.559 57.6235 30.559 65.42 38.3555 65.42 47.973Z" class="MsftOfcThm_Text2_lumMod_40_lumOff_60_Fill_v2" fill="#A7E7C6"/></svg>