<svg viewBox="0 0 96 96" xmlns="http://www.w3.org/2000/svg" xmlns:xlink="http://www.w3.org/1999/xlink" id="Icons_Sun_M" overflow="hidden"><style>
.MsftOfcThm_Text2_Fill_v2 {
 fill:#31B672; 
}
</style>
<g id="Icons"><path d="M48.007 70.02C60.1611 70.0239 70.0171 60.1741 70.021 48.02 70.0249 35.8659 60.1751 26.0099 48.021 26.006 35.8669 26.0021 26.0109 35.8519 26.007 48.006 26.007 48.0083 26.007 48.0107 26.007 48.013 26.0031 60.1633 35.8497 70.0161 48 70.02 48.0023 70.02 48.0047 70.02 48.007 70.02ZM48.007 28.007C59.0566 28.0031 68.0171 36.9574 68.021 48.007 68.0249 59.0566 59.0706 68.0171 48.021 68.021 36.9714 68.0249 28.0109 59.0706 28.007 48.021 28.007 48.0183 28.007 48.0157 28.007 48.013 28.018 36.9709 36.9649 28.0213 48.007 28.007Z" class="MsftOfcThm_Text2_Fill_v2" fill="#31B672"/><rect x="47.005" y="4" width="2" height="18" class="MsftOfcThm_Text2_Fill_v2" fill="#31B672"/><rect x="47.005" y="74" width="2" height="18" class="MsftOfcThm_Text2_Fill_v2" fill="#31B672"/><rect x="74.005" y="47" width="18" height="2" class="MsftOfcThm_Text2_Fill_v2" fill="#31B672"/><rect x="4.005" y="47" width="18" height="2" class="MsftOfcThm_Text2_Fill_v2" fill="#31B672"/><rect x="71.754" y="63.749" width="2" height="18" class="MsftOfcThm_Text2_Fill_v2" fill="#31B672" transform="matrix(0.707107 -0.707107 0.707107 0.707107 -30.132 72.752)"/><rect x="22.256" y="14.252" width="2" height="18" class="MsftOfcThm_Text2_Fill_v2" fill="#31B672" transform="matrix(0.707094 -0.707119 0.707119 0.707094 -9.63 23.255)"/><rect x="14.256" y="71.749" width="18" height="2" class="MsftOfcThm_Text2_Fill_v2" fill="#31B672" transform="matrix(0.707119 -0.707094 0.707094 0.707119 -44.629 37.751)"/><rect x="63.754" y="22.252" width="18" height="2" class="MsftOfcThm_Text2_Fill_v2" fill="#31B672" transform="matrix(0.707107 -0.707107 0.707107 0.707107 4.868 58.255)"/></g></svg>