<svg viewBox="0 0 96 96" xmlns="http://www.w3.org/2000/svg" xmlns:xlink="http://www.w3.org/1999/xlink" id="Icons_TakeOff_M" overflow="hidden"><style>
.MsftOfcThm_Accent5_Fill_v2 {
 fill:#AEABAB; 
}
</style>
<g id="Icons"><rect x="6" y="73" width="84" height="2" class="MsftOfcThm_Accent5_Fill_v2" fill="#AEABAB"/><path d="M13.522 44.761C14.0284 45.6235 14.9248 46.1837 15.922 46.261L23.589 46.852C25.3523 46.9853 27.1163 47.052 28.881 47.052 33.632 47.052 38.3703 46.56 43.02 45.584L81.781 37.45C81.781 37.45 89.267 35.879 88.481 32.136 88.065 30.158 81.597 28.236 78.016 28.236 77.5891 28.2301 77.1626 28.267 76.743 28.346L53.54 33.222 25.973 20.846C25.5786 20.6692 25.1512 20.5779 24.719 20.578 24.508 20.5782 24.2976 20.6 24.091 20.643L20.623 21.371C20.2099 21.457 19.9448 21.8616 20.0308 22.2747 20.0661 22.4441 20.1578 22.5965 20.291 22.707L37.07 36.678 20.6 40.134 11.93 32.708C11.3884 32.2455 10.6628 32.0608 9.966 32.208L7.6 32.7C7.18777 32.79 6.92659 33.1972 7.01662 33.6094 7.03322 33.6854 7.06134 33.7585 7.1 33.826ZM38.35 35.141 23.55 22.817C23.541 22.81 23.543 22.802 23.55 22.8L24.499 22.6C24.7179 22.5534 24.946 22.5779 25.15 22.67L52.721 35.046 53.314 35.312 53.951 35.179 77.158 30.309C77.4423 30.2573 77.7311 30.2345 78.02 30.241 81.181 30.241 85.643 31.786 86.536 32.696 86.46 33.668 83.755 34.996 81.373 35.496L42.612 43.632C38.0973 44.5783 33.4969 45.0558 28.884 45.057 27.177 45.057 25.448 44.99 23.746 44.857L16.078 44.266C15.7324 44.2388 15.4218 44.0447 15.246 43.746L9.7 34.305 10.381 34.162C10.4008 34.158 10.4209 34.156 10.441 34.156 10.5115 34.1557 10.5797 34.1809 10.633 34.227L19.303 41.653 20.051 42.294 21.015 42.094 37.485 38.638 38.974 38.325 40.815 39.837C41.2419 40.1874 41.8721 40.1254 42.2225 39.6985 42.5729 39.2716 42.5109 38.6414 42.084 38.291Z" class="MsftOfcThm_Accent5_Fill_v2" fill="#AEABAB"/></g></svg>