<svg viewBox="0 0 96 96" xmlns="http://www.w3.org/2000/svg" xmlns:xlink="http://www.w3.org/1999/xlink" id="Icons_Landing_M" overflow="hidden"><style>
.MsftOfcThm_Accent5_Fill_v2 {
 fill:#AEABAB; 
}
</style>
<g id="Icons"><rect x="6.005" y="73" width="84" height="2" class="MsftOfcThm_Accent5_Fill_v2" fill="#AEABAB"/><path d="M75.545 41.636 52.214 37.4 31.345 15.544C30.8986 15.0757 30.3154 14.7606 29.679 14.644L26.193 14.011C25.7788 13.9335 25.3802 14.2064 25.3027 14.6206 25.2706 14.7921 25.2982 14.9694 25.381 15.123L35.656 34.391 19.1 31.384 13.867 21.237C13.5409 20.6037 12.9389 20.158 12.238 20.031L9.863 19.6C9.81718 19.5913 9.77064 19.5869 9.724 19.587 9.30151 19.5885 8.96021 19.9322 8.9617 20.3547 8.96181 20.3866 8.96392 20.4184 8.968 20.45L10.8 33C10.9442 33.9907 11.5643 34.848 12.46 35.295L19.339 38.733C25.174 41.65 31.3943 43.7221 37.813 44.887L42.779 45.787C42.1198 46.6733 42.304 47.9262 43.1903 48.5854 44.0766 49.2445 45.3295 49.0604 45.9887 48.174 46.361 47.6734 46.4784 47.0277 46.306 46.428L70.913 50.9C70.7459 51.1343 70.6319 51.4022 70.579 51.685 70.3745 52.7705 71.0886 53.8162 72.1741 54.0207 73.2596 54.2253 74.3053 53.5111 74.5098 52.4257 74.5647 52.1344 74.5542 51.8347 74.479 51.548L76.779 51.966C77.7469 52.1249 78.7261 52.2058 79.707 52.208 81.902 52.208 84.593 51.749 84.989 49.57 85.4 47.313 78.555 42.183 75.545 41.636ZM37.421 33.45 28.357 16.456C28.357 16.446 28.357 16.44 28.368 16.442L29.322 16.615C29.5425 16.6546 29.7447 16.7635 29.899 16.926L50.767 38.78 51.217 39.25 51.856 39.366 75.188 43.6C77.488 44.017 82.383 47.85 82.974 49.343 82.705 49.864 81.437 50.205 79.706 50.205 78.8452 50.2024 77.9859 50.1321 77.136 49.995L38.168 42.922C31.936 41.79 25.8966 39.7779 20.231 36.946L13.352 33.508C13.042 33.3533 12.8272 33.0568 12.777 32.714L11.2 21.875 11.88 22C11.97 22.0169 12.0473 22.074 12.09 22.155L17.321 32.3 17.773 33.175 18.741 33.351 35.3 36.359 36.806 36.633 38.041 38.849C38.3227 39.324 38.9362 39.4807 39.4112 39.199 39.8685 38.9277 40.0336 38.346 39.787 37.875Z" class="MsftOfcThm_Accent5_Fill_v2" fill="#AEABAB"/></g></svg>