<svg viewBox="0 0 96 96" xmlns="http://www.w3.org/2000/svg" xmlns:xlink="http://www.w3.org/1999/xlink" id="Icons_ScientificThought_M" overflow="hidden"><g id="Icons"><path d="M57.9873 22.6078C57.1747 21.2012 55.3313 20.5266 52.8491 20.5266 51.0106 20.5647 49.1845 20.8384 47.4156 21.3411 46.03 16.3049 43.7 13 41.08 13 38.46 13 36.15 16.2749 34.7634 21.2732 33.0728 20.8104 31.3312 20.5596 29.5787 20.5266 27.0966 20.5266 25.2531 21.2012 24.4416 22.6078 23.116 24.9036 24.8527 28.6052 28.5816 32.3545 25.0416 36.0073 23.4184 39.5874 24.711 41.823 25.5223 43.2247 27.3659 43.9052 29.8478 43.9052 31.5136 43.8752 33.1698 43.6451 34.7808 43.22 36.1708 48.1833 38.4608 51.4307 41.0783 51.4307 43.6958 51.4307 46.0064 48.156 47.3941 43.1577 49.0843 43.6208 50.8256 43.8719 52.5778 43.9052 55.0599 43.9052 56.9034 43.2297 57.7159 41.823 59.0083 39.5845 57.3844 36.0073 53.8459 32.3545 57.5752 28.6052 59.3118 24.9036 57.9873 22.6078ZM26.1057 23.572C26.5167 22.8595 27.783 22.4502 29.579 22.4502 31.1771 22.4824 32.765 22.7136 34.3059 23.1384 33.9594 24.7741 33.7146 26.4298 33.5731 28.0958 32.3116 29 31.1039 29.977 29.9561 31.0217 26.6887 27.7382 25.3778 24.8357 26.1057 23.572ZM33.4293 34.043C32.6826 33.4697 31.9907 32.9003 31.3534 32.335 31.9851 31.7625 32.677 31.1821 33.4234 30.6018 33.4061 31.1345 33.3944 31.671 33.3944 32.2153 33.3957 32.8324 33.4073 33.4417 33.4293 34.043ZM29.8511 41.983C28.0552 41.983 26.7888 41.5738 26.3778 40.8623 25.6663 39.6346 26.8889 36.8459 29.9736 33.669 31.1247 34.6941 32.3337 35.6523 33.5945 36.539 33.7396 38.1586 33.9824 39.768 34.3214 41.3584 32.8617 41.7449 31.3608 41.9548 29.8511 41.9834ZM46.4846 26.503C45.9761 26.1814 45.4549 25.8664 44.9209 25.5581 44.4274 25.2732 43.9336 25.0042 43.4419 24.7425 44.3167 24.3733 45.1805 24.0457 46.0261 23.7608 46.2062 24.6232 46.3591 25.5375 46.4846 26.5037ZM41.0785 14.9219C42.5236 14.9219 44.3701 17.4719 45.5779 21.8904 44.0908 22.3858 42.6335 22.9668 41.2135 23.6304 39.715 22.9294 38.1751 22.3207 36.6023 21.8077 37.81 17.4413 39.6334 14.9219 41.0785 14.9219ZM36.1485 23.674C37.0737 23.9812 38.0223 24.338 38.9853 24.7432 38.4925 25.0049 37.9999 25.2739 37.5061 25.5559 36.8692 25.9253 36.2496 26.3025 35.6471 26.6874 35.78 25.6182 35.9541 24.614 36.1484 23.674ZM35.6725 37.9272C36.1808 38.2491 36.7023 38.564 37.237 38.8719 37.8083 39.2024 38.3808 39.5125 38.9513 39.8119 38.0047 40.2019 37.0727 40.541 36.1642 40.8325 35.9705 39.9257 35.8054 38.9546 35.6724 37.9272ZM41.0785 49.509C39.6509 49.509 37.8315 47.019 36.6227 42.7 38.1881 42.203 39.7213 41.6098 41.2135 40.9238 42.6266 41.5742 44.0765 42.1416 45.5557 42.623 44.3467 46.99 42.5061 49.509 41.0785 49.509ZM46.0095 40.7529C45.1814 40.4817 44.334 40.1658 43.4758 39.8119 44.0465 39.5125 44.6178 39.2019 45.1902 38.8719 45.6218 38.6219 46.0435 38.3676 46.4602 38.1099 46.3339 39.0417 46.1839 39.9227 46.01 40.7529ZM46.7073 35.6729C45.926 36.192 45.0979 36.7072 44.2231 37.2116 43.2241 37.7899 42.2146 38.3207 41.2107 38.8068 40.21 38.3228 39.2 37.79 38.198 37.2117 37.2166 36.6479 36.2961 36.0648 35.4312 35.4817 35.3574 34.4398 35.3165 33.353 35.3165 32.2197 35.3165 31.1562 35.3489 30.1327 35.4137 29.149 36.3594 28.4996 37.3748 27.856 38.4637 27.2271 39.3762 26.7051 40.2955 26.2183 41.211 25.7691 42.1265 26.2133 43.0447 26.7004 43.9573 27.2271 44.9417 27.7901 45.8633 28.3668 46.7221 28.9571 46.7951 29.9992 46.8368 31.086 46.8368 32.2195 46.8365 33.4229 46.79 34.5737 46.7073 35.673ZM56.0522 40.8629C55.6412 41.5744 54.3749 41.9836 52.578 41.9836 50.9802 41.9515 49.3927 41.7203 47.8521 41.2955 48.1707 39.7924 48.4023 38.2722 48.5459 36.7424 49.911 35.799 51.217 34.7728 52.4565 33.6696 55.5381 36.8463 56.7607 39.635 56.0522 40.8627ZM48.7277 30.3909C49.58 31.0403 50.3633 31.6925 51.0726 32.335 50.3588 32.9719 49.5746 33.613 48.72 34.2585 48.7484 33.5859 48.7626 32.9055 48.7627 32.2173 48.7614 31.6011 48.7498 30.9923 48.7277 30.3909ZM52.4702 31.0178C51.2348 29.8957 49.9307 28.8517 48.5654 27.8918 48.4239 26.3164 48.1901 24.7507 47.8654 23.2026 49.4865 22.7375 51.1608 22.4836 52.8469 22.4474 54.6469 22.4474 55.9101 22.8525 56.3212 23.5681 57.0494 24.8279 55.7413 27.7343 52.47 31.0178Z"/><path d="M41.0756 29.3362C39.4838 29.3456 38.201 30.6436 38.2104 32.2353 38.2197 33.8139 39.4971 35.0912 41.0756 35.1005L41.08 35.1005C42.6718 35.0899 43.9535 33.7909 43.9429 32.1992 43.9324 30.6205 42.6539 29.3441 41.0752 29.3362Z"/><path d="M74.1086 37.31 74.1086 36.81C74.7158 20.2112 61.7524 6.26288 45.1537 5.655 44.7809 5.6415 44.4076 5.635 44.0376 5.635 27.8619 5.64724 14.5933 18.452 14.0057 34.617 13.979 35.3479 13.979 36.0791 14.0057 36.8107 13.9667 46.2742 18.3271 55.2187 25.8063 61.0171L25.8063 86.3241 57.4078 86.3241 57.4078 74.3208 62.31 74.3208C68.8271 74.3197 74.1098 69.0364 74.11 62.5192 74.11 62.4519 74.1094 62.3847 74.1082 62.3174L74.1082 56.3158 78.5082 56.3158C81.1082 56.0158 83.4082 53.0148 81.0082 49.3137ZM79.8365 53.2124C79.5538 53.7936 79.0094 54.2039 78.3727 54.3154L72.1086 54.3154 72.1086 56.3154 72.1086 62.3495 72.1101 62.5185C72.1035 67.9294 67.7186 72.3141 62.3077 72.3204L55.4077 72.3204 55.4077 84.3241 27.8063 84.3241 27.8063 60.037 27.0316 59.4364C20.0646 54.0011 15.9959 45.6548 16.0057 36.8185L16.0057 36.7778 16.0042 36.7372C15.9794 36.0579 15.9794 35.3689 16.0042 34.6895 16.4984 19.5757 28.9158 7.5917 44.0376 7.6346 44.3834 7.6346 44.7323 7.641 45.0807 7.6537 60.5678 8.23858 72.6592 21.249 72.11 36.7374L72.1086 36.7738 72.1086 37.8444 72.3748 38.3073 79.2748 50.3105 79.3016 50.3569 79.3307 50.402C79.9804 51.1855 80.1723 52.252 79.8365 53.2128Z"/></g></svg>