<svg viewBox="0 0 96 96" xmlns="http://www.w3.org/2000/svg" xmlns:xlink="http://www.w3.org/1999/xlink" id="Icons_PandemicExponentialCurveBarGraph_LTR" overflow="hidden"><path d="M14.005 81.999 82.005 81.999 82.005 75.999 20.005 75.999 20.005 13.999 14.005 13.999 14.005 81.999Z" stroke-width="3.45946" fill="#22354B"/><rect x="26.0048" y="61.9988" width="10" height="7.99878" stroke-width="3.45946" fill="#22354B"/><rect x="40.0048" y="55.9988" width="10" height="13.9988" stroke-width="3.45946" fill="#22354B"/><rect x="54.0048" y="44.9988" width="10" height="24.9988" stroke-width="3.45946" fill="#22354B"/><rect x="68.0048" y="22.9988" width="10" height="46.9988" stroke-width="3.45946" fill="#22354B"/><path d="M52.2984 29.5974C53.2077 29.603 53.9493 28.8704 53.9548 27.9611 53.9604 27.0519 53.2278 26.3102 52.3185 26.3047 51.9119 26.3022 51.5188 26.4503 51.2148 26.7204L47.5456 27.9436C47.2354 27.2932 46.8494 26.6818 46.3956 26.1221L49.2707 22.7471C49.3049 22.7485 49.337 22.7573 49.3716 22.7573 50.7171 22.7894 51.8339 21.7247 51.866 20.3792 51.8981 19.0337 50.8334 17.9169 49.4879 17.8848 48.1424 17.8527 47.0256 18.9174 46.9935 20.2629 46.9896 20.4264 47.0022 20.5898 47.031 20.7507L44.1387 24.1457C43.1071 23.5023 41.9569 23.0727 40.7561 22.8824L40.6881 20.7729C41.2156 19.9112 40.9446 18.785 40.0829 18.2575 39.2212 17.73 38.095 18.0009 37.5675 18.8627 37.1671 19.5167 37.2171 20.351 37.6927 20.9525L37.7555 22.8992C36.5086 23.1109 35.3195 23.5806 34.2645 24.2782L32.3269 22.1645C32.3451 22.0581 32.3559 21.9506 32.3593 21.8427 32.3594 20.5294 31.2948 19.4646 29.9814 19.4645 28.668 19.4645 27.6033 20.5291 27.6032 21.8425 27.6031 23.1558 28.6678 24.2206 29.9812 24.2206 29.9812 24.2206 29.9812 24.2206 29.9813 24.2206 30.0315 24.2206 30.0784 24.2089 30.1278 24.2059L32.0723 26.3271C31.0958 27.5908 30.4695 29.0896 30.2566 30.6724L28.4281 30.623C27.6215 29.856 26.3459 29.888 25.5788 30.6946 24.8118 31.5012 24.8439 32.7768 25.6504 33.5438 26.3959 34.2527 27.5556 34.2864 28.3409 33.622L30.3392 33.6758C30.5409 34.6919 30.9152 35.666 31.4458 36.5557L27.8239 39.2429C26.6208 39.1194 25.5455 39.9946 25.422 41.1976 25.2986 42.4007 26.1738 43.476 27.3768 43.5994 28.5798 43.7229 29.6552 42.8477 29.7786 41.6447 29.7829 41.6036 29.7859 41.5623 29.7878 41.521L33.3781 38.8573C34.2527 39.6036 35.2604 40.1779 36.3481 40.55L35.6475 43.0728C34.3273 43.6016 33.6859 45.1006 34.2148 46.4208 34.7436 47.7409 36.2426 48.3824 37.5628 47.8535 38.8829 47.3246 39.5244 45.8257 38.9955 44.5055 38.891 44.2447 38.7446 44.0028 38.562 43.7893L39.323 41.0493C40.5295 41.0489 41.7239 40.809 42.837 40.3435L45.0483 43.8187C44.8555 44.9121 45.5855 45.9548 46.6789 46.1476 47.7723 46.3404 48.8149 45.6104 49.0078 44.517 49.1852 43.5108 48.5797 42.5315 47.6002 42.2407L45.3724 38.7397C46.231 37.9789 46.9391 37.0636 47.46 36.0415L50.1872 36.8879C50.7338 37.8517 51.9581 38.1899 52.9219 37.6434 53.8857 37.0968 54.2239 35.8725 53.6773 34.9087 53.1764 34.0254 52.0945 33.6557 51.1578 34.0477L48.3579 33.1787C48.4791 32.3995 48.4892 31.607 48.3879 30.825L52.1234 29.5797C52.1814 29.5888 52.2398 29.5947 52.2984 29.5974ZM38.5789 36.294C37.9728 36.294 37.4813 35.8026 37.4813 35.1965 37.4812 34.5903 37.9726 34.0988 38.5788 34.0988 39.185 34.0988 39.6764 34.5901 39.6765 35.1963 39.6765 35.8025 39.1851 36.2939 38.5789 36.294ZM40.9569 31.5379C40.2497 31.5379 39.6764 30.9646 39.6764 30.2574 39.6763 29.5502 40.2496 28.9769 40.9568 28.9768 41.664 28.9768 42.2374 29.5501 42.2374 30.2573 42.2374 30.2573 42.2374 30.2573 42.2374 30.2574 42.2374 30.9645 41.6642 31.5378 40.957 31.5378ZM43.1521 36.294C42.4449 36.294 41.8716 35.7207 41.8715 35.0135 41.8715 34.3063 42.4448 33.733 43.152 33.733 43.8592 33.7329 44.4325 34.3062 44.4326 35.0134 44.4326 35.0134 44.4326 35.0135 44.4326 35.0135 44.4326 35.7207 43.8593 36.2939 43.1521 36.294Z" stroke-width="3.45946" fill="#22354B"/></svg>