<svg viewBox="0 0 96 96" xmlns="http://www.w3.org/2000/svg" xmlns:xlink="http://www.w3.org/1999/xlink" id="Icons_ContinuousImprovement1_RTL_M" overflow="hidden"><g id="Icons"><path d="M39.537 65.294C39.2653 64.813 38.655 64.6433 38.174 64.915 37.693 65.1867 37.5233 65.797 37.795 66.278L41.783 73.329C41.789 73.34 41.783 73.346 41.771 73.344 27.1802 70.2191 17.8853 55.8578 21.0102 41.267 21.3468 39.6954 21.8229 38.157 22.433 36.67 22.6434 36.1591 22.3999 35.5744 21.889 35.364 21.3781 35.1536 20.7934 35.3971 20.583 35.908 14.498 50.7382 21.5874 67.6934 36.4176 73.7784 37.863 74.3715 39.354 74.8469 40.876 75.2 40.89 75.2 40.891 75.211 40.876 75.217L34.3 78.938C33.819 79.21 33.6495 79.8205 33.9215 80.3015 34.1935 80.7825 34.804 80.952 35.285 80.68L44.231 75.62C44.7117 75.3481 44.881 74.738 44.6092 74.2573 44.6091 74.2572 44.6091 74.2571 44.609 74.257Z" stroke="#22354B" stroke-width="2.59459" fill="#22354B"/><path d="M82.7 40.565 73.836 35.365C73.3599 35.0858 72.7476 35.2452 72.468 35.721L67.259 44.6C66.9798 45.0761 67.1392 45.6884 67.615 45.968 67.7679 46.0586 67.9423 46.1062 68.12 46.106 68.475 46.1062 68.8034 45.9182 68.983 45.612L73.078 38.637C73.084 38.626 73.093 38.627 73.097 38.637 76.9663 50.7507 71.8938 63.9257 60.9 70.317 57.854 72.0834 54.49 73.2329 51 73.7 50.4527 73.7739 50.0689 74.2775 50.1428 74.8248 50.2097 75.3198 50.6315 75.6896 51.131 75.691 51.1761 75.6908 51.2212 75.6882 51.266 75.683 67.151 73.5356 78.2875 58.9174 76.1401 43.0323 75.931 41.4859 75.5976 39.9588 75.143 38.466 75.143 38.453 75.143 38.448 75.157 38.455L81.691 42.29C82.1563 42.5875 82.7747 42.4516 83.0722 41.9863 83.3698 41.521 83.2338 40.9026 82.7685 40.6051 82.7462 40.5908 82.7233 40.5774 82.7 40.565Z" stroke="#22354B" stroke-width="2.59459" fill="#22354B"/><path d="M25.147 30.819 35.447 30.871 35.447 30.871C35.9993 30.8724 36.4481 30.4258 36.4495 29.8735 36.4509 29.3212 36.0043 28.8724 35.452 28.871L27.412 28.83C27.399 28.83 27.396 28.823 27.404 28.813 37.4196 17.7595 54.4994 16.9182 65.5528 26.9337 66.733 28.0031 67.8163 29.1747 68.79 30.435 69.125 30.8741 69.7525 30.9586 70.1916 30.6236 70.6307 30.2887 70.7151 29.6612 70.3802 29.222 70.3781 29.2193 70.3761 29.2167 70.374 29.214 60.5737 16.5301 42.3466 14.1924 29.6627 23.9927 28.4185 24.9541 27.2544 26.015 26.182 27.165 26.173 27.175 26.165 27.172 26.165 27.159L26.203 19.547C26.203 18.9947 25.7553 18.547 25.203 18.547L25.203 18.547C24.6527 18.547 24.2058 18.9917 24.203 19.542L24.152 29.819C24.152 30.3693 24.5967 30.8162 25.147 30.819Z" stroke="#22354B" stroke-width="2.59459" fill="#22354B"/><path d="M52.335 52.601 55.373 50.865 55.373 47.827 52.335 49.563 52.335 52.601Z" stroke="#22354B" stroke-width="2.59459" fill="#22354B"/><path d="M63.922 38.229 48.589 28.921 33.255 38.229 33.255 55.655 48.589 64.961 63.922 55.655ZM61 38.792 56.371 41.6 43.893 34.112 48.593 31.261ZM48.594 46.322 36.188 38.792 41.966 35.285 54.444 42.771ZM35.255 40.568 47.589 48.055 47.589 62.015 35.255 54.529ZM49.589 62.015 49.589 48.055 61.922 40.568 61.922 54.529Z" stroke="#22354B" stroke-width="2.59459" fill="#22354B"/></g></svg>