<svg viewBox="0 0 96 96" xmlns="http://www.w3.org/2000/svg" xmlns:xlink="http://www.w3.org/1999/xlink" id="Icons_OpenEnvelope_M" overflow="hidden"><style>
.MsftOfcThm_Text2_Fill_v2 {
 fill:#31B672; 
}
</style>
<g id="Icons"><path d="M73 25.776 73 16 61.493 16 48 4.7 34.507 16 23 16 23 25.776 10 36.529 10 90 86 90 86 36.529ZM73 28.376 83.516 37.076 73 47.586ZM48 7.305 58.378 16 37.622 16ZM25 18 71 18 71 49.586 58.95 61.636C52.6285 56.2908 43.3715 56.2908 37.05 61.636L25 49.586ZM23 28.372 23 47.586 12.484 37.07ZM12.017 39.431 35.586 63 12.017 86.569C12.0131 86.5729 12.0067 86.5728 12.0029 86.5689 12.0011 86.567 12 86.5646 12 86.562L12 39.438C12.0001 39.4325 12.0046 39.4281 12.0101 39.4281 12.0127 39.4282 12.0152 39.4292 12.017 39.431ZM13.431 87.983 37.071 64.343C39.85 61.4855 43.6175 59.8002 47.6 59.633 51.7191 59.5106 55.7051 61.0991 58.611 64.021L82.569 87.983C82.5729 87.9869 82.5728 87.9933 82.5689 87.9971 82.567 87.9989 82.5646 88 82.562 88L13.438 88C13.4325 87.9999 13.4281 87.9954 13.4281 87.9899 13.4282 87.9873 13.4292 87.9848 13.431 87.983ZM83.983 86.569 60.414 63 83.983 39.431C83.9869 39.4271 83.9933 39.4272 83.9971 39.4311 83.9989 39.433 84 39.4354 84 39.438L84 86.562C83.9999 86.5675 83.9954 86.5719 83.9899 86.5719 83.9873 86.5718 83.9848 86.5708 83.983 86.569Z" class="MsftOfcThm_Text2_Fill_v2" fill="#31B672"/><rect x="33" y="27" width="30" height="2" class="MsftOfcThm_Text2_Fill_v2" fill="#31B672"/><rect x="33" y="33" width="30" height="2" class="MsftOfcThm_Text2_Fill_v2" fill="#31B672"/><rect x="33" y="39" width="30" height="2" class="MsftOfcThm_Text2_Fill_v2" fill="#31B672"/><rect x="33" y="45" width="30" height="2" class="MsftOfcThm_Text2_Fill_v2" fill="#31B672"/></g></svg>