<svg viewBox="0 0 96 96" xmlns="http://www.w3.org/2000/svg" xmlns:xlink="http://www.w3.org/1999/xlink" id="Icons_Ringer_M" overflow="hidden"><style>
.MsftOfcThm_Text2_Fill_v2 {
 fill:#31B672; 
}
</style>
<g id="Icons"><path d="M81.69 73.422C76.06 70.6 66.8 63.637 66 37 65.9957 29.3771 61.1878 22.5844 54 20.046L54 19C54 15.6863 51.3137 13 48 13 44.6863 13 42 15.6863 42 19L42 20.046C34.8124 22.5847 30.0046 29.3772 30 37 29.2 63.637 19.94 70.6 14.31 73.422 12.02 74.562 13.67 77 15 77L40 77C40 81.4183 43.5817 85 48 85 52.4183 85 56 81.4183 56 77L81 77C82.33 77 83.98 74.562 81.69 73.422ZM44 19C44 16.7909 45.7909 15 48 15 50.2091 15 52 16.7909 52 19L52 19.461C49.3688 18.8463 46.6312 18.8463 44 19.461ZM48 83C44.6877 82.9967 42.0033 80.3123 42 77L54 77C53.9967 80.3123 51.3123 82.9967 48 83ZM15.654 75C15.649 75 15.645 74.996 15.645 74.991 15.645 74.986 15.649 74.982 15.654 74.982 26.048 69.505 31.4 57.092 32 37.06L32 37C31.9329 30.1035 36.3359 23.9562 42.887 21.8 51.3024 19.0065 60.389 23.564 63.1825 31.9794 63.7201 33.5988 63.996 35.2937 64 37L64 37.06C64.6 57.09 69.95 69.502 80.349 74.982 80.354 74.982 80.358 74.986 80.358 74.991 80.358 74.996 80.354 75 80.349 75Z" class="MsftOfcThm_Text2_Fill_v2" fill="#31B672"/></g></svg>