<svg viewBox="0 0 231 30" preserveAspectRatio="xMinYMid" xmlns="http://www.w3.org/2000/svg" xmlns:xlink="http://www.w3.org/1999/xlink" overflow="hidden"><path d="M99.61 19.52 114.85 19.52 106.8 6.52 92 30 85.27 30 103.27 1.83C104.626-0.112782 107.3-0.588328 109.243 0.767838 109.64 1.04489 109.987 1.38711 110.27 1.78L128.32 30 121.59 30 118.42 24.75 103 24.75 99.64 19.52M169.57 24.75 169.57 0.28 163.85 0.28 163.85 27.16C163.848 27.9149 164.155 28.6376 164.7 29.16 165.247 29.7196 165.997 30.0336 166.78 30.03L192.78 30.03 196.17 24.78 169.54 24.78M75 20.38C80.5505 20.38 85.05 15.8805 85.05 10.33 85.05 4.77954 80.5505 0.279999 75 0.279999L50 0.28 50 30 55.71 30 55.71 5.54 74.65 5.54C77.3065 5.54 79.46 7.69351 79.46 10.35 79.46 13.0065 77.3065 15.16 74.65 15.16L58.54 15.16 75.6 30 83.89 30 72.43 20.38 75 20.38M14.88 30 32.15 30C40.3542 29.7871 46.8324 22.9637 46.6195 14.7595 46.4144 6.85475 40.0548 0.495111 32.15 0.29L14.88 0.29C6.67581 0.0771195-0.147574 6.55536-0.360454 14.7595-0.573335 22.9637 5.9049 29.7871 14.1091 30 14.366 30.0067 14.6231 30.0067 14.88 30M31.76 24.77 15.26 24.77C9.94978 24.5987 5.78385 20.1551 5.95512 14.8449 6.11864 9.77521 10.1903 5.70352 15.26 5.54L31.76 5.54C37.0702 5.36872 41.5138 9.53466 41.6851 14.8449 41.8564 20.1551 37.6905 24.5987 32.3802 24.77 32.1735 24.7767 31.9667 24.7767 31.76 24.77M140.25 30 157.88 30 161.22 24.77 140.64 24.77C135.33 24.9413 130.886 20.7753 130.715 15.4651 130.544 10.1549 134.71 5.71128 140.02 5.54 140.226 5.53333 140.433 5.53333 140.64 5.54L157.39 5.54 160.77 0.29 140.25 0.29C132.046 0.0771195 125.222 6.55536 125.01 14.7595 124.797 22.9637 131.275 29.7871 139.479 30 139.736 30.0067 139.993 30.0067 140.25 30M210.12 24.77C205.815 24.7716 202.033 21.9125 200.86 17.77L225.28 17.77 228.64 12.53 200.86 12.53C202.03 8.38544 205.814 5.52497 210.12 5.53L226.88 5.53 230.23 0.28 209.73 0.28C201.526 0.492881 195.048 7.31626 195.26 15.5205 195.466 23.4252 201.825 29.7849 209.73 29.99L227.36 29.99 230.71 24.76 210.11 24.76" fill="#C74634" transform="translate(-0.02 0)"/></svg>