<svg width="1200" height="800" viewBox="-93 -39.695 806 238.17" xmlns="http://www.w3.org/2000/svg" xmlns:xlink="http://www.w3.org/1999/xlink" overflow="hidden"><path d="M76.275 136.27 68.936 136.27 68.936 98.012 76.275 98.012ZM69.026 98.005 68.936 74.312 76.275 74.312 76.245 98.035ZM68.936 136.27 61.596 136.27 61.596 112.45 14.438 112.45 14.438 136.27 0 136.27 0 74.312 14.438 74.312 14.438 98.012 68.937 98.012 68.937 136.27ZM68.936 74.312 61.596 74.312 61.596 98.035 69.026 98.005ZM152.188 104.869C157.24 107.997 159.768 112.769 159.768 119.185 159.768 123.837 158.284 127.767 155.316 130.975 152.108 134.505 147.776 136.269 142.322 136.269L121.09 136.269 121.09 121.833 142.323 121.833C144.409 121.833 145.451 120.268 145.451 117.14 145.451 114.013 144.409 112.449 142.323 112.449L121.09 112.449 121.09 98.132 141.241 98.132C143.326 98.132 144.369 96.568 144.369 93.44 144.369 90.313 143.326 88.748 141.241 88.748L121.09 88.748 121.09 74.312 141.241 74.312C146.695 74.312 151.025 76.076 154.234 79.605 157.121 82.813 158.565 86.744 158.565 91.395 158.565 97.17 156.439 101.661 152.189 104.869ZM121.088 136.27 82.29 136.27 82.29 98.133 121.089 98.133 121.089 112.45 96.727 112.45 96.727 121.833 121.089 121.833 121.089 136.27ZM121.088 88.749 96.728 88.749 96.758 98.576 82.32 98.215 82.29 74.312 121.089 74.312 121.089 88.749Z" fill="#BA160C"/><path d="M166.416 58.206 166.416 51.59 177.194 51.59 177.194 47.62C177.194 46.187 176.717 45.47 175.761 45.47L166.415 45.47 166.415 38.855 175.761 38.855C178.151 38.855 180.089 39.718 181.577 41.447 183.065 43.175 183.81 45.232 183.81 47.621L183.81 67.248 177.194 67.248 177.194 58.207 166.416 58.207ZM254.381 67.248 232.437 67.248C229.865 67.248 227.678 66.394 225.877 64.683 224.076 62.974 223.177 60.833 223.177 58.261L223.177 47.841C223.177 45.268 224.076 43.127 225.877 41.417 227.678 39.708 229.865 38.854 232.437 38.854L254.381 38.854 254.381 45.469 232.437 45.469C230.674 45.469 229.792 46.26 229.792 47.841L229.792 58.261C229.792 59.841 230.674 60.631 232.437 60.631L254.381 60.631ZM324.012 67.248 317.34 67.248 317.34 56.332 300.36 56.332 300.36 67.248 293.744 67.248 293.744 38.855 300.36 38.855 300.36 49.716 317.34 49.716 317.34 38.856 324.012 38.856ZM393.645 45.47 369.994 45.47 369.994 49.716 392.1 49.716 392.1 56.332 369.992 56.332 369.992 60.632 393.588 60.632 393.588 67.247 363.376 67.247 363.376 38.854 393.643 38.854 393.643 45.47ZM166.416 38.855 166.416 45.47 157.016 45.47C156.097 45.47 155.638 46.187 155.638 47.62L155.638 51.59 166.416 51.59 166.416 58.206 155.638 58.206 155.638 67.247 149.022 67.247 149.022 47.62C149.022 45.231 149.767 43.173 151.256 41.446 152.743 39.718 154.664 38.854 157.016 38.854L166.416 38.854ZM91.906 57.985 91.906 51.37 101.609 51.37C102.564 51.37 103.043 50.396 103.043 48.449 103.043 46.464 102.564 45.471 101.609 45.471L91.906 45.471 91.906 38.856 101.609 38.856C104.072 38.856 106.056 39.866 107.563 41.888 108.96 43.726 109.659 45.911 109.659 48.448 109.659 50.984 108.959 53.152 107.563 54.954 106.056 56.975 104.072 57.986 101.609 57.986ZM34.788 67.248 28.172 67.248 28.172 58.207 17.394 58.207 17.394 51.59 28.172 51.59 28.172 47.62C28.172 46.187 27.694 45.47 26.739 45.47L17.394 45.47 17.394 38.855 26.739 38.855C29.129 38.855 31.067 39.718 32.555 41.446 34.044 43.174 34.788 45.232 34.788 47.621ZM91.906 38.855 91.906 45.47 80.769 45.47 80.769 51.37 91.906 51.37 91.906 57.985 80.769 57.985 80.769 67.247 74.153 67.247 74.153 38.854 91.906 38.854ZM17.395 58.206 6.616 58.206 6.616 67.247 0 67.247 0 47.62C0 45.231 0.745 43.173 2.232 41.446 3.721 39.718 5.642 38.854 7.994 38.854L17.394 38.854 17.394 45.469 7.994 45.469C7.074 45.469 6.616 46.187 6.616 47.619L6.616 51.589 17.395 51.589Z" fill="#666666"/><path d="M241.476 136.27 227.039 136.27 227.039 116.54 203.519 116.54 203.519 102.102 227.039 102.102 227.039 93.44C227.039 90.313 225.996 88.75 223.91 88.75L203.52 88.75 203.52 74.311 223.911 74.311C229.125 74.311 233.355 76.196 236.604 79.965 239.852 83.735 241.477 88.227 241.477 93.439ZM203.519 116.54 179.999 116.54 179.999 136.27 165.56 136.27 165.56 93.44C165.56 88.227 167.184 83.736 170.432 79.966 173.68 76.196 177.872 74.312 183.005 74.312L203.517 74.312 203.517 88.749 183.005 88.749C181 88.749 179.998 90.313 179.998 93.439L179.998 102.102 203.518 102.102ZM321.58 117.14C321.58 122.355 320.016 126.805 316.887 130.495 313.519 134.345 309.267 136.27 304.135 136.27L250.72 136.27 250.72 121.833 304.135 121.833C306.141 121.833 307.143 120.269 307.143 117.141 307.143 114.014 306.14 112.45 304.135 112.45L265.276 112.45C260.144 112.45 255.892 110.524 252.524 106.674 249.315 103.066 247.711 98.654 247.711 93.44 247.711 88.228 249.356 83.737 252.644 79.966 255.932 76.196 260.144 74.312 265.276 74.312L318.692 74.312 318.692 88.75 265.276 88.75C263.271 88.75 262.268 90.314 262.268 93.441 262.268 96.489 263.271 98.013 265.276 98.013L304.136 98.013C309.268 98.013 313.519 99.938 316.887 103.789 320.016 107.478 321.58 111.929 321.58 117.142ZM393.645 74.312 393.645 88.75 342.033 88.75 342.033 98.013 390.276 98.013 390.276 112.451 342.033 112.451 342.033 121.834 393.524 121.834 393.524 136.271 327.595 136.271 327.595 74.312Z" fill="#BA160C"/><path d="M615 158.007C614.838 157.582 614.706 156.831 614.706 156.338 614.706 154.998 613.674 153.231 612.149 151.956 611.402 151.331 610.324 150.117 609.753 149.257 608.537 147.426 607.22 146.709 602.355 145.228 597.022 143.606 595.383 142.213 594.901 138.895L594.661 137.241 593.69 138.649C591.789 141.403 590.531 141.843 587.954 140.656 586.318 139.901 585.126 139.832 583.768 140.413 582.902 140.783 582.741 140.768 582.175 140.256 581.57 139.709 581.509 139.707 580.651 140.214 579.975 140.613 579.429 140.692 578.404 140.538 576.766 140.293 575.891 140.77 574.794 142.508 572.719 145.796 571.241 144.291 571.248 138.898 571.256 132.908 574.076 129.513 582.205 125.71 586.389 123.753 588.284 122.485 589.45 120.862 590.348 119.611 590.427 119.567 590.818 120.102 591.65 121.24 594.517 127.107 595.886 130.474 597.446 134.31 597.917 135.021 598.509 134.43 599.008 133.93 597.8 130.395 595.455 125.492 589.635 113.324 581.037 104.621 570.306 100.036 565.381 97.932 562.96 97.484 556.566 97.496 551.705 97.506 550.512 97.609 547.228 98.308 542.425 99.328 537.054 101.047 530.208 103.753 523.311 106.478 523.305 106.478 516.35 103.989 513.534 102.981 510.157 101.883 508.846 101.549 506.168 100.865 502.214 100.746 499.991 101.281 497.427 101.898 493.819 103.827 489.389 106.95 484.073 110.697 481.213 112.182 477.403 113.172 474.103 114.029 472.708 114.775 471.887 116.122 471.231 117.198 471.167 118.062 471.664 119.152 472.004 119.899 475.258 122.274 479.064 124.554 480.096 125.172 481.017 125.802 481.11 125.953 481.333 126.313 476.177 128.884 472.41 130.291 465.715 132.793 458.518 134.376 447.667 135.733 440.437 136.637 439.206 136.891 433.81 138.584 431.656 139.261 428.538 140.094 426.881 140.439 419.573 141.955 412.95 140.157 411.946 136.385 411.762 135.695 411.435 134.929 411.218 134.68 409.881 133.146 409.385 129.458 410.246 127.45 410.496 126.87 410.996 124.634 411.36 122.48 412.611 115.064 413.883 111.053 416.621 105.878 421.42 96.812 430.973 85.302 442.546 74.644 450.193 67.602 457.459 62.186 474.258 51.01 484.642 44.102 484.742 44.013 485.936 40.682 486.201 39.942 487.489 35.178 488.798 30.094 492.875 14.261 495.49 8.284 500.345 3.7 503.085 1.114 507.45-0.498 509.989 0.14 511.437 0.503 511.509 1.216 510.505 5.24 508.832 11.945 508.268 16.184 508.252 22.166 508.237 28.07 508.602 30.355 510.004 33.121 511.927 36.915 513.224 37.648 520.757 39.191 547.4 44.651 565.177 52.858 577.807 65.529 589.505 77.265 599.039 95.632 605.241 118.381L606.422 122.711 608.682 124.441C614.446 128.858 617.675 133.306 619.396 139.199 620.306 142.317 620.168 148.946 619.111 152.856 617.983 157.026 617.021 158.78 615.857 158.78 615.53 158.78 615.171 158.456 615 158.007ZM615.494 149.259C615.602 148.827 615.619 146.963 615.531 145.117 615.251 139.24 613.438 135.043 609.284 130.66 606.094 127.294 600.314 123.233 598.714 123.233 598.102 123.233 598.066 123.34 598.225 124.681 598.319 125.477 598.958 127.605 599.644 129.408 600.33 131.212 600.967 133.328 601.059 134.111 601.207 135.359 601.133 135.629 600.449 136.311 599.511 137.251 598.627 137.294 597.275 136.471 596.718 136.131 596.196 135.919 596.115 135.999 596.035 136.079 596.062 136.693 596.175 137.362 596.585 139.794 597.995 140.771 603.402 142.372 611.327 144.719 612.956 145.796 614.209 149.516 614.476 150.309 615.271 150.15 615.494 149.259ZM426.694 138.113C428.082 137.863 430.861 137.138 432.87 136.502 437.186 135.135 440.492 134.447 449.625 133.017 460.34 131.339 464.651 130.447 469.427 128.921 472.464 127.951 475.239 126.703 475.22 126.316 475.214 126.194 474.318 125.552 473.228 124.89 472.138 124.227 470.101 122.566 468.701 121.2 467.301 119.833 466.024 118.714 465.863 118.714 465.105 118.714 463.193 119.782 460.78 121.553 453.871 126.623 451.45 127.627 440.437 129.975 434.972 131.14 433.033 131.801 430.477 133.369 426.944 135.537 426.183 135.896 423.865 136.489 422.571 136.819 420.525 137.09 419.32 137.09 416.17 137.09 415.82 138.07 418.782 138.593 420.528 138.902 423.225 138.738 426.694 138.113ZM576.788 137.493C577.015 137.218 577.782 136.735 578.493 136.42L579.784 135.847 582.56 136.689C586.035 137.743 590.591 137.899 591.824 137.005L593.594 135.72C594.216 135.27 594.844 135.042 595.176 135.148 595.48 135.244 595.728 135.277 595.728 135.22 595.728 134.913 591.472 125.178 591.069 124.563L590.591 123.833 589.075 125.032C588.241 125.691 585.415 127.519 582.795 129.095 576.064 133.142 573.952 135.205 574.462 137.235 574.61 137.825 574.844 137.994 575.513 137.994 575.987 137.994 576.561 137.768 576.788 137.493ZM449.918 120.145C450.648 119.772 451.375 119.249 451.536 118.981 452.801 116.883 447.757 117.104 446.398 119.206 446.039 119.763 446.048 119.915 446.47 120.336 447.145 121.011 448.356 120.944 449.919 120.146ZM459.411 113.561C462.654 112.691 465.9 111.622 466.892 111.098 468.968 110.003 470.732 108.103 471.987 105.61 472.487 104.616 473.422 103.315 474.064 102.72 474.706 102.123 475.231 101.417 475.231 101.15 475.231 98.804 467.171 97.738 461.976 99.396 455.68 101.406 449.666 107.819 449.521 112.678 449.432 115.657 451.064 115.803 459.411 113.561ZM583.076 104.356C583.076 103.811 581.067 101.139 579.646 99.796 576.889 97.188 574.073 95.582 568.648 93.522 565.426 92.299 564.098 91.549 564.098 90.953 564.098 90.813 564.368 90.428 564.7 90.096 566.391 88.405 574.492 90.489 580.207 94.086 582.464 95.506 585.039 97.512 587.187 99.521 588.829 101.057 589.1 101.216 589.1 100.641 589.1 99.736 587.61 97.006 585.794 94.587 581.252 88.535 573.863 83.822 565.595 81.704 558.915 79.993 553.118 79.895 548.173 81.411 543.602 82.813 538.293 86.116 532.963 90.878 525.463 97.578 523.241 99.446 521.323 100.664 520.171 101.396 519.269 102.126 519.317 102.286 519.367 102.446 520.231 102.841 521.24 103.164L523.073 103.75 527.544 101.696C536.384 97.635 544.499 95.02 550.541 94.287 559.761 93.168 570.071 96.082 579.311 102.417 582.127 104.349 583.076 104.837 583.076 104.357ZM501.439 129.843C491.956 128.671 482.998 125.357 475.682 120.315 474.024 119.172 473.552 118.679 473.476 118.008 473.285 116.342 474.811 115.356 478.933 114.484 482.56 113.717 484.957 112.501 490.443 108.647 497.859 103.437 500.793 102.254 505.626 102.521 507.889 102.646 509.303 103.027 516.802 105.531 528.043 109.285 539.965 113.532 540.861 114.103 542.915 115.41 539.367 120.239 533.805 123.705 529.612 126.319 524.075 128.372 518.387 129.422 515.253 130.001 504.813 130.26 501.439 129.843ZM431.378 83.065C431.26 82.76 431.241 81.269 431.336 79.751 431.754 73.081 435.38 65.538 440.319 61.069 442.212 59.355 445.236 57.562 446.231 57.562 447.221 57.562 447.837 58.597 448.578 61.507 448.968 63.039 449.578 64.687 449.934 65.168 450.29 65.65 450.536 66.084 450.48 66.133 450.424 66.183 449.022 67.299 447.366 68.615 443.319 71.828 437.716 77.005 434.349 80.641 432.052 83.123 431.556 83.527 431.378 83.065Z" fill="#050505"/></svg>