<svg width="279.184" height="187.477" xmlns="http://www.w3.org/2000/svg" xmlns:xlink="http://www.w3.org/1999/xlink" id="svg2816" overflow="hidden"><defs id="defs2820"><clipPath id="clipPath2832"><path d="M0 792 612 792 612 0 0 0 0 792Z" id="path2834"/></clipPath><clipPath id="clipPath2844"><path d="M0 792 612 792 612 0 0 0 0 792Z" id="path2846"/></clipPath><clipPath id="clipPath2852"><path d="M96.0078 715.93 184.298 715.93 184.298 653.754 96.0078 653.754 96.0078 715.93Z" id="path2854"/></clipPath><clipPath id="clipPath2868"><path d="M0 792 612 792 612 0 0 0 0 792Z" id="path2870"/></clipPath><clipPath id="clipPath2880"><path d="M0 792 612 792 612 0 0 0 0 792Z" id="path2882"/></clipPath><clipPath id="clipPath2908"><path d="M0 792 612 792 612 0 0 0 0 792Z" id="path2910"/></clipPath><clipPath id="clipPath2936"><path d="M0 792 612 792 612 0 0 0 0 792Z" id="path2938"/></clipPath><clipPath id="clipPath2944"><path d="M121.202 708.378 167.101 708.378 167.101 662.519 121.202 662.519 121.202 708.378Z" id="path2946"/></clipPath><clipPath id="clipPath2960"><path d="M0 792 612 792 612 0 0 0 0 792Z" id="path2962"/></clipPath><clipPath id="clipPath2968"><path d="M40.4033 726.188 252.805 726.188 252.805 664.37 40.4033 664.37 40.4033 726.188Z" id="path2970"/></clipPath><clipPath id="clipPath2988"><path d="M0 792 612 792 612 0 0 0 0 792Z" id="path2990"/></clipPath><clipPath id="clipPath2996"><path d="M39.5195 688.644 238.9 688.644 238.9 614.826 39.5195 614.826 39.5195 688.644Z" id="path2998"/></clipPath><clipPath id="clipPath3016"><path d="M0 792 612 792 612 0 0 0 0 792Z" id="path3018"/></clipPath></defs><g id="layer1" transform="translate(-62.6686 -74.0643)"><g id="g3012" transform="matrix(1.25 0 0 -1.25 19.1176 990)"><g id="g3014" clip-path="url(#clipPath3016)"><g id="g3020" transform="translate(61.4912 609.137)"><path d="M0 0C1.824 0 3.552-0.432 4.417-1.296 4.561-2.641 3.36-4.801 2.592-4.801 1.68-4.465 0.816-4.272-0.24-4.272-4.608-4.272-6.769-8.785-6.769-13.249-6.769-16.033-5.809-17.714-3.6-17.714-1.248-17.714 1.152-16.13 2.496-14.93 2.832-15.169 3.264-15.938 3.264-16.802 3.264-17.762 2.976-18.674 2.112-19.538 0.576-21.074-2.016-22.37-5.761-22.37-10.081-22.37-13.057-19.922-13.057-14.209-13.057-6.721-8.113 0-0.048 0L0 0Z" id="path3022" fill="#373535"/></g><g id="g3024" transform="translate(75.6021 591.664)"><path d="M0 0C2.352 0 6.625 4.129 7.825 12.001 7.873 12.481 7.921 12.625 8.017 13.105 7.489 13.297 6.769 13.441 6.048 13.441 4.272 13.441 2.448 12.913 0.816 10.705-0.864 8.353-1.584 5.425-1.584 3.072-1.584 1.057-1.008 0-0.048 0L0 0ZM-7.729 2.16C-7.729 4.992-6.769 9.937-3.168 13.537-0.096 16.705 3.648 17.474 7.057 17.474 9.313 17.474 12.385 16.754 14.305 16.369 13.825 14.257 12.673 6.289 12.145 1.681 11.905-0.288 11.809-3.024 11.905-4.032 10.321-4.704 7.345-4.896 6.528-4.896 6.097-4.896 6-2.928 6.145-1.056 6.192-0.432 6.289 0.48 6.336 0.864 4.464-2.256 0.768-4.896-3.12-4.896-5.904-4.896-7.729-2.592-7.729 2.112L-7.729 2.16Z" id="path3026" fill="#373535"/></g><g id="g3028" transform="translate(101.858 609.137)"><path d="M0 0C1.968 0 3.84-0.72 4.705-1.632 4.657-2.977 3.601-5.232 1.92-4.608 1.2-4.368 0.48-4.177-0.48-4.177-1.776-4.177-2.88-4.753-2.88-5.952-2.88-6.864-2.208-7.537 1.008-9.793 3.313-11.473 4.225-12.961 4.225-15.073 4.225-18.578 0.912-22.37-4.848-22.37-7.2-22.37-9.265-21.458-9.937-20.498-10.801-19.058-10.129-16.226-9.168-16.705-7.92-17.329-5.856-18.002-4.176-18.002-2.592-18.002-1.584-17.281-1.584-16.321-1.584-15.506-2.304-14.785-5.232-12.721-7.681-10.897-8.449-9.217-8.449-7.297-8.449-3.313-5.04-1.77636e-15-0.048-1.77636e-15L0 0Z" id="path3030" fill="#373535"/></g><g id="g3032" transform="translate(118.417 609.137)"><path d="M0 0C1.969 0 3.841-0.72 4.705-1.632 4.657-2.977 3.602-5.232 1.921-4.608 1.201-4.368 0.48-4.177-0.479-4.177-1.775-4.177-2.879-4.753-2.879-5.952-2.879-6.864-2.207-7.537 1.009-9.793 3.313-11.473 4.225-12.961 4.225-15.073 4.225-18.578 0.912-22.37-4.848-22.37-7.2-22.37-9.264-21.458-9.936-20.498-10.8-19.058-10.128-16.226-9.168-16.705-7.92-17.329-5.856-18.002-4.176-18.002-2.592-18.002-1.584-17.281-1.584-16.321-1.584-15.506-2.304-14.785-5.232-12.721-7.68-10.897-8.448-9.217-8.448-7.297-8.448-3.313-5.04-1.77636e-15-0.047-1.77636e-15L0 0Z" id="path3034" fill="#373535"/></g><g id="g3036" transform="translate(133.536 591.664)"><path d="M0 0C2.353 0 6.625 4.129 7.825 12.001 7.873 12.481 7.922 12.625 8.018 13.105 7.489 13.297 6.77 13.441 6.049 13.441 4.273 13.441 2.449 12.913 0.816 10.705-0.863 8.353-1.584 5.425-1.584 3.072-1.584 1.057-1.008 0-0.047 0L0 0ZM-7.729 2.16C-7.729 4.992-6.768 9.937-3.168 13.537-0.096 16.705 3.648 17.474 7.057 17.474 9.313 17.474 12.386 16.754 14.306 16.369 13.826 14.257 12.674 6.289 12.146 1.681 11.905-0.288 11.81-3.024 11.905-4.032 10.321-4.704 7.346-4.896 6.529-4.896 6.098-4.896 6.001-2.928 6.145-1.056 6.193-0.432 6.289 0.48 6.337 0.864 4.465-2.256 0.769-4.896-3.119-4.896-5.904-4.896-7.729-2.592-7.729 2.112L-7.729 2.16Z" id="path3038" fill="#373535"/></g><g id="g3040" transform="translate(158.688 602.897)"><path d="M0 0C2.209 3.552 5.088 6.24 9.121 6.24 12.529 6.24 13.633 3.072 13.01-1.44 12.674-3.553 12.098-6.577 11.713-9.361 11.377-11.714 11.137-13.825 11.186-15.266 9.938-15.89 6.289-16.13 5.473-16.13 5.137-16.13 5.088-13.489 5.521-10.705 5.904-8.401 6.721-4.225 7.105-1.824 7.346-0.433 7.297 1.248 5.953 1.248 4.176 1.248-0.047-1.585-2.16-13.201-2.305-14.161-2.688-14.737-3.217-15.073-3.936-15.506-5.473-15.89-8.592-15.938-8.016-13.01-7.104-7.009-6.432-2.593-5.809 1.439-5.568 4.032-5.713 5.04-4.896 5.328-0.623 6.24-0.145 6.24 0.385 6.24 0.48 4.752 0 1.151-0.047 0.815-0.096 0.288-0.145 0L0 0Z" id="path3042" fill="#373535"/></g><g id="g3044" transform="translate(183.073 591.711)"><path d="M0 0C2.111 0 6.385 3.937 7.584 10.897 7.633 11.281 7.777 12.001 7.873 12.434 7.248 13.01 6.432 13.394 5.137 13.394 0.287 13.394-1.873 7.585-1.873 3.408-1.873 1.152-1.104 0-0.049 0L0 0ZM-3.168-4.944C-6.24-4.944-8.16-2.208-8.16 2.496-8.16 10.273-3.313 17.426 4.848 17.426 6.289 17.426 7.584 17.042 8.4 16.562 8.832 18.77 9.84 25.587 9.889 27.603 11.232 27.843 14.113 28.274 15.408 28.274 15.938 28.274 16.082 27.747 15.889 26.547 14.736 19.346 12.674 5.521 12.289 2.448 12-0.144 11.953-2.688 12-4.128 10.465-4.8 7.344-4.944 6.529-4.944 6.191-4.944 6-2.736 6.096-0.768 6.145-0.144 6.24 0.769 6.24 0.912 3.84-3.024 0.527-4.944-3.121-4.944L-3.168-4.944Z" id="path3046" fill="#373535"/></g><g id="g3048" transform="translate(208.032 602.224)"><path d="M0 0C2.545 5.665 5.568 6.913 7.537 6.913 8.162 6.913 9.121 6.529 9.553 6.049 9.746 4.465 8.498 1.297 7.393 0.097 6.816 0.385 6.098 0.673 5.281 0.673 3.648 0.673 0.432-1.872-1.584-12.816-1.729-13.729-2.016-14.113-2.543-14.353-3.359-14.833-6.576-15.217-8.111-15.265-7.393-11.328-6.145-3.312-5.664 1.393-5.52 2.593-5.473 4.801-5.568 5.665-4.656 6.097-1.055 6.913-0.24 6.913 0.193 6.913 0.529 4.272-0.145 -8.88178e-16L0 0Z" id="path3050" fill="#373535"/></g><g id="g3052" transform="translate(224.975 591.664)"><path d="M0 0C2.354 0 6.625 4.129 7.826 12.001 7.873 12.481 7.922 12.625 8.018 13.105 7.49 13.297 6.77 13.441 6.049 13.441 4.273 13.441 2.449 12.913 0.816 10.705-0.863 8.353-1.584 5.425-1.584 3.072-1.584 1.057-1.008 0-0.047 0L0 0ZM-7.729 2.16C-7.729 4.992-6.768 9.937-3.168 13.537-0.096 16.705 3.648 17.474 7.057 17.474 9.313 17.474 12.385 16.754 14.307 16.369 13.826 14.257 12.674 6.289 12.146 1.681 11.906-0.288 11.809-3.024 11.906-4.032 10.322-4.704 7.346-4.896 6.529-4.896 6.098-4.896 6.002-2.928 6.145-1.056 6.193-0.432 6.289 0.48 6.338 0.864 4.465-2.256 0.77-4.896-3.119-4.896-5.904-4.896-7.729-2.592-7.729 2.112L-7.729 2.16Z" id="path3054" fill="#373535"/></g></g></g></g><g id="layer2" transform="translate(-62.6686 -74.0643)"><g id="g4555" transform="matrix(1.25 0 0 -1.25 19.1176 990)"><g id="g2828"><g id="g2830" clip-path="url(#clipPath2832)"><g id="g2836" transform="translate(210.878 690.483)"><path d="M0 0C1.584-18.452-27.455-36.014-64.859-39.223-102.263-42.432-133.869-30.072-135.451-11.621-137.035 6.834-107.996 24.395-70.592 27.604-33.188 30.812-1.582 18.455 0 0" id="path2838" fill="#BBE6FB"/></g></g></g><g id="g2840"><g id="g2842" clip-path="url(#clipPath2844)"><g id="g2848"><g id="g2850"></g><g id="g2856"><g id="g2858" clip-path="url(#clipPath2852)" opacity="0.350006"><g id="g2860" transform="translate(141.384 715.923)"><path d="M0 0C-14.268 0.232-30.964-5.433-43.387-10.738-44.68-14.464-45.376-18.427-45.376-22.535-45.376-44.423-25.612-62.169-1.231-62.169 23.15-62.169 42.914-44.423 42.914-22.535 42.914-15.608 40.93-9.1 37.451-3.434 27.512-1.889 13.842-0.225 0 0" id="path2862" fill="#FFFFFF"/></g></g></g></g></g></g><g id="g2864"><g id="g2866" clip-path="url(#clipPath2868)"><g id="g2872" transform="translate(140.153 715.928)"><path d="M0 0C-7.899 0.482-21.514-3.639-32.867-7.75-34.592-11.821-35.55-16.276-35.55-20.951-35.55-40.129-18.162-55.676 0.232-55.676 18.505-55.676 34.672-40.104 36.014-20.951 36.45-14.714 34.303-8.837 31.322-3.77 19.552-1.697 7.061-0.431 0 0" id="path2874" fill="#FFFFFF"/></g></g></g><g id="g2876"><g id="g2878" clip-path="url(#clipPath2880)"><g id="g2884" transform="translate(119.882 697.495)"><path d="M0 0C0.969 2.146 2.437 3.197 3.859 4.996 3.701 5.422 3.355 6.815 3.355 7.298 3.355 9.454 5.104 11.204 7.261 11.204 7.77 11.204 8.256 11.103 8.701 10.926 15.166 15.853 23.677 18.001 32.23 16.089 33.011 15.913 33.777 15.7 34.529 15.466 26.076 16.638 16.548 13.644 10.067 8.413 10.265 7.946 10.814 6.611 10.814 6.074 10.814 3.917 9.418 3.392 7.261 3.392 6.771 3.392 6.303 3.486 5.87 3.651 4.406 1.685 2.612-2.06 1.734-4.401 5.318-7.607 8.556-8.769 12.776-10.346 12.765-10.145 12.921-9.959 12.921-9.754 12.921-3.251 18.646 2.034 25.15 2.034 30.978 2.034 35.804-2.204 36.746-7.764 39.654-5.914 42.466-4.496 44.609-1.754 44.109-1.144 43.57 0.583 43.57 1.433 43.57 3.39 45.158 4.977 47.115 4.977 47.392 4.977 47.658 4.937 47.917 4.877 49.005 7.113 49.826 9.483 50.351 11.927 40.181 19.456 20.504 18.429 20.504 18.429 20.504 18.429 4.846 19.246-5.754 14.08-5.047 8.969-3.008 4.11 0 0" id="path2886" fill="#373535"/></g><g id="g2888" transform="translate(168.491 700.428)"><path d="M0 0C0.719-0.648 1.111-1.217 1.42-1.771 2.371-3.481 0.463-5.046-1.494-5.046-1.693-5.046-1.885-5.019-2.076-4.987-4.281-8.433-8.143-12.852-11.574-15.076-6.313-15.938-1.352-18.045 2.596-21.301 5.471-16.15 7.676-8.712 7.676-2.394 7.676 2.415 5.553 5.94 2.348 8.526 2.18 5.95 0.805 2.347 0 0" id="path2890" fill="#373535"/></g><g id="g2892" transform="translate(125.784 667.803)"><path d="M0 0C1.753 4.841 6.065 8.592 10.144 11.892 9.547 12.709 8.652 14.732 8.279 15.69 3.304 17.203-1.098 20.035-4.512 23.784-4.537 23.675-4.568 23.569-4.594 23.46-5.237 20.579-5.355 17.692-5.035 14.876-2.653 14.432-0.85 12.345-0.85 9.834-0.85 8.345-2.155 6.187-3.168 5.248-2.067 2.872-1.316 1.726 0 0" id="path2894" fill="#373535"/></g><g id="g2896" transform="translate(125.476 663.739)"><path d="M0 0C-2.091 2.079-3.537 6.226-4.894 8.83-5.148 8.791-5.408 8.764-5.674 8.764-8.51 8.764-11.481 11.144-10.809 13.898-10.437 15.422-9.385 16.419-7.672 17.251-8.062 20.408-8.168 24.946-7.435 28.228-7.225 29.167-6.78 29.607-6.485 30.501-9.614 35.08-11.636 41.09-11.636 47.053-11.636 47.271-11.625 47.486-11.62 47.702-16.908 45.05-20.873 40.872-20.873 34.295-20.873 19.747-12.494 5.476-0.027-0.118-0.018-0.079-0.01-0.039 0 0" id="path2898" fill="#373535"/></g><g id="g2900" transform="translate(156.131 683.851)"><path d="M0 0C-1.611-4.582-5.967-7.873-11.1-7.873-13.846-7.873-16.365-6.926-18.367-5.352-22.494-8.566-26.238-14.212-28.141-19.11-27.287-20.029-26.692-20.785-25.734-21.6-22.847-22.352-18.871-21.6-15.746-21.6-3.176-21.6 7.957-16.008 14.34-6.202 10.096-3.263 5.09-0.466 0 0" id="path2902" fill="#373535"/></g></g></g><g id="g2904"><g id="g2906" clip-path="url(#clipPath2908)"><g id="g2912" transform="translate(119.56 695.794)"><path d="M0 0C0.969 2.146 2.184 4.132 3.605 5.931 3.447 6.356 3.355 6.815 3.355 7.298 3.355 9.454 5.104 11.204 7.261 11.204 7.77 11.204 8.256 11.103 8.701 10.926 15.166 15.853 23.677 18.001 32.23 16.089 33.011 15.913 33.777 15.7 34.529 15.466 26.076 16.638 17.342 14.047 10.861 8.815 11.059 8.349 11.167 7.835 11.167 7.298 11.167 5.141 9.418 3.392 7.261 3.392 6.771 3.392 6.303 3.486 5.87 3.651 4.406 1.685 3.209-0.487 2.331-2.829 5.409-6.146 9.187-8.769 13.406-10.346 13.396-10.145 13.375-9.946 13.375-9.741 13.375-3.238 18.646 2.034 25.15 2.034 30.978 2.034 35.804-2.204 36.746-7.764 39.654-5.914 42.238-3.538 44.38-0.796 43.88-0.186 43.57 0.583 43.57 1.433 43.57 3.39 45.158 4.977 47.115 4.977 47.392 4.977 47.658 4.937 47.917 4.877 49.005 7.113 49.826 9.483 50.351 11.927 40.181 19.456 20.504 18.429 20.504 18.429 20.504 18.429 4.846 19.246-5.754 14.08-5.047 8.969-3.008 4.11 0 0" id="path2914" fill="#1287B1"/></g><g id="g2916" transform="translate(169.04 699.848)"><path d="M0 0C0.719-0.648 1.18-1.577 1.18-2.621 1.18-4.578-0.408-6.166-2.365-6.166-2.564-6.166-2.756-6.139-2.947-6.107-5.152-9.553-8.074-12.491-11.506-14.715-6.434-15.508-1.66-17.66 2.287-20.916 5.162-15.765 6.805-9.832 6.805-3.514 6.805 1.295 4.682 4.82 1.477 7.406 1.309 4.83 0.805 2.347 0 0" id="path2918" fill="#1287B1"/></g><g id="g2920" transform="translate(126.325 666.64)"><path d="M0 0C1.753 4.841 4.799 9.185 8.878 12.484 8.281 13.302 7.789 14.195 7.416 15.153 2.44 16.666-1.961 19.498-5.375 23.247-5.4 23.138-5.432 23.032-5.457 22.923-6.101 20.042-6.219 17.155-5.898 14.339-3.517 13.895-1.713 11.808-1.713 9.297-1.713 7.808-2.352 6.469-3.365 5.53-2.446 3.582-1.316 1.726 0 0" id="path2922" fill="#1287B1"/></g><g id="g2924" transform="translate(125.462 663.798)"><path d="M0 0C-2.091 2.079-3.846 4.467-5.202 7.07-5.457 7.031-5.717 7.005-5.982 7.005-8.818 7.005-11.117 9.304-11.117 12.139-11.117 14.171-9.933 15.923-8.22 16.755-8.609 19.911-8.477 23.187-7.743 26.469-7.533 27.407-7.277 28.323-6.982 29.218-10.111 33.796-11.944 39.331-11.944 45.294-11.944 45.512-11.934 45.727-11.929 45.942-17.217 43.291-21.182 39.112-21.182 32.536-21.182 17.987-12.494 5.476-0.027-0.118-0.018-0.079-0.01-0.039 0 0" id="path2926" fill="#1287B1"/></g><g id="g2928" transform="translate(155.809 682.151)"><path d="M0 0C-1.611-4.582-5.967-7.873-11.1-7.873-13.846-7.873-16.365-6.926-18.367-5.352-22.494-8.566-25.609-12.947-27.511-17.846-26.658-18.765-25.746-19.631-24.788-20.445-21.9-21.197-18.871-21.6-15.746-21.6-3.176-21.6 7.875-15.11 14.258-5.305 10.014-2.365 5.09-0.466 0 0" id="path2930" fill="#1287B1"/></g></g></g><g id="g2932"><g id="g2934" clip-path="url(#clipPath2936)"><g id="g2940"><g id="g2942"></g><g id="g2948"><g id="g2950" clip-path="url(#clipPath2944)"><g id="g2952" transform="translate(156.222 685.187)"><path d="M0 0 10.879 2.595-0.041 3.152 8.846 9.944-1.238 6.329 5.615 15.826-3.85 9.535-0.541 20.652-7.041 11.489-7.189 23.068-11.466 12.754-15.032 23.191-14.839 10.896-21.002 21.917-17.667 10.215-27.664 17.485-19.833 7.645-32.244 12.209-22.449 4.962-35.009 4.576-22.167 1.262-35.02-1.517-22.333-2.437-33.032-9.288-22.015-5.294-29.659-14.975-20-7.185-23.478-20.176-16.021-9.604-17.066-22.09-12.833-10.771-9.23-22.668-8.354-10.735-3.006-20.916-6.166-9.271 3.627-16.857-2.695-7.185 8.049-11.371-0.166-3.298 10.85-4.164 0 0Z" id="path2954" fill="#FFFFFF"/></g></g></g></g></g></g><g id="g2956"><g id="g2958" clip-path="url(#clipPath2960)"><g id="g2964"><g id="g2966"></g><g id="g2972"><g id="g2974" clip-path="url(#clipPath2968)" opacity="0.350006"><g id="g2976" transform="translate(40.4033 664.37)"><path d="M0 0C33.74 33.739 60.687 44.155 85.143 48.91 88.379 49.539 88.991 56.61 88.991 56.61 88.991 56.61 89.444 51.402 91.709 50.723 93.973 50.043 96.916 58.875 96.916 58.875 96.916 58.875 94.199 50.949 96.916 50.496 99.634 50.043 104.615 58.195 104.615 58.195 104.615 58.195 102.578 51.176 103.937 50.723 105.294 50.27 112.087 60.912 112.087 60.912 112.087 60.912 108.011 53.893 111.861 53.213 115.712 52.534 121.328 58.004 121.328 58.004 121.328 58.004 116.912 52.999 118.88 52.308 127.259 49.363 134.039 60.253 134.039 60.253 134.039 60.253 132.468 55.478 128.392 50.27 137.222 48.006 143.781 61.309 143.781 61.309L137.222 48.006C140.619 46.193 154.207 61.818 154.207 61.818 154.207 61.818 147.187 49.59 143.111 47.1 145.375 45.288 153.527 52.534 153.527 52.534 153.527 52.534 146.96 44.383 149.451 43.93 153.074 40.986 166.433 59.101 166.433 59.101 166.433 59.101 161.226 48.459 153.527 40.08 159.962 36.861 175.945 57.516 175.945 57.516 175.945 57.516 175.492 50.949 163.943 40.533 172.548 41.665 183.644 57.969 183.644 57.969 183.644 57.969 179.568 45.741 169.83 37.137 178.279 38.016 191.794 58.875 191.794 58.875 191.794 58.875 186.587 44.383 175.945 36.004 187.72 33.4 204.703 50.949 204.703 50.949 204.703 50.949 198.023 38.494 189.304 33.4 199.042 29.664 212.402 45.062 212.402 45.062 212.402 45.062 199.042 24.455 177.757 25.361 170.773 25.658 149.648 46.549 104.389 44.835 44.609 42.57 31.929 17.209 0 0" id="path2978" fill="#373535"/></g></g></g></g><g id="g2980" transform="translate(41.7861 666.933)"><path d="M0 0C33.74 33.739 60.686 44.154 85.142 48.91 88.379 49.539 88.991 56.609 88.991 56.609 88.991 56.609 89.443 51.4 91.709 50.722 93.973 50.043 96.916 58.873 96.916 58.873 96.916 58.873 94.199 50.947 96.916 50.495 99.634 50.043 104.615 58.194 104.615 58.194 104.615 58.194 102.578 51.175 103.935 50.722 105.294 50.269 112.087 60.912 112.087 60.912 112.087 60.912 108.011 53.892 111.861 53.213 115.71 52.533 121.328 58.003 121.328 58.003 121.328 58.003 116.912 52.998 118.88 52.307 127.259 49.363 134.037 60.252 134.037 60.252 134.037 60.252 132.466 55.477 128.392 50.269 137.222 48.004 143.781 61.309 143.781 61.309L137.222 48.004C140.619 46.193 154.205 61.816 154.205 61.816 154.205 61.816 147.187 49.59 143.111 47.099 145.375 45.287 153.527 52.533 153.527 52.533 153.527 52.533 146.96 44.381 149.451 43.929 153.074 40.984 166.433 59.1 166.433 59.1 166.433 59.1 161.224 48.457 153.527 40.079 159.962 36.859 175.945 57.515 175.945 57.515 175.945 57.515 175.492 50.947 163.943 40.531 172.548 41.664 183.644 57.968 183.644 57.968 183.644 57.968 179.568 45.74 169.83 37.135 178.279 38.014 191.794 58.873 191.794 58.873 191.794 58.873 186.587 44.381 175.945 36.003 187.72 33.399 204.703 50.947 204.703 50.947 204.703 50.947 198.023 38.494 189.304 33.399 199.042 29.663 212.402 45.061 212.402 45.061 212.402 45.061 199.042 24.454 177.755 25.36 170.773 25.658 149.648 46.549 104.388 44.834 44.609 42.57 31.928 17.209 0 0" id="path2982" fill="#373535"/></g></g></g><g id="g2984"><g id="g2986" clip-path="url(#clipPath2988)"><g id="g2992"><g id="g2994"></g><g id="g3000"><g id="g3002" clip-path="url(#clipPath2996)" opacity="0.350006"><g id="g3004" transform="translate(39.5195 660.68)"><path d="M0 0C17.832-8.945 34.137 1.358 54.686-4.433 70.309-8.837 89.331-14.266 115.144-10.529 140.958-6.794 163.037 4.415 173.568 24.456 176.851 33.399 190.21 22.417 190.21 22.417 190.21 22.417 180.474 26.493 180.701 24.568 180.927 22.644 195.306 15.964 195.306 15.964 195.306 15.964 182.285 20.04 183.078 16.983 183.871 13.926 199.38 1.698 199.38 1.698 199.38 1.698 181.832 15.058 180.361 13.247 178.888 11.435 187.833 4.075 187.833 4.075 187.833 4.075 173.001 13.247 167.792 10.542 164.046 8.599 183.191-3.964 183.191-3.964 183.191-3.964 170.736 5.548 167.792 3.057 164.849 0.565 181.832-19.814 181.832-19.814 181.832-19.814 162.583 1.019 160.66-3.55271e-15 158.734-1.019 165.98-10.983 165.98-10.983 165.98-10.983 156.47-0.566 153.867-2.378 151.263-4.19 167.453-31.249 167.453-31.249 167.453-31.249 149.904-3.511 142.658-8.151 154.037-33.117 149.791-36.684 149.791-36.684 149.791-36.684 148.339-11.214 134.166-11.888 127.033-12.228 137.562-30.909 137.562-30.909 137.562-30.909 127.871-13.847 121.417-14.187 133.312-36.698 129.072-45.854 129.072-45.854 129.072-45.854 131.039-26.628 114.906-15.929 121.019-21.362 111.07-45.854 111.07-45.854 111.07-45.854 119.822-9.763 104.615-16.644 102.212-17.729 104.445-34.646 104.445-34.646 104.445-34.646 101.388-15.284 96.804-16.304 94.131-16.897 79.82-43.137 79.82-43.137 79.82-43.137 91.539-14.775 87.973-15.964 85.375-16.831 80.5-28.532 80.5-28.532 80.5-28.532 82.877-16.983 80.5-16.304 78.123-15.624 64.875-28.532 64.875-28.532 64.875-28.532 74.726-16.983 73.027-14.605 70.453-11.002 67.436-10.833 63.856-12.228 58.647-14.258 51.629-23.776 51.629-23.776 51.629-23.776 58.625-14.139 57.402-10.529 55.439-4.729 35.325-21.738 35.325-21.738 35.325-21.738 47.213-10.529 44.496-8.151 41.779-5.774 27.025-6.509 22.418-6.496 8.832-6.454 4.124-3.267 0 0" id="path3006" fill="#373535"/></g></g></g></g><g id="g3008" transform="translate(38.8408 662.718)"><path d="M0 0C17.832-8.945 34.136 1.358 54.685-4.434 70.308-8.836 89.331-14.266 115.145-10.529 140.959-6.793 163.036 4.416 173.567 24.455 176.85 33.399 190.209 22.418 190.209 22.418 190.209 22.418 180.473 26.493 180.7 24.568 180.926 22.644 195.305 15.964 195.305 15.964 195.305 15.964 182.284 20.039 183.077 16.982 183.87 13.926 199.381 1.698 199.381 1.698 199.381 1.698 181.831 15.059 180.36 13.246 178.889 11.435 187.833 4.076 187.833 4.076 187.833 4.076 173 13.246 167.792 10.543 164.045 8.599 183.19-3.963 183.19-3.963 183.19-3.963 170.735 5.548 167.792 3.057 164.848 0.565 181.833-19.814 181.833-19.814 181.833-19.814 162.583 1.019 160.659 3.55271e-15 158.735-1.02 165.981-10.982 165.981-10.982 165.981-10.982 156.469-0.566 153.866-2.378 151.262-4.189 167.452-31.249 167.452-31.249 167.452-31.249 149.903-3.51 142.657-8.152 154.036-33.117 149.79-36.684 149.79-36.684 149.79-36.684 148.338-11.214 134.165-11.889 127.032-12.229 137.561-30.909 137.561-30.909 137.561-30.909 127.87-13.846 121.417-14.186 133.313-36.698 129.071-45.854 129.071-45.854 129.071-45.854 131.038-26.627 114.905-15.928 121.018-21.362 111.069-45.854 111.069-45.854 111.069-45.854 119.823-9.763 104.616-16.644 102.213-17.73 104.446-34.646 104.446-34.646 104.446-34.646 101.387-15.285 96.804-16.304 94.13-16.897 79.819-43.137 79.819-43.137 79.819-43.137 91.538-14.775 87.972-15.965 85.374-16.83 80.499-28.531 80.499-28.531 80.499-28.531 82.877-16.983 80.499-16.304 78.122-15.625 64.875-28.531 64.875-28.531 64.875-28.531 74.726-16.983 73.026-14.605 70.452-11.002 67.435-10.834 63.856-12.229 58.646-14.258 51.628-23.776 51.628-23.776 51.628-23.776 58.624-14.138 57.402-10.529 55.438-4.73 35.325-21.738 35.325-21.738 35.325-21.738 47.213-10.529 44.495-8.152 41.778-5.774 27.024-6.51 22.417-6.496 8.831-6.453 4.124-3.267 0 0" id="path3010" fill="#373535"/></g></g></g></g></g></svg>