<svg viewBox="0 0 115.28 122.88" xmlns="http://www.w3.org/2000/svg" xmlns:xlink="http://www.w3.org/1999/xlink" id="Layer_1" overflow="hidden"><g><path d="M25.38 57 90.26 57 90.26 37.34 69.59 37.34C67.42 37.34 64.4 36.17 62.97 34.74 61.54 33.31 60.67 30.73 60.67 28.57L60.67 7.64 60.67 7.64 8.15 7.64C7.97 7.64 7.83 7.73 7.74 7.82 7.59 7.92 7.55 8.05 7.55 8.24L7.55 114.69C7.55 114.83 7.64 115.01 7.73 115.1 7.82 115.24 8.01 115.28 8.14 115.28 30.92 115.28 66.23 115.28 89.65 115.28 89.83 115.28 89.82 115.19 89.92 115.1 90.06 115.01 90.25 114.82 90.25 114.69L90.25 103.53 25.38 103.53C21.24 103.53 17.82 100.13 17.82 95.97L17.82 64.55C17.82 60.4 21.22 57 25.38 57L25.38 57ZM45.88 82.35 52.17 84.25C51.75 86.01 51.08 87.49 50.17 88.67 49.26 89.85 48.14 90.75 46.79 91.35 45.44 91.95 43.73 92.25 41.65 92.25 39.12 92.25 37.06 91.88 35.46 91.15 33.86 90.41 32.48 89.12 31.32 87.28 30.16 85.44 29.57 83.07 29.57 80.19 29.57 76.35 30.59 73.4 32.63 71.34 34.68 69.28 37.57 68.25 41.31 68.25 44.23 68.25 46.54 68.84 48.21 70.02 49.88 71.2 51.13 73.02 51.94 75.47L45.62 76.87C45.4 76.17 45.17 75.65 44.92 75.33 44.51 74.78 44.02 74.36 43.44 74.07 42.86 73.77 42.21 73.63 41.49 73.63 39.86 73.63 38.61 74.28 37.74 75.59 37.09 76.56 36.76 78.08 36.76 80.15 36.76 82.72 37.15 84.48 37.93 85.44 38.71 86.39 39.81 86.87 41.23 86.87 42.6 86.87 43.64 86.49 44.34 85.71 45.06 84.93 45.56 83.82 45.88 82.35L45.88 82.35ZM54.47 84.17 61.28 83.74C61.43 84.84 61.73 85.69 62.18 86.26 62.92 87.2 63.97 87.67 65.35 87.67 66.37 87.67 67.16 87.43 67.71 86.95 68.27 86.47 68.54 85.91 68.54 85.28 68.54 84.68 68.28 84.14 67.76 83.66 67.24 83.18 66.01 82.74 64.1 82.31 60.95 81.61 58.72 80.67 57.38 79.49 56.03 78.32 55.35 76.83 55.35 75.01 55.35 73.82 55.7 72.7 56.39 71.64 57.08 70.58 58.12 69.74 59.51 69.14 60.9 68.53 62.8 68.23 65.22 68.23 68.19 68.23 70.45 68.78 72 69.89 73.56 70.99 74.48 72.75 74.78 75.16L68.03 75.56C67.85 74.51 67.47 73.74 66.9 73.26 66.32 72.78 65.53 72.54 64.52 72.54 63.69 72.54 63.06 72.72 62.63 73.07 62.21 73.42 62 73.85 62 74.36 62 74.73 62.17 75.06 62.51 75.35 62.84 75.66 63.64 75.94 64.9 76.2 68.04 76.88 70.28 77.56 71.63 78.25 72.99 78.94 73.98 79.8 74.59 80.82 75.21 81.84 75.51 82.99 75.51 84.26 75.51 85.75 75.1 87.12 74.28 88.38 73.45 89.63 72.31 90.59 70.83 91.24 69.35 91.89 67.49 92.21 65.25 92.21 61.3 92.21 58.57 91.45 57.05 89.93 55.53 88.44 54.67 86.51 54.47 84.17L54.47 84.17ZM76.91 68.63 84.41 68.63 89.64 85.34 94.8 68.63 102.08 68.63 93.46 91.85 85.69 91.85 76.91 68.63 76.91 68.63ZM97.79 57 107.72 57C111.88 57 115.28 60.41 115.28 64.56L115.28 95.98C115.28 100.13 111.87 103.54 107.72 103.54L97.79 103.54 97.79 117.09C97.79 118.7 97.14 120.13 96.09 121.19 95.03 122.25 93.6 122.89 91.99 122.89 62.55 122.89 35.4 122.89 5.81 122.89 4.2 122.89 2.77 122.25 1.71 121.19 0.65 120.13 0.01 118.7 0.01 117.09L0.01 5.85C0.01 4.24 0.66 2.81 1.71 1.75 2.77 0.69 4.24 0.05 5.81 0.05L64.53 0.05C64.66 0 64.8 0 64.94 0 65.58 0 66.23 0.28 66.69 0.69L66.78 0.69C66.87 0.74 66.92 0.78 67.01 0.87L97 31.23C97.51 31.74 97.88 32.43 97.88 33.21 97.88 33.44 97.83 33.62 97.79 33.86L97.79 57 97.79 57ZM67.52 27.97 67.52 8.94 88.95 30.64 70.19 30.64C69.45 30.64 68.81 30.32 68.3 29.86 67.84 29.4 67.52 28.71 67.52 27.97L67.52 27.97Z" fill-rule="evenodd" clip-rule="evenodd"/></g></svg>