<svg viewBox="0 0 1030.04 659.922" xmlns="http://www.w3.org/2000/svg" xmlns:xlink="http://www.w3.org/1999/xlink" id="Livello_1" overflow="hidden"><g id="STYLE_COLOR_1_"><path d="M622.292 445.338 834.905 242.011C790.741 69.804 615.338-33.996 443.13 10.168 365.58 30.056 298.224 78.13 254.209 145.005 257.5 144.922 622.292 445.338 622.292 445.338Z" fill="#0364B8"/><path d="M392.776 183.283 392.766 183.318C352.14 158.156 305.287 144.856 257.499 144.921 256.395 144.921 255.31 144.991 254.208 145.004 112.064 146.765-1.74 263.423 0.02 405.567 0.658 457.129 16.769 507.31 46.264 549.607L364.792 509.713 609.001 312.798 392.776 183.283Z" fill="#0078D4"/><path d="M834.905 242.012C830.231 241.7 825.534 241.484 820.782 241.484 792.259 241.456 764.033 247.282 737.852 258.601L737.846 258.579 609.002 312.799 751.043 488.255 1004.98 549.983C1059.78 448.251 1021.73 321.358 919.997 266.559 893.71 252.399 864.696 244.03 834.906 242.013L834.906 242.012Z" fill="#1490DF"/><path d="M46.264 549.607C94.359 618.756 173.27 659.966 257.5 659.922L820.781 659.922C897.727 659.944 968.472 617.72 1004.98 549.985L609.001 312.798 46.264 549.607Z" fill="#28A8EA"/></g></svg>