<svg viewBox="0 0 96 96" xmlns="http://www.w3.org/2000/svg" xmlns:xlink="http://www.w3.org/1999/xlink" id="Icons_Soundwave_M" overflow="hidden"><style>
.MsftOfcThm_Text1_Fill_v2 {
 fill:#22354B; 
}
</style>
<g id="Icons"><rect x="14" y="77" width="14" height="2" class="MsftOfcThm_Text1_Fill_v2" fill="#22354B"/><rect x="32" y="77" width="14" height="2" class="MsftOfcThm_Text1_Fill_v2" fill="#22354B"/><rect x="50" y="77" width="14" height="2" class="MsftOfcThm_Text1_Fill_v2" fill="#22354B"/><rect x="68" y="77" width="14" height="2" class="MsftOfcThm_Text1_Fill_v2" fill="#22354B"/><rect x="14" y="67" width="14" height="2" class="MsftOfcThm_Text1_Fill_v2" fill="#22354B"/><rect x="32" y="67" width="14" height="2" class="MsftOfcThm_Text1_Fill_v2" fill="#22354B"/><rect x="50" y="67" width="14" height="2" class="MsftOfcThm_Text1_Fill_v2" fill="#22354B"/><rect x="68" y="67" width="14" height="2" class="MsftOfcThm_Text1_Fill_v2" fill="#22354B"/><rect x="14" y="57" width="14" height="2" class="MsftOfcThm_Text1_Fill_v2" fill="#22354B"/><rect x="32" y="57" width="14" height="2" class="MsftOfcThm_Text1_Fill_v2" fill="#22354B"/><rect x="50" y="57" width="14" height="2" class="MsftOfcThm_Text1_Fill_v2" fill="#22354B"/><rect x="68" y="57" width="14" height="2" class="MsftOfcThm_Text1_Fill_v2" fill="#22354B"/><rect x="14" y="47" width="14" height="2" class="MsftOfcThm_Text1_Fill_v2" fill="#22354B"/><rect x="32" y="47" width="14" height="2" class="MsftOfcThm_Text1_Fill_v2" fill="#22354B"/><rect x="68" y="47" width="14" height="2" class="MsftOfcThm_Text1_Fill_v2" fill="#22354B"/><rect x="14" y="37" width="14" height="2" class="MsftOfcThm_Text1_Fill_v2" fill="#22354B"/><rect x="32" y="37" width="14" height="2" class="MsftOfcThm_Text1_Fill_v2" fill="#22354B"/><rect x="68" y="37" width="14" height="2" class="MsftOfcThm_Text1_Fill_v2" fill="#22354B"/><rect x="32" y="27" width="14" height="2" class="MsftOfcThm_Text1_Fill_v2" fill="#22354B"/><rect x="32" y="17" width="14" height="2" class="MsftOfcThm_Text1_Fill_v2" fill="#22354B"/><rect x="68" y="27" width="14" height="2" class="MsftOfcThm_Text1_Fill_v2" fill="#22354B"/></g></svg>