<svg width="1200" height="800" viewBox="-19.2002 -28.483 166.401 170.898" xmlns="http://www.w3.org/2000/svg" xmlns:xlink="http://www.w3.org/1999/xlink" overflow="hidden"><g transform="matrix(1 0 0 1 0 -7.034)"><linearGradient x1="64" y1="7.034" x2="64" y2="120.789" gradientUnits="userSpaceOnUse" id="a"><stop offset="0" stop-color="#4387FD"/><stop offset="1" stop-color="#4683EA"/></linearGradient><path d="M27.79 115.217 1.54 69.749C-0.514099 66.1912-0.514099 61.8078 1.54 58.25L27.79 12.783C29.8444 9.22467 33.6412 7.03275 37.75 7.033L90.25 7.033C94.3585 7.0331 98.1548 9.22498 100.209 12.783L126.459 58.25C128.513 61.8081 128.513 66.1919 126.459 69.75L100.209 115.216C98.1548 118.774 94.3585 120.966 90.25 120.966L37.75 120.966C33.6411 120.966 29.8443 118.774 27.79 115.216Z" fill="url(#a)"/></g><g transform="matrix(1 0 0 1 0 -7.034)"><defs><path d="M27.791 115.217 1.541 69.749C-0.513098 66.1912-0.513098 61.8078 1.541 58.25L27.791 12.783C29.8451 9.22483 33.6415 7.0329 37.75 7.033L90.25 7.033C94.3588 7.03275 98.1556 9.22467 100.21 12.783L126.46 58.25C128.514 61.8081 128.514 66.1919 126.46 69.75L100.21 115.216C98.1557 118.774 94.3589 120.966 90.25 120.966L37.75 120.966C33.6415 120.966 29.8451 118.774 27.791 115.216Z" id="b"/></defs><clipPath id="c"><use width="100%" height="100%" xlink:href="#b" overflow="visible"></use></clipPath><path d="M49.313 53.875 42.303 60.865 48.26 66.823 42.362 77.299 86.997 121.935 97.813 121.937 118.936 84 85.489 50.55Z" clip-path="url(#c)" opacity="0.07"/></g><path d="M84.7 43.236 43.264 43.236C42.597 43.236 42.052 43.782 42.052 44.45L42.052 53.016C42.052 53.682 42.598 54.228 43.264 54.228L84.7 54.228C85.367 54.228 85.913 53.682 85.913 53.016L85.913 44.448C85.913 43.782 85.368 43.235 84.701 43.235M78.285 51.211C76.9174 51.2071 75.8102 50.0986 75.808 48.731 75.8069 47.3641 76.9141 46.2551 78.281 46.254 78.2823 46.254 78.2837 46.254 78.285 46.254 79.655 46.254 80.765 47.357 80.765 48.731 80.765 50.1007 79.6547 51.211 78.285 51.211M84.7 59.702 43.264 59.704C42.597 59.704 42.052 60.25 42.052 60.918L42.052 69.483C42.052 70.149 42.598 70.696 43.264 70.696L84.7 70.696C85.367 70.696 85.913 70.149 85.913 69.483L85.913 60.916C85.913 60.25 85.368 59.702 84.701 59.702M78.285 67.678C76.9172 67.6747 75.8097 66.5658 75.808 65.198 75.8069 63.8311 76.9141 62.7221 78.281 62.721 78.2823 62.721 78.2837 62.721 78.285 62.721 79.6536 62.666 80.8076 63.7309 80.8626 65.0994 80.9176 66.468 79.8527 67.622 78.4842 67.677 78.4178 67.6797 78.3514 67.6797 78.285 67.677" fill="#FFFFFF"/></svg>