<svg viewBox="0 0 96 96" xmlns="http://www.w3.org/2000/svg" xmlns:xlink="http://www.w3.org/1999/xlink" id="Icons_Headphones_M" overflow="hidden"><style>
.MsftOfcThm_Accent4_Fill_v2 {
 fill:#D0CECE; 
}
</style>
<g id="Icons"><path d="M48 16C28.1269 16.022 12.022 32.1269 12 52L12 71C12 71.5523 12.4477 72 13 72 13.5523 72 14 71.5523 14 71L14 68 20 68 20 78C20 80.2091 21.7909 82 24 82L30 82C32.2091 82 34 80.2091 34 78L34 56C34 53.7909 32.2091 52 30 52L24 52C21.7909 52 20 53.7909 20 56L20 66 14 66 14 52C14 33.2223 29.2223 18 48 18 66.7777 18 82 33.2223 82 52L82 66 76 66 76 56C76 53.7909 74.2091 52 72 52L66 52C63.7909 52 62 53.7909 62 56L62 78C62 80.2091 63.7909 82 66 82L72 82C74.2091 82 76 80.2091 76 78L76 68 82 68 82 71C82 71.5523 82.4477 72 83 72 83.5523 72 84 71.5523 84 71L84 52C83.978 32.1269 67.8731 16.022 48 16ZM22 56C22 54.8954 22.8954 54 24 54L30 54C31.1046 54 32 54.8954 32 56L32 78C32 79.1046 31.1046 80 30 80L24 80C22.8954 80 22 79.1046 22 78ZM74 78C74 79.1046 73.1046 80 72 80L66 80C64.8954 80 64 79.1046 64 78L64 56C64 54.8954 64.8954 54 66 54L72 54C73.1046 54 74 54.8954 74 56Z" class="MsftOfcThm_Accent4_Fill_v2" fill="#D0CECE"/></g></svg>