<svg viewBox="77 83 410 90" xmlns="http://www.w3.org/2000/svg" xmlns:xlink="http://www.w3.org/1999/xlink" overflow="hidden"><path d="M178 102.5 491 102.5 491 143.5 178 143.5Z" fill="none"/><g><path d="M193.3 139.4C189.3 139.4 186.1 138.2 183.8 135.9 181.5 133.6 180.4 130.3 180.4 126.2 180.4 122 181.5 118.6 183.6 116.2 185.7 113.8 188.6 112.6 192.3 112.6 195.7 112.6 198.4 113.6 200.4 115.7 202.4 117.8 203.4 120.6 203.4 124.3L203.4 127.3 186.1 127.3C186.2 129.8 186.9 131.7 188.1 133.1 189.3 134.5 191.2 135.1 193.5 135.1 195 135.1 196.5 135 197.8 134.7 199.1 134.4 200.5 133.9 202.1 133.3L202.1 137.8C200.8 138.4 199.4 138.9 198 139.2 196.6 139.5 195 139.4 193.3 139.4ZM192.2 116.8C190.4 116.8 189 117.4 188 118.5 187 119.6 186.3 121.2 186.1 123.4L197.9 123.4C197.9 121.3 197.4 119.6 196.4 118.5 195.4 117.4 194 116.8 192.2 116.8Z"/><path d="M215.1 139 209.6 139 209.6 102.5 215.1 102.5Z"/><path d="M239.2 139 238.1 135.4 237.9 135.4C236.7 137 235.4 138.1 234.1 138.6 232.8 139.1 231.2 139.5 229.2 139.5 226.7 139.5 224.7 138.8 223.2 137.4 221.7 136 221.1 134.1 221.1 131.6 221.1 128.9 222.1 126.9 224.1 125.6 226.1 124.3 229.1 123.5 233.2 123.4L237.7 123.3 237.7 121.9C237.7 120.2 237.3 119 236.5 118.2 235.7 117.4 234.5 117 232.9 117 231.6 117 230.3 117.2 229.1 117.6 227.9 118 226.7 118.5 225.6 119L223.8 115.1C225.2 114.4 226.7 113.8 228.4 113.4 230.1 113 231.6 112.8 233.1 112.8 236.4 112.8 238.9 113.5 240.6 115 242.3 116.5 243.1 118.7 243.1 121.8L243.1 139ZM231 135.2C233 135.2 234.6 134.6 235.8 133.5 237 132.4 237.6 130.8 237.6 128.8L237.6 126.6 234.3 126.7C231.7 126.8 229.8 127.2 228.6 128 227.4 128.8 226.8 130 226.8 131.6 226.8 132.8 227.1 133.7 227.8 134.3 228.5 134.9 229.6 135.2 231 135.2Z"/><path d="M268.2 131.6C268.2 134.1 267.3 136.1 265.4 137.4 263.5 138.7 260.9 139.4 257.5 139.4 254 139.4 251.3 138.9 249.2 137.8L249.2 133C252.2 134.4 255.1 135.1 257.7 135.1 261.1 135.1 262.8 134.1 262.8 132 262.8 131.3 262.6 130.8 262.2 130.4 261.8 130 261.2 129.5 260.3 129 259.4 128.5 258.2 128 256.7 127.4 253.7 126.2 251.7 125.1 250.6 123.9 249.5 122.7 249 121.2 249 119.4 249 117.2 249.9 115.5 251.7 114.2 253.5 112.9 255.9 112.4 259 112.4 262 112.4 264.9 113 267.6 114.3L265.8 118.4C263 117.2 260.7 116.7 258.7 116.7 255.8 116.7 254.3 117.5 254.3 119.2 254.3 120 254.7 120.7 255.4 121.3 256.1 121.9 257.8 122.6 260.4 123.6 262.5 124.4 264.1 125.2 265.1 125.9 266.1 126.6 266.8 127.4 267.3 128.3 268 129.3 268.2 130.3 268.2 131.6Z"/><path d="M283.8 135C285.1 135 286.5 134.8 287.8 134.4L287.8 138.5C287.2 138.8 286.4 139 285.4 139.2 284.4 139.4 283.4 139.5 282.4 139.5 277.2 139.5 274.6 136.7 274.6 131.3L274.6 117.3 271.1 117.3 271.1 114.9 274.9 112.9 276.8 107.4 280.2 107.4 280.2 113.2 287.6 113.2 287.6 117.4 280.2 117.4 280.2 131.3C280.2 132.6 280.5 133.6 281.2 134.2 281.9 134.8 282.8 135 283.8 135Z"/><path d="M292.7 106.2C292.7 105.2 293 104.5 293.5 103.9 294 103.3 294.8 103.1 295.8 103.1 296.8 103.1 297.5 103.4 298.1 103.9 298.7 104.4 298.9 105.2 298.9 106.2 298.9 107.1 298.6 107.9 298.1 108.4 297.6 108.9 296.8 109.2 295.8 109.2 294.8 109.2 294 108.9 293.5 108.4 293 107.9 292.7 107.1 292.7 106.2ZM298.6 139 293.1 139 293.1 113.1 298.6 113.1Z"/><path d="M316.9 139.4C313 139.4 310 138.3 308 136 306 133.7 304.9 130.4 304.9 126.1 304.9 121.7 306 118.4 308.1 116 310.2 113.6 313.3 112.5 317.3 112.5 320 112.5 322.5 113 324.7 114L323 118.4C320.7 117.5 318.8 117 317.2 117 312.7 117 310.5 120 310.5 125.9 310.5 128.8 311.1 131 312.2 132.5 313.3 134 315 134.7 317.1 134.7 319.6 134.7 321.9 134.1 324.1 132.9L324.1 137.7C323.1 138.3 322.1 138.7 320.9 138.9 319.7 139.1 318.5 139.4 316.9 139.4Z"/><path d="M347.6 131.6C347.6 134.1 346.7 136.1 344.8 137.4 342.9 138.7 340.3 139.4 336.9 139.4 333.4 139.4 330.7 138.9 328.6 137.8L328.6 133C331.6 134.4 334.5 135.1 337.1 135.1 340.5 135.1 342.2 134.1 342.2 132 342.2 131.3 342 130.8 341.6 130.4 341.2 130 340.6 129.5 339.7 129 338.8 128.5 337.6 128 336.1 127.4 333.1 126.2 331.1 125.1 330 123.9 328.9 122.7 328.4 121.2 328.4 119.4 328.4 117.2 329.3 115.5 331.1 114.2 332.9 112.9 335.3 112.4 338.4 112.4 341.4 112.4 344.3 113 347 114.3L345.2 118.4C342.4 117.2 340.1 116.7 338.1 116.7 335.2 116.7 333.7 117.5 333.7 119.2 333.7 120 334.1 120.7 334.8 121.3 335.5 121.9 337.2 122.6 339.8 123.6 341.9 124.4 343.5 125.2 344.5 125.9 345.5 126.6 346.2 127.4 346.7 128.3 347.4 129.3 347.6 130.3 347.6 131.6Z"/><path d="M364.9 139.4C360.9 139.4 357.7 138.2 355.4 135.9 353.1 133.6 352 130.3 352 126.2 352 122 353.1 118.6 355.2 116.2 357.3 113.8 360.2 112.6 363.9 112.6 367.3 112.6 370 113.6 372 115.7 374 117.8 375 120.6 375 124.3L375 127.3 357.7 127.3C357.8 129.8 358.5 131.7 359.7 133.1 360.9 134.5 362.8 135.1 365.1 135.1 366.6 135.1 368.1 135 369.4 134.7 370.7 134.4 372.1 133.9 373.7 133.3L373.7 137.8C372.4 138.4 371 138.9 369.6 139.2 368.2 139.5 366.7 139.4 364.9 139.4ZM363.9 116.8C362.1 116.8 360.7 117.4 359.7 118.5 358.7 119.6 358 121.2 357.8 123.4L369.6 123.4C369.6 121.3 369.1 119.6 368.1 118.5 367.1 117.4 365.6 116.8 363.9 116.8Z"/><path d="M397.4 139 396.3 135.4 396.1 135.4C394.9 137 393.6 138.1 392.3 138.6 391 139.1 389.4 139.5 387.4 139.5 384.9 139.5 382.9 138.8 381.4 137.4 379.9 136 379.3 134.1 379.3 131.6 379.3 128.9 380.3 126.9 382.3 125.6 384.3 124.3 387.3 123.5 391.4 123.4L395.9 123.3 395.9 121.9C395.9 120.2 395.5 119 394.7 118.2 393.9 117.4 392.7 117 391.1 117 389.8 117 388.5 117.2 387.3 117.6 386.1 118 384.9 118.5 383.8 119L382 115.1C383.4 114.4 384.9 113.8 386.6 113.4 388.3 113 389.8 112.8 391.3 112.8 394.6 112.8 397.1 113.5 398.8 115 400.5 116.5 401.3 118.7 401.3 121.8L401.3 139ZM389.2 135.2C391.2 135.2 392.8 134.6 394 133.5 395.2 132.4 395.8 130.8 395.8 128.8L395.8 126.6 392.5 126.7C389.9 126.8 388 127.2 386.8 128 385.6 128.8 385 130 385 131.6 385 132.8 385.3 133.7 386 134.3 386.7 134.9 387.9 135.2 389.2 135.2Z"/><path d="M422.2 112.6C423.3 112.6 424.2 112.7 424.9 112.8L424.4 117.9C423.6 117.7 422.8 117.6 422 117.6 419.8 117.6 418 118.3 416.6 119.8 415.2 121.3 414.5 123.1 414.5 125.4L414.5 139 409 139 409 113.1 413.3 113.1 414 117.7 414.3 117.7C415.2 116.2 416.3 114.9 417.7 114 419.1 113.1 420.6 112.6 422.2 112.6Z"/><path d="M440.2 139.4C436.3 139.4 433.3 138.3 431.3 136 429.3 133.7 428.2 130.4 428.2 126.1 428.2 121.7 429.3 118.4 431.4 116 433.5 113.6 436.6 112.5 440.6 112.5 443.3 112.5 445.8 113 448 114L446.3 118.4C444 117.5 442.1 117 440.5 117 436 117 433.8 120 433.8 125.9 433.8 128.8 434.4 131 435.5 132.5 436.6 134 438.3 134.7 440.4 134.7 442.9 134.7 445.2 134.1 447.4 132.9L447.4 137.7C446.4 138.3 445.4 138.7 444.2 138.9 443 139.1 441.8 139.4 440.2 139.4Z"/><path d="M476.3 139 470.8 139 470.8 123C470.8 121 470.4 119.5 469.6 118.5 468.8 117.5 467.5 117 465.8 117 463.5 117 461.8 117.7 460.7 119.1 459.6 120.5 459.1 122.8 459.1 126L459.1 139 453.6 139 453.6 102.5 459.1 102.5 459.1 111.8C459.1 113.3 459 114.9 458.8 116.6L459.2 116.6C460 115.4 461 114.4 462.3 113.7 463.6 113 465.2 112.7 467 112.7 473.3 112.7 476.4 115.9 476.4 122.2L476.4 139Z"/></g><path d="M141.8 115.5 120.9 115.5C121 116 121.2 116.5 121.3 116.9 122 119.3 122.4 121.8 122.6 124.4 122.7 125.4 122.7 126.5 122.7 127.5 122.7 128.5 122.7 129.6 122.6 130.6 122.4 133.2 122 135.7 121.3 138.1 121.2 138.6 121 139.1 120.9 139.5L141.8 139.5C148.4 139.5 153.7 134.1 153.7 127.5 153.7 120.9 148.4 115.5 141.8 115.5Z" fill="#00A9E5"/><path d="M122.6 130.6C122.7 129.6 122.7 128.5 122.7 127.5 122.7 126.5 122.7 125.4 122.6 124.4 122.4 121.8 122 119.3 121.3 116.9 121.2 116.4 121 115.9 120.9 115.5L88.6 115.5C87.4 119.3 86.8 123.3 86.8 127.5 86.8 131.7 87.4 135.7 88.6 139.5L120.9 139.5C121 139 121.2 138.5 121.3 138.1 122 135.7 122.4 133.2 122.6 130.6Z" fill="#353535"/><path d="M145.4 143.5 119.4 143.5C118.6 145.3 117.7 147 116.7 148.6 115.2 151.1 113.4 153.3 111.4 155.4 110.7 156.1 110 156.7 109.3 157.4 107.9 158.7 106.3 159.8 104.7 160.9 111 165.1 118.6 167.5 126.7 167.5 140.6 167.5 152.8 160.4 160 149.7 156.3 145.9 151.1 143.5 145.4 143.5Z" fill="#00BFB3"/><path d="M116.7 148.6C117.7 147 118.6 145.3 119.4 143.5L90.1 143.5C93.2 150.6 98.3 156.7 104.8 160.9 106.4 159.8 107.9 158.7 109.4 157.4 110.1 156.8 110.8 156.1 111.5 155.4 113.4 153.4 115.2 151.1 116.7 148.6Z" fill="#019B8F"/><path d="M111.4 99.6C110.7 98.9 110 98.3 109.3 97.6 107.9 96.3 106.3 95.2 104.7 94.1 98.3 98.3 93.2 104.4 90 111.5L119.3 111.5C118.5 109.7 117.6 108 116.6 106.4 115.2 103.9 113.4 101.6 111.4 99.6Z" fill="#F9B110"/><path d="M126.7 87.5C118.6 87.5 111 89.9 104.7 94.1 106.3 95.2 107.8 96.3 109.3 97.6 110 98.2 110.7 98.9 111.4 99.6 113.4 101.7 115.2 103.9 116.7 106.4 117.7 108 118.6 109.7 119.4 111.5L145.4 111.5C151.1 111.5 156.3 109.1 160 105.3 152.8 94.6 140.6 87.5 126.7 87.5Z" fill="#FED10A"/></svg>