<svg viewBox="0 0 290 72" xmlns="http://www.w3.org/2000/svg" xmlns:xlink="http://www.w3.org/1999/xlink" id="Layer_1" overflow="hidden"><defs></defs><g id="Page-1"><g id="Version-2-menu"><g id="Site-header"><g id="logo-copy"><g id="Group-20"><g id="Group-18-Copy"><path d="M0 24.5C0 24.5 39.8 19.3 41 19.1 42.5824 18.8453 44.151 18.5116 45.7 18.1 48.8341 17.2619 51.8077 15.9102 54.5 14.1 57.188 12.1207 59.6082 9.80142 61.7 7.2 63.3178 5.22144 64.8203 3.15135 66.2 1L66.2 0C64.6715 2.35886 62.9667 4.59859 61.1 6.7 59.0032 9.12319 56.5801 11.2434 53.9 13 51.2785 14.672 48.41 15.9206 45.4 16.7 44 17.1 42.5 17.3 40.8 17.6 39.7 17.8 38.6 17.9 37.5 18 37 18 0 21.9 0 21.9Z" id="Fill-40" fill="#BBBDBF"/><path d="M53.4 17.8C50.7203 19.2926 47.8157 20.3396 44.8 20.9 43.4 21.2 42 21.4 40.3 21.6L37.3 21.9C36.8 21.9 36.2 22 35.7 22 23.5 23.2 11.4 24.3 0 25.4L0 28C11.4 26.6 23.7 25.1 35.9 23.7 36.4 23.6 37 23.6 37.5 23.5 38.5 23.4 39.5 23.3 40.5 23.1 42.0466 22.9161 43.5821 22.6491 45.1 22.3 48.2451 21.6512 51.2555 20.4674 54 18.8 56.7168 17.0135 59.1734 14.8597 61.3 12.4 62.8 10.7 64.5 8.4 66.1 6.2L66.1 5.2C64.4448 7.483 62.6409 9.65437 60.7 11.7 58.6255 14.1278 56.1578 16.1899 53.4 17.8" id="Fill-41" fill="#BBBDBF"/><path d="M60.4 17.2C58.1395 19.2833 55.6185 21.0648 52.9 22.5 50.1801 23.7934 47.2809 24.6699 44.3 25.1 42.9 25.3 41.5 25.5 39.8 25.7L0 28.9 0 31.5 35.3 27.7 39.9 27.2C41.6 27 43.1 26.8 44.5 26.5 47.5925 25.9735 50.591 24.9965 53.4 23.6 56.2664 21.9726 58.8918 19.9531 61.2 17.6 62.9551 15.7729 64.5918 13.8356 66.1 11.8L66.1 10.9C64.3493 13.1304 62.4447 15.2356 60.4 17.2" id="Fill-42" fill="#BBBDBF"/><path d="M50.8 30.6C48.6018 31.9897 46.094 32.8142 43.5 33 41.5 33.2 39.5 33.3 37.5 33.4 36.5305 33.4169 35.5626 33.4836 34.6 33.6 28.6 33.9 22.7 34.3 16.7 34.7L0 35.9 0 38.5 16.8 36.9C22.2 36.4 28.5 35.8 34.7 35.3L39.2 35C40.9 34.9 42.4 34.7 43.7 34.5 46.7432 34.1774 49.7336 33.4719 52.6 32.4 55.4724 31.2561 58.1664 29.7071 60.6 27.8 62.6321 26.2539 64.5078 24.5122 66.2 22.6L66.2 21.7C64.4961 23.5193 62.5828 25.1306 60.5 26.5 57.6 28.5 52.9 29.5 50.8 30.6" id="Fill-43" fill="#BBBDBF"/><path d="M51.6 35.6C48.7852 36.3618 45.9065 36.8639 43 37.1 41.7 37.2 40.2 37.3 38.6 37.4L34.2 37.6C23.2 38.1 12.2 38.7 0.1 39.3L0.1 41.9C11.7 41 23 40.1 34.4 39.3L38.8 39C40.5 38.9 41.9 38.8 43.3 38.6 46.2842 38.283 49.231 37.6802 52.1 36.8 54.9948 35.8709 57.7525 34.5593 60.3 32.9 62.3897 31.5686 64.3634 30.0632 66.2 28.4L66.2 28.4C64 30.3 61.9 30.7 59.8 32 57.2335 33.5489 54.4772 34.7589 51.6 35.6" id="Fill-44" fill="#BBBDBF"/><path d="M51.2 39.9C48.374 40.5512 45.4963 40.9527 42.6 41.1 41.3 41.2 39.9 41.3 38.2 41.3L33.8 41.5C22.7 41.9 11.5 42.4 7.10543e-15 42.9L7.10543e-15 45.5C11.4 44.7 22.6 44 33.9 43.2L38.3 42.9C40 42.8 41.4 42.7 42.7 42.6 45.6721 42.3626 48.6171 41.8606 51.5 41.1 54.4077 40.2969 57.2232 39.1909 59.9 37.8 62.0769 36.6457 64.1511 35.3075 66.1 33.8L66.1 32.7C63.9911 34.2603 61.7491 35.6323 59.4 36.8 56.8055 38.1687 54.0511 39.21 51.2 39.9" id="Fill-45" fill="#BBBDBF"/><path d="M50.8 44.1C47.9635 44.6398 45.0868 44.9408 42.2 45 40.9 45.1 39.6 45.1 37.9 45.2L0 46.2 0 48.8 33.6 47 38 46.8C39.7 46.7 41.1 46.6 42.4 46.5 45.3244 46.3027 48.2314 45.9017 51.1 45.3 54.0211 44.7042 56.8705 43.7991 59.6 42.6 61.8878 41.6459 64.095 40.5089 66.2 39.2L66.2 38.2C63.959 39.5144 61.6185 40.6512 59.2 41.6 56.5147 42.7789 53.693 43.6187 50.8 44.1" id="Fill-46" fill="#BBBDBF"/><path d="M50.5 48.3C45.8174 48.8157 41.1108 49.0827 36.4 49.1 35.3 49.1 34.3 49.1 33.2 49.2L0 49.8 0 52.4 33.3 51C34.4 51 35.4 50.9 36.5 50.9 41.2493 50.7821 45.9892 50.4149 50.7 49.8 53.5866 49.3364 56.4297 48.634 59.2 47.7 61.5451 46.9288 63.8201 45.9586 66 44.8L66 43.8C63.6636 44.8893 61.2585 45.8246 58.8 46.6 56.088 47.407 53.3108 47.9758 50.5 48.3" id="Fill-47" fill="#BBBDBF"/><path d="M50.3 52.6C45.9 53 41.5 53 37.1 53L33.1 53C22.1 53 11.1 53.1-7.10543e-15 53.2L-7.10543e-15 55.8C10.6 55.4 21.9 55.1 33.2 54.7 34.5 54.7 35.9 54.6 37.2 54.6 41.5 54.5 46 54.4 50.4 53.9 53.3019 53.6289 56.1777 53.1273 59 52.4 61.3 51.8 63.7 51 66.2 50.1L66.2 49.2C63.7718 50.0571 61.302 50.7913 58.8 51.4 56.0014 52.0164 53.1598 52.4175 50.3 52.6" id="Fill-48" fill="#BBBDBF"/><path d="M50.1 56.8C48.3 56.9 46.3 56.9 44.1 56.9L41.6 56.9 33 56.8C27.1 56.8 21.3 56.7 15.8 56.7L0 56.8 0 59.4 15.9 59C21.4 58.9 27.2 58.7 33 58.6L41.6 58.5C44 58.5 47.1 58.4 50.2 58.2 53.3 58 56.1 57.7 58.8 57.3 61.2 56.9 63.7 56.4 66.2 55.8L66.2 54.9C63.7272 55.5023 61.2235 55.9696 58.7 56.3 55.9 56.5 53.2 56.7 50.1 56.8" id="Fill-49" fill="#BBBDBF"/><path d="M41.5 60.9 32.9 60.8 0 60.2 0 62.8 32.9 62.5 41.5 62.4C44.4 62.4 47.2 62.3 50.1 62.2 55.4859 62.0519 60.8601 61.618 66.2 60.9L66.2 60C61.3 60.5 56 60.8 50.1 60.9L41.5 60.9" id="Fill-50" fill="#BBBDBF"/><path d="M66.1 65.5 0 63.8 0 66.4 66.1 66.4Z" id="Fill-51" fill="#BBBDBF"/><path d="M60.2 22C57.9664 23.9563 55.4345 25.543 52.7 26.7 49.8537 27.704 46.9007 28.3751 43.9 28.7 41.8 29 39.6 29.4 37.5 29.6 36.6 29.7 35.8 29.7 34.9 29.8L0 32.3 0 34.9 34.9 31.5 39.4 31.1C41.1 30.9 42.6 30.8 44 30.5 47.077 30.069 50.0749 29.1932 52.9 27.9 55.7924 26.5004 58.4833 24.7177 60.9 22.6 62.7316 20.9325 64.4677 19.1631 66.1 17.3L66.1 16.4C64.2389 18.3749 62.2692 20.2444 60.2 22" id="Fill-52" fill="#BBBDBF"/><path d="M94.2 0 108.3 22.4C110.5 25.9 113 28.6 121.8 30.5 130.6 32.4 134.4 33.2 134.4 33.2L134.4 33.9C134.4 33.9 128.8 32.7 121.6 31.1 114.4 29.5 111.5 29 108.2 24.4 105.5 20.6 94.2 4.5 94.2 4.5Z" id="Fill-53" fill="#BBBDBF"/><path d="M94.2 21.6C94.2 21.6 105 32.9 108.2 36.2 111.5 39.7 115.8 40.9 121.7 42 127.3 43 134.4 44.2 134.4 44.2L134.4 44.8 121.7 42.7C115.8 41.7 111.6 41.1 108.2 38L94.3 25 94.2 21.6Z" id="Fill-54" fill="#BBBDBF"/><path d="M94.2 26.8C94.2 26.8 104.5 36.4 108.2 39.6 111.6 42.6 114.3 43.5 121.7 44.9 129.1 46.3 134.4 47 134.4 47L134.4 47.7 121.7 45.6C115.7 44.6 111.8 44.3 108.2 41.3 104 37.9 94.2 29.9 94.2 29.9Z" id="Fill-55" fill="#BBBDBF"/><path d="M94.2 32.2C94.2 32.2 106 41.5 108.2 43.2 110.4 44.9 113.3 46.7 121.7 48L134.4 49.8 134.4 50.5C134.4 50.5 126.8 49.4 121.7 48.8 116.6 48.2 112.7 47.9 108.2 44.9 103.7 41.9 94.2 35.2 94.2 35.2Z" id="Fill-56" fill="#BBBDBF"/><path d="M94.2 37.4C94.2 37.4 106 45.3 108.2 46.5 110.4 47.7 113.1 49.8 121.7 50.9 130.3 52 134.4 52.5 134.4 52.5L134.4 53.2C134.4 53.2 127.3 52.4 121.7 51.8 116.1 51.2 112.3 50.4 108.2 48.1 104.1 45.8 94.2 40.1 94.2 40.1Z" id="Fill-57" fill="#BBBDBF"/><path d="M94.2 42.7C94.2 42.7 104.6 48.4 108.2 50.1 112.1 52.1 115.5 53 121.7 53.8 127.9 54.6 134.4 55.2 134.4 55.2L134.4 55.8C134.4 55.8 128.3 55.1 121.7 54.5 115.1 53.9 112.9 53.6 108.2 51.5 104 49.6 94.2 45.1 94.2 45.1Z" id="Fill-58" fill="#BBBDBF"/><path d="M94.2 48C94.2 48 102.4 51.5 108.2 53.8 112.512 55.4813 117.075 56.4278 121.7 56.6 123.2 56.8 134.3 57.9 134.3 57.9L134.3 58.5C134.3 58.5 127.7 58 121.6 57.4 115.5 56.8 113 56.6 108.1 55 103.2 53.4 94.1 50.2 94.1 50.2L94.2 48Z" id="Fill-59" fill="#BBBDBF"/><path d="M94.2 53.4C94.2 53.4 102.5 56 108.2 57.5 112.626 58.6527 117.142 59.4222 121.7 59.8L134.4 60.8 134.4 61.4 121.7 60.5C117.166 60.3106 112.653 59.7757 108.2 58.9 104.5 58.1 94.2 55.6 94.2 55.6Z" id="Fill-60" fill="#BBBDBF"/><path d="M94.2 58.7C94.2 58.7 101 59.9 108.2 61.1 113.6 62 120.9 62.6 121.7 62.6 122.5 62.6 134.4 63.5 134.4 63.5L134.4 64.1C134.4 64.1 126.8 63.7 121.7 63.4 116.4 63.1 111.2 62.8 108.2 62.5 101.5 61.8 94.2 60.9 94.2 60.9Z" id="Fill-61" fill="#BBBDBF"/><path d="M94.2 64.3C94.2 64.3 104.9 64.7 108.2 64.8 111.5 64.9 134.4 65.8 134.4 65.8L134.4 66.4 94.2 66.4Z" id="Fill-62" fill="#BBBDBF"/><path d="M121.7 33.4C112 31.3 109.8 27.8 108.2 25.6 106.6 23.4 94.3 5.4 94.3 5.4L94.3 9.5C94.8 10.1 105.3 23.9 108.3 27.7 111.6 32 116.8 33 121.8 34 126.8 35 134.5 36.6 134.5 36.6L134.5 36C134.4 36 124.2 34 121.7 33.4" id="Fill-63" fill="#BBBDBF"/><path d="M121.7 36.3C113.7 34.7 110.5 32.2 108.2 29.2 105.9 26.2 94.3 10.9 94.3 10.9L94.3 14.7C94.8 15.3 105.4 27.8 108.2 31.1 111.5 34.9 116.1 35.9 121.7 36.9 127.3 37.9 134.4 39.3 134.4 39.3L134.4 38.7C134.4 38.7 126.3 37.2 121.7 36.3" id="Fill-64" fill="#BBBDBF"/><path d="M121.7 39.2C113.4 37.6 111.7 36.3 108.2 32.4 106 30 94.7 16.7 94.2 16.1L94.2 19.6C94.2 19.6 104.7 30.8 108.1 34.2 112.5 38.6 116.7 38.9 121.6 39.8 126.5 40.7 134.3 42.1 134.3 42.1L134.3 41.5C134.4 41.5 125 39.9 121.7 39.2" id="Fill-65" fill="#BBBDBF"/><path d="M85.4 27.6 27.5 27.6 27.5 66.3 85.4 66.3Z" id="Fill-66" fill="#034DA1"/><path d="M57.1 33.1 59.1 33.1 57.5 34.4 58.1 36.4 56.5 35.2 54.9 36.4 55.5 34.4 53.9 33.1 55.9 33.1 56.5 31.1Z" id="Fill-67" fill="#FFF100"/><path d="M57.1 58.9 59.1 58.9 57.5 60.1 58.1 62 56.5 60.8 54.9 62 55.5 60.1 53.9 58.9 55.9 58.9 56.5 57Z" id="Fill-68" fill="#FFF100"/><path d="M63.5 57.2 65.5 57.2 63.9 58.4 64.5 60.3 62.9 59.1 61.3 60.3 61.9 58.4 60.3 57.2 62.3 57.2 62.9 55.3Z" id="Fill-69" fill="#FFF100"/><path d="M63.5 34.8 65.5 34.8 63.9 36 64.5 37.9 62.9 36.7 61.3 38 62 36 60.4 34.8 62.4 34.8 63 32.9Z" id="Fill-70" fill="#FFF100"/><path d="M68.3 39.6 70.3 39.6 68.7 40.8 69.3 42.7 67.7 41.5 66.1 42.7 66.7 40.8 65.1 39.6 67.1 39.6 67.7 37.7Z" id="Fill-71" fill="#FFF100"/><path d="M68.3 52.6 70.3 52.6 68.7 53.8 69.3 55.7 67.7 54.5 66.1 55.7 66.7 53.8 65.1 52.6 67.1 52.6 67.7 50.7Z" id="Fill-72" fill="#FFF100"/><path d="M70.1 46 72.1 46 70.5 47.2 71.1 49.1 69.5 47.9 67.9 49.1 68.5 47.2 66.8 46 68.8 46 69.4 44.1Z" id="Fill-73" fill="#FFF100"/><path d="M50.5 34.8 52.5 34.8 50.9 36 51.5 37.9 50 36.8 48.3 38 48.9 36.1 47.3 34.9 49.3 34.9 50 33Z" id="Fill-74" fill="#FFF100"/><path d="M45.9 39.6 47.9 39.6 46.3 40.8 46.9 42.7 45.3 41.5 43.7 42.7 44.3 40.8 42.7 39.6 44.7 39.6 45.3 37.7Z" id="Fill-75" fill="#FFF100"/><path d="M44.2 46 46.2 46 44.6 47.2 45.2 49.1 43.6 47.9 42 49.1 42.6 47.2 41 46 43 46 43.6 44.1Z" id="Fill-76" fill="#FFF100"/><path d="M45.9 52.6 47.9 52.6 46.3 53.8 46.9 55.7 45.3 54.5 43.7 55.7 44.3 53.8 42.7 52.6 44.7 52.6 45.3 50.7Z" id="Fill-77" fill="#FFF100"/><path d="M50.6 57.3 52.6 57.3 51 58.5 51.6 60.4 50 59.2 48.4 60.4 49 58.5 47.4 57.3 49.4 57.3 50 55.4Z" id="Fill-78" fill="#FFF100"/></g></g></g></g></g></g><rect x="254.2" y="28" width="3.3" height="38.7" fill="#034DA1"/><g><g><path d="M143.25 39.51C143.251 38.6627 143.318 37.8168 143.45 36.98 143.567 36.1958 143.835 35.4418 144.24 34.76 144.647 34.1047 145.215 33.5643 145.89 33.19 146.749 32.7537 147.707 32.547 148.67 32.59L149.5 32.59C149.82 32.59 150.14 32.64 150.5 32.69 150.837 32.7284 151.171 32.7885 151.5 32.87 151.801 32.9345 152.095 33.0248 152.38 33.14 152.51 33.1875 152.625 33.2707 152.71 33.38 152.775 33.4953 152.793 33.6317 152.76 33.76L152.58 34.58C152.565 34.6805 152.516 34.7726 152.44 34.84 152.37 34.9 152.25 34.91 152.06 34.84L150.46 34.66C149.9 34.66 149.35 34.58 148.83 34.58 148.256 34.5562 147.686 34.6875 147.18 34.96 146.779 35.2017 146.451 35.5472 146.23 35.96 146 36.4415 145.854 36.9591 145.8 37.49 145.73 38.1075 145.697 38.7286 145.7 39.35 145.698 39.9687 145.738 40.5868 145.82 41.2 145.882 41.7203 146.038 42.2251 146.28 42.69 146.5 43.1034 146.828 43.4491 147.23 43.69 147.722 43.9501 148.274 44.0743 148.83 44.05 149.378 44.0554 149.925 44.0287 150.47 43.97L152 43.9C152.123 43.8573 152.257 43.8573 152.38 43.9 152.461 43.9787 152.517 44.0796 152.54 44.19L152.7 44.95C152.787 45.2119 152.646 45.4952 152.384 45.5826 152.376 45.5853 152.368 45.5877 152.36 45.59 152.087 45.711 151.802 45.8016 151.51 45.86 151.18 45.93 150.85 46 150.51 46.05 150.179 46.1059 149.845 46.1426 149.51 46.16L148.66 46.16C147.714 46.1998 146.772 46.004 145.92 45.59 145.251 45.235 144.683 44.7153 144.27 44.08 143.869 43.4198 143.594 42.6907 143.46 41.93 143.317 41.1313 143.247 40.3213 143.25 39.51Z" fill="#626366"/><path d="M162.88 41C162.877 41.5983 162.841 42.1959 162.77 42.79 162.698 43.3868 162.511 43.9641 162.22 44.49 161.898 45.0222 161.439 45.4575 160.89 45.75 160.131 46.1164 159.292 46.2849 158.45 46.24 157.634 46.2828 156.821 46.114 156.09 45.75 155.55 45.4596 155.103 45.0229 154.8 44.49 154.506 43.9666 154.326 43.3875 154.27 42.79 154.203 42.1957 154.169 41.5981 154.17 41 154.173 40.4774 154.216 39.9559 154.3 39.44 154.379 38.8672 154.573 38.3162 154.87 37.82 155.184 37.296 155.629 36.862 156.16 36.56 156.864 36.1878 157.655 36.0116 158.45 36.05 159.25 36.0112 160.049 36.162 160.78 36.49 161.321 36.7478 161.783 37.1447 162.12 37.64 162.427 38.1278 162.634 38.6716 162.73 39.24 162.829 39.8214 162.879 40.4102 162.88 41ZM160.65 41.14C160.652 40.6754 160.626 40.2112 160.57 39.75 160.532 39.3985 160.423 39.0584 160.25 38.75 160.093 38.4891 159.859 38.283 159.58 38.16 159.234 38.006 158.858 37.9341 158.48 37.95 158.135 37.942 157.793 38.0139 157.48 38.16 157.212 38.288 156.991 38.4982 156.85 38.76 156.675 39.0682 156.563 39.4081 156.52 39.76 156.456 40.2138 156.426 40.6717 156.43 41.13 156.425 41.5982 156.455 42.0662 156.52 42.53 156.563 42.8804 156.672 43.2196 156.84 43.53 156.978 43.7883 157.195 43.9952 157.46 44.12 157.773 44.2661 158.115 44.338 158.46 44.33 158.843 44.3424 159.225 44.2743 159.58 44.13 159.858 44.0113 160.093 43.8085 160.25 43.55 160.423 43.2417 160.532 42.9015 160.57 42.55 160.627 42.0722 160.654 41.5912 160.65 41.11Z" fill="#626366"/><path d="M179.16 46C179.16 46.07 179.02 46.1 178.87 46.1L177.42 46.1C177.234 46.1236 177.064 45.9917 177.04 45.8054 177.036 45.777 177.036 45.7483 177.04 45.72L177.04 40C177.092 39.478 176.988 38.9524 176.74 38.49 176.47 38.1964 176.077 38.048 175.68 38.09 175.467 38.0969 175.255 38.1305 175.05 38.19 174.81 38.26 174.58 38.34 174.34 38.43 174.111 38.5121 173.887 38.609 173.67 38.72L173.11 39C173.11 39.1 173.11 39.25 173.11 39.42 173.11 39.59 173.11 39.79 173.11 40.02L173.11 45.7C173.114 45.7994 173.086 45.8975 173.03 45.98 172.952 46.0592 172.84 46.0963 172.73 46.08L171.26 46.08C171.04 46.08 170.92 45.95 170.92 45.7L170.92 39.9C170.954 39.4295 170.857 38.9589 170.64 38.54 170.407 38.2275 170.029 38.0574 169.64 38.09 169.44 38.0934 169.242 38.1237 169.05 38.18 168.814 38.2334 168.583 38.307 168.36 38.4 168.133 38.4933 167.903 38.5933 167.67 38.7 167.44 38.8 167.24 38.9 167.05 39L167.05 45.7C167.074 45.8863 166.942 46.0564 166.755 46.08 166.727 46.0836 166.698 46.0836 166.67 46.08L165.2 46.08C164.96 46.08 164.84 45.95 164.84 45.7L164.84 36.62C164.84 36.35 164.96 36.22 165.2 36.22L166.63 36.22C166.821 36.1901 167 36.3206 167.03 36.5115 167.036 36.5475 167.036 36.5841 167.03 36.62L167.03 37.2 167.03 37.2 167.67 36.79C167.904 36.6488 168.148 36.5252 168.4 36.42 168.66 36.3122 168.928 36.222 169.2 36.15 169.459 36.066 169.728 36.0156 170 36 170.539 35.9934 171.074 36.0849 171.58 36.27 172.094 36.4924 172.51 36.8939 172.75 37.4 173.272 37.0119 173.831 36.6769 174.42 36.4 175.001 36.1242 175.637 35.9807 176.28 35.98 176.82 35.9557 177.357 36.0585 177.85 36.28 178.214 36.4618 178.519 36.7426 178.73 37.09 178.94 37.4586 179.07 37.8676 179.11 38.29 179.163 38.7615 179.189 39.2356 179.19 39.71L179.19 45.61C179.237 45.7382 179.226 45.8805 179.16 46Z" fill="#626366"/><path d="M195.7 46C195.625 46.0775 195.517 46.1146 195.41 46.1L194 46.1C193.814 46.1236 193.644 45.9917 193.62 45.8054 193.616 45.777 193.616 45.7483 193.62 45.72L193.62 40C193.672 39.478 193.568 38.9524 193.32 38.49 193.046 38.1961 192.65 38.048 192.25 38.09 192.037 38.0984 191.825 38.132 191.62 38.19 191.39 38.26 191.15 38.34 190.92 38.43 190.69 38.5102 190.466 38.6071 190.25 38.72L189.69 39C189.69 39.1 189.69 39.25 189.69 39.42 189.69 39.59 189.69 39.79 189.69 40.02L189.69 45.7C189.694 45.7994 189.666 45.8975 189.61 45.98 189.529 46.0553 189.42 46.0918 189.31 46.08L187.84 46.08C187.61 46.08 187.5 45.95 187.5 45.7L187.5 39.9C187.529 39.4299 187.432 38.9605 187.22 38.54 186.984 38.2305 186.608 38.0612 186.22 38.09 186.02 38.0941 185.822 38.1244 185.63 38.18 185.397 38.232 185.169 38.3056 184.95 38.4 184.723 38.4933 184.493 38.5933 184.26 38.7 184.03 38.8 183.82 38.9 183.64 39L183.64 45.7C183.664 45.8862 183.533 46.0569 183.347 46.0813 183.315 46.0855 183.282 46.0851 183.25 46.08L181.81 46.08C181.57 46.08 181.45 45.95 181.45 45.7L181.45 36.62C181.45 36.35 181.57 36.22 181.81 36.22L183.23 36.22C183.427 36.1909 183.61 36.3268 183.639 36.5234 183.644 36.5554 183.644 36.5879 183.64 36.62L183.64 37.2 183.64 37.2 184.28 36.79C184.514 36.6488 184.758 36.5252 185.01 36.42 185.267 36.3122 185.531 36.222 185.8 36.15 186.07 36.0712 186.349 36.0275 186.63 36.02 187.165 36.0133 187.698 36.1048 188.2 36.29 188.719 36.5088 189.139 36.9111 189.38 37.42 189.898 37.0319 190.455 36.6969 191.04 36.42 191.624 36.143 192.263 35.9996 192.91 36 193.446 35.9769 193.981 36.0797 194.47 36.3 194.836 36.479 195.141 36.7604 195.35 37.11 195.564 37.4778 195.697 37.8869 195.74 38.31 195.793 38.7815 195.819 39.2556 195.82 39.73L195.82 45.63C195.826 45.7638 195.784 45.8954 195.7 46Z" fill="#626366"/><path d="M200.52 33.61C200.536 33.7596 200.536 33.9104 200.52 34.06 200.501 34.1975 200.442 34.3262 200.35 34.43 200.254 34.543 200.13 34.6292 199.99 34.68 199.794 34.7467 199.587 34.7772 199.38 34.77 199.165 34.7813 198.951 34.7472 198.75 34.67 198.608 34.6181 198.484 34.5281 198.39 34.41 198.309 34.3005 198.254 34.174 198.23 34.04 198.22 33.8969 198.22 33.7532 198.23 33.61 198.222 33.3229 198.303 33.0403 198.46 32.8 198.719 32.5319 199.093 32.4085 199.46 32.47 199.95 32.47 200.27 32.57 200.46 32.78 200.566 33.0436 200.587 33.3339 200.52 33.61ZM200.4 45.67C200.406 45.7651 200.381 45.8597 200.33 45.94 200.258 46.0226 200.149 46.0639 200.04 46.05L198.62 46.05C198.35 46.05 198.21 45.92 198.21 45.67L198.21 36.6C198.21 36.35 198.35 36.22 198.62 36.22L200 36.22C200.109 36.2061 200.218 36.2474 200.29 36.33 200.341 36.4103 200.366 36.5049 200.36 36.6Z" fill="#626366"/><path d="M210.24 43.1C210.256 43.6156 210.135 44.1262 209.89 44.58 209.677 44.9859 209.364 45.3303 208.98 45.58 208.585 45.8294 208.148 46.0056 207.69 46.1 207.194 46.2096 206.688 46.2633 206.18 46.26 205.631 46.2609 205.084 46.2241 204.54 46.15 204.038 46.1004 203.545 45.9895 203.07 45.82 202.916 45.7761 202.782 45.6808 202.69 45.55 202.647 45.4235 202.647 45.2865 202.69 45.16L202.83 44.5C202.83 44.34 202.91 44.24 202.99 44.2 203.108 44.1691 203.232 44.1691 203.35 44.2L204.06 44.3 204.85 44.37 205.59 44.37 206.2 44.37C206.68 44.4083 207.162 44.3113 207.59 44.09 207.87 43.8913 208.029 43.5629 208.01 43.22 208.012 43.0311 207.988 42.8427 207.94 42.66 207.896 42.5169 207.809 42.3911 207.69 42.3 207.541 42.1961 207.375 42.1183 207.2 42.07 206.937 42.0003 206.67 41.9501 206.4 41.92 205.91 41.85 205.4 41.76 205 41.66 204.584 41.5614 204.186 41.3995 203.82 41.18 203.484 40.9809 203.205 40.6985 203.01 40.36 202.793 39.9514 202.689 39.4922 202.71 39.03 202.652 38.1581 203.026 37.3134 203.71 36.77 204.514 36.2277 205.471 35.9578 206.44 36 206.64 36 206.88 36 207.14 36 207.415 36.0123 207.688 36.039 207.96 36.08 208.23 36.08 208.5 36.16 208.77 36.22 209.016 36.2648 209.257 36.3318 209.49 36.42 209.83 36.5533 209.97 36.7533 209.91 37.02L209.75 37.74C209.75 37.8867 209.7 37.9767 209.6 38.01 209.473 38.0487 209.337 38.0487 209.21 38.01L207.81 37.86C207.3 37.86 206.86 37.79 206.48 37.79 206.039 37.7415 205.593 37.8361 205.21 38.06 204.986 38.2874 204.872 38.6018 204.9 38.92 204.859 39.2299 205.014 39.5327 205.29 39.68 205.711 39.8426 206.151 39.9502 206.6 40 207.08 40.07 207.54 40.15 207.98 40.26 208.386 40.3589 208.774 40.5209 209.13 40.74 209.465 40.9585 209.74 41.2576 209.93 41.61 210.16 42.0718 210.266 42.5849 210.24 43.1Z" fill="#626366"/><path d="M219.45 43.1C219.465 43.6143 219.348 44.124 219.11 44.58 218.89 44.9841 218.574 45.3276 218.19 45.58 217.795 45.8294 217.358 46.0056 216.9 46.1 216.404 46.2096 215.898 46.2633 215.39 46.26 214.841 46.2606 214.294 46.2238 213.75 46.15 213.248 46.1004 212.755 45.9895 212.28 45.82 212.126 45.7761 211.992 45.6808 211.9 45.55 211.857 45.4235 211.857 45.2865 211.9 45.16L212.04 44.5C212.04 44.34 212.12 44.24 212.2 44.2 212.318 44.1691 212.442 44.1691 212.56 44.2L213.28 44.3 214.06 44.37 214.8 44.37 215.41 44.37C215.89 44.4083 216.372 44.3113 216.8 44.09 217.08 43.8913 217.239 43.5629 217.22 43.22 217.227 43.0308 217.203 42.8418 217.15 42.66 217.106 42.5169 217.019 42.3911 216.9 42.3 216.751 42.1961 216.585 42.1183 216.41 42.07 216.147 42.0003 215.88 41.9501 215.61 41.92 215.12 41.85 214.61 41.76 214.21 41.66 213.786 41.5686 213.378 41.4135 213 41.2 212.664 41.0009 212.385 40.7185 212.19 40.38 211.973 39.9714 211.869 39.5122 211.89 39.05 211.832 38.1781 212.206 37.3334 212.89 36.79 213.694 36.2477 214.651 35.9778 215.62 36.02 215.82 36.02 216.06 36.02 216.33 36.02 216.601 36.0328 216.872 36.0595 217.14 36.1 217.41 36.1 217.68 36.18 217.95 36.24 218.196 36.2848 218.437 36.3518 218.67 36.44 219.01 36.5733 219.15 36.7733 219.09 37.04L218.93 37.76C218.93 37.9067 218.88 37.9967 218.78 38.03 218.653 38.0687 218.517 38.0687 218.39 38.03L216.99 37.88C216.48 37.88 215.99 37.81 215.66 37.81 215.219 37.7615 214.773 37.8561 214.39 38.08 214.166 38.3074 214.052 38.6218 214.08 38.94 214.039 39.2499 214.194 39.5527 214.47 39.7 214.891 39.8626 215.331 39.9702 215.78 40.02 216.244 40.0827 216.705 40.1695 217.16 40.28 217.566 40.3789 217.954 40.5409 218.31 40.76 218.646 40.981 218.924 41.2793 219.12 41.63 219.353 42.084 219.467 42.5899 219.45 43.1Z" fill="#626366"/><path d="M223.9 33.61C223.916 33.7596 223.916 33.9104 223.9 34.06 223.877 34.1961 223.818 34.3236 223.73 34.43 223.634 34.543 223.51 34.6292 223.37 34.68 223.174 34.7459 222.967 34.7763 222.76 34.77 222.542 34.7801 222.324 34.7461 222.12 34.67 221.981 34.6179 221.86 34.5278 221.77 34.41 221.689 34.3005 221.634 34.174 221.61 34.04 221.6 33.8969 221.6 33.7532 221.61 33.61 221.602 33.3229 221.683 33.0403 221.84 32.8 222.099 32.5319 222.473 32.4085 222.84 32.47 223.33 32.47 223.65 32.57 223.84 32.78 223.946 33.0436 223.967 33.3339 223.9 33.61ZM223.78 45.67C223.786 45.7651 223.761 45.8597 223.71 45.94 223.638 46.0226 223.529 46.0639 223.42 46.05L222 46.05C221.73 46.05 221.59 45.92 221.59 45.67L221.59 36.6C221.59 36.35 221.73 36.22 222 36.22L223.42 36.22C223.529 36.2061 223.638 36.2474 223.71 36.33 223.761 36.4103 223.786 36.5049 223.78 36.6Z" fill="#626366"/><path d="M234.78 41C234.777 41.5983 234.741 42.1959 234.67 42.79 234.598 43.3868 234.411 43.9641 234.12 44.49 233.798 45.0222 233.339 45.4575 232.79 45.75 232.031 46.1164 231.192 46.2849 230.35 46.24 229.534 46.2828 228.721 46.114 227.99 45.75 227.454 45.4538 227.009 45.0185 226.7 44.49 226.411 43.9648 226.23 43.3866 226.17 42.79 226.103 42.1957 226.069 41.5981 226.07 41 226.073 40.4774 226.116 39.9559 226.2 39.44 226.288 38.8695 226.482 38.3202 226.77 37.82 227.084 37.296 227.529 36.862 228.06 36.56 228.764 36.1878 229.555 36.0116 230.35 36.05 231.154 36.0126 231.955 36.1633 232.69 36.49 233.217 36.7427 233.668 37.1288 234 37.61 234.307 38.0978 234.514 38.6416 234.61 39.21 234.717 39.8007 234.774 40.3996 234.78 41ZM232.55 41.14C232.552 40.6754 232.526 40.2112 232.47 39.75 232.437 39.3975 232.327 39.0564 232.15 38.75 231.994 38.4918 231.764 38.2863 231.49 38.16 231.141 38.0062 230.761 37.9344 230.38 37.95 230.035 37.942 229.693 38.0139 229.38 38.16 229.112 38.288 228.891 38.4982 228.75 38.76 228.578 39.069 228.47 39.4088 228.43 39.76 228.366 40.2138 228.336 40.6717 228.34 41.13 228.335 41.5982 228.365 42.0662 228.43 42.53 228.47 42.8797 228.575 43.2188 228.74 43.53 228.878 43.7883 229.095 43.9952 229.36 44.12 229.673 44.2661 230.015 44.338 230.36 44.33 230.743 44.3424 231.125 44.2743 231.48 44.13 231.758 44.0113 231.993 43.8085 232.15 43.55 232.327 43.2436 232.437 42.9025 232.47 42.55 232.527 42.0722 232.554 41.5912 232.55 41.11Z" fill="#626366"/><path d="M245.19 46C245.112 46.0792 245 46.1163 244.89 46.1L243.43 46.1C243.245 46.1292 243.07 46.0025 243.041 45.817 243.036 45.7849 243.036 45.7522 243.04 45.72L243.04 40.08C243.062 39.5889 242.958 39.1004 242.74 38.66 242.501 38.2636 242.049 38.0474 241.59 38.11 241.357 38.1179 241.126 38.1515 240.9 38.21 240.636 38.2831 240.375 38.3699 240.12 38.47L239.38 38.77 238.84 39.02 238.84 45.72C238.864 45.9063 238.732 46.0764 238.545 46.1 238.517 46.1036 238.488 46.1036 238.46 46.1L237.04 46.1C236.855 46.1292 236.68 46.0025 236.651 45.817 236.646 45.7849 236.646 45.7522 236.65 45.72L236.65 36.62C236.621 36.4289 236.752 36.2504 236.943 36.2212 236.975 36.2163 237.008 36.2159 237.04 36.22L238.46 36.22C238.71 36.22 238.84 36.35 238.84 36.62L238.84 37.22 238.9 37.22C239.118 37.0694 239.345 36.9324 239.58 36.81 239.85 36.6661 240.127 36.536 240.41 36.42 240.711 36.2965 241.022 36.1994 241.34 36.13 241.648 36.0546 241.963 36.0177 242.28 36.02 242.834 35.9909 243.387 36.0973 243.89 36.33 244.26 36.5161 244.569 36.8041 244.78 37.16 244.991 37.5355 245.12 37.9512 245.16 38.38 245.218 38.8611 245.245 39.3455 245.24 39.83L245.24 45.65C245.277 45.7682 245.259 45.8969 245.19 46Z" fill="#626366"/></g><g><path d="M145.16 62C145.16 62.4257 145.217 62.8496 145.33 63.26 145.407 63.5587 145.562 63.8315 145.78 64.05 145.986 64.2494 146.242 64.3908 146.52 64.46 146.865 64.5544 147.222 64.5982 147.58 64.59 147.95 64.59 148.37 64.59 148.87 64.51L150.19 64.36C150.319 64.3321 150.451 64.3321 150.58 64.36 150.66 64.36 150.71 64.51 150.74 64.7L150.86 65.36C150.886 65.4786 150.886 65.6014 150.86 65.72 150.782 65.8449 150.661 65.9372 150.52 65.98 150.293 66.0688 150.059 66.139 149.82 66.19 149.547 66.25 149.267 66.3 148.98 66.34L148.1 66.44C147.83 66.4535 147.56 66.4535 147.29 66.44 146.502 66.4736 145.716 66.3301 144.99 66.02 144.462 65.802 144.001 65.4505 143.65 65 143.334 64.5094 143.126 63.9572 143.04 63.38 142.939 62.7551 142.889 62.123 142.89 61.49 142.894 60.9446 142.934 60.4001 143.01 59.86 143.087 59.2673 143.273 58.6942 143.56 58.17 143.869 57.6288 144.314 57.1773 144.85 56.86 145.555 56.4689 146.355 56.2852 147.16 56.33 147.907 56.2986 148.652 56.4353 149.34 56.73 149.847 56.9501 150.291 57.2939 150.63 57.73 150.944 58.1621 151.163 58.6565 151.27 59.18 151.377 59.7107 151.44 60.2491 151.46 60.79 151.481 61.0975 151.419 61.405 151.28 61.68 151.09 61.9296 150.781 62.0592 150.47 62.02ZM147.16 58.1C146.846 58.0928 146.533 58.1472 146.24 58.26 146.007 58.3646 145.804 58.5262 145.65 58.73 145.483 58.9546 145.37 59.2147 145.32 59.49 145.243 59.8184 145.196 60.1531 145.18 60.49L149.18 60.49C149.179 60.1949 149.152 59.9004 149.1 59.61 149.054 59.3371 148.955 59.0757 148.81 58.84 148.663 58.6086 148.456 58.4218 148.21 58.3 147.877 58.1647 147.518 58.1099 147.16 58.14Z" fill="#626366"/><path d="M161.41 66.35 160 66.35C159.89 66.3663 159.778 66.3292 159.7 66.25 159.64 66.1696 159.611 66.07 159.62 65.97L159.62 65.35 159.62 65.35C159.41 65.48 159.18 65.62 158.92 65.76 158.65 65.9039 158.373 66.034 158.09 66.15 157.795 66.2721 157.491 66.3691 157.18 66.44 156.872 66.5105 156.556 66.5474 156.24 66.55 155.689 66.5762 155.14 66.4806 154.63 66.27 154.261 66.1057 153.951 65.8338 153.74 65.49 153.526 65.1261 153.393 64.7201 153.35 64.3 153.296 63.8152 153.27 63.3278 153.27 62.84L153.27 56.94C153.241 56.7489 153.372 56.5704 153.563 56.5412 153.595 56.5363 153.628 56.5359 153.66 56.54L155.14 56.54C155.38 56.54 155.5 56.67 155.5 56.94L155.5 62.58C155.497 62.8545 155.518 63.1288 155.56 63.4 155.589 63.6168 155.664 63.8249 155.78 64.01 155.884 64.1812 156.038 64.317 156.22 64.4 156.451 64.5095 156.705 64.5609 156.96 64.55 157.2 64.544 157.439 64.507 157.67 64.44 157.932 64.3749 158.19 64.2913 158.44 64.19L159.14 63.89 159.66 63.64 159.66 56.94C159.651 56.8369 159.679 56.7339 159.74 56.65 159.816 56.5672 159.928 56.5262 160.04 56.54L161.46 56.54C161.72 56.54 161.84 56.67 161.84 56.94L161.84 65.94C161.896 66.1135 161.8 66.2994 161.627 66.3552 161.556 66.3779 161.48 66.3761 161.41 66.35Z" fill="#626366"/><path d="M166.53 66C166.554 66.1862 166.423 66.3569 166.237 66.3813 166.205 66.3855 166.172 66.3851 166.14 66.38L164.69 66.38C164.505 66.4092 164.33 66.2825 164.301 66.097 164.296 66.0649 164.296 66.0322 164.3 66L164.3 57C164.271 56.8089 164.402 56.6304 164.593 56.6012 164.625 56.5963 164.658 56.5959 164.69 56.6L166.12 56.6C166.317 56.5709 166.5 56.7068 166.529 56.9034 166.534 56.9354 166.534 56.9679 166.53 57L166.53 57.88 166.53 57.88C166.714 57.7248 166.908 57.5812 167.11 57.45 167.359 57.296 167.616 57.1558 167.88 57.03 168.16 56.9 168.44 56.79 168.72 56.68 168.972 56.5796 169.233 56.5058 169.5 56.46 169.604 56.4234 169.716 56.4234 169.82 56.46 169.9 56.46 169.95 56.61 169.98 56.78L170.12 58.12C170.144 58.2254 170.144 58.3346 170.12 58.44 170.12 58.51 169.97 58.56 169.76 58.6 169.55 58.64 169.18 58.72 168.88 58.8 168.58 58.88 168.27 58.95 167.97 59.04L167.15 59.29C166.932 59.3567 166.718 59.4368 166.51 59.53Z" fill="#626366"/><path d="M179.75 61.27C179.752 61.8684 179.716 62.4664 179.64 63.06 179.577 63.6589 179.39 64.238 179.09 64.76 178.772 65.2867 178.315 65.7157 177.77 66 177.011 66.3664 176.172 66.5349 175.33 66.49 174.524 66.5276 173.722 66.3589 173 66 172.46 65.7069 172.01 65.271 171.7 64.74 171.415 64.213 171.235 63.6356 171.17 63.04 171.11 62.43 171.07 61.83 171.07 61.25 171.078 60.7277 171.121 60.2065 171.2 59.69 171.288 59.1195 171.482 58.5702 171.77 58.07 172.091 57.5478 172.538 57.1145 173.07 56.81 173.773 56.4368 174.565 56.2606 175.36 56.3 176.16 56.2623 176.958 56.413 177.69 56.74 178.223 57.0065 178.675 57.4104 179 57.91 179.311 58.3958 179.519 58.9404 179.61 59.51 179.706 60.0917 179.753 60.6805 179.75 61.27ZM177.53 61.41C177.532 60.9454 177.506 60.4812 177.45 60.02 177.409 59.6678 177.296 59.3277 177.12 59.02 176.964 58.7618 176.734 58.5563 176.46 58.43 176.114 58.277 175.738 58.2052 175.36 58.22 174.998 58.2057 174.638 58.2776 174.31 58.43 174.046 58.5639 173.827 58.7725 173.68 59.03 173.513 59.3409 173.404 59.6799 173.36 60.03 173.296 60.4838 173.266 60.9417 173.27 61.4 173.265 61.8682 173.295 62.3362 173.36 62.8 173.4 63.1497 173.505 63.4888 173.67 63.8 173.814 64.0538 174.029 64.2592 174.29 64.39 174.618 64.5424 174.978 64.6143 175.34 64.6 175.72 64.6116 176.098 64.5435 176.45 64.4 176.73 64.2837 176.965 64.0803 177.12 63.82 177.297 63.5124 177.409 63.1722 177.45 62.82 177.506 62.3521 177.532 61.8812 177.53 61.41Z" fill="#626366"/><path d="M190.41 61.37C190.417 62.104 190.357 62.837 190.23 63.56 190.134 64.1409 189.92 64.6958 189.6 65.19 189.291 65.6315 188.865 65.9778 188.37 66.19 187.735 66.4445 187.053 66.5604 186.37 66.53 185.981 66.5273 185.593 66.4939 185.21 66.43 184.751 66.3545 184.3 66.2408 183.86 66.09L183.86 66.09 183.86 69.62C183.859 69.7176 183.835 69.8136 183.79 69.9 183.79 69.98 183.64 70.02 183.47 70.02L182.05 70.02C181.89 70.02 181.79 70.02 181.74 69.92 181.684 69.8307 181.659 69.725 181.67 69.62L181.67 56.92C181.67 56.65 181.8 56.52 182.05 56.52L183.47 56.52C183.582 56.5062 183.694 56.5472 183.77 56.63 183.818 56.7191 183.842 56.8189 183.84 56.92L183.84 57.52 183.9 57.52C184.103 57.3793 184.313 57.2492 184.53 57.13 184.786 56.9861 185.05 56.8559 185.32 56.74 185.6 56.6207 185.887 56.5205 186.18 56.44 186.47 56.3609 186.769 56.3206 187.07 56.32 187.632 56.2996 188.19 56.4235 188.69 56.68 189.107 56.9174 189.453 57.2628 189.69 57.68 189.952 58.1731 190.128 58.7075 190.21 59.26 190.335 59.9566 190.402 60.6624 190.41 61.37ZM188.14 61.37C188.148 60.8552 188.118 60.3404 188.05 59.83 188.013 59.514 187.914 59.2082 187.76 58.93 187.651 58.7322 187.478 58.5771 187.27 58.49 187.048 58.4147 186.815 58.3775 186.58 58.38 186.347 58.3879 186.116 58.4215 185.89 58.48 185.643 58.5467 185.393 58.6267 185.14 58.72 184.9 58.7984 184.665 58.8954 184.44 59.01 184.22 59.11 184.03 59.21 183.89 59.29L183.89 64.29C184.291 64.4174 184.703 64.511 185.12 64.57 185.475 64.6123 185.832 64.6356 186.19 64.64 186.503 64.6441 186.814 64.5934 187.11 64.49 187.362 64.3782 187.572 64.1891 187.71 63.95 187.88 63.6394 187.992 63.3006 188.04 62.95 188.116 62.4202 188.15 61.8851 188.14 61.35Z" fill="#626366"/><path d="M194.26 62C194.26 62.4257 194.317 62.8496 194.43 63.26 194.507 63.5587 194.662 63.8315 194.88 64.05 195.089 64.2513 195.348 64.3929 195.63 64.46 195.975 64.5549 196.332 64.5987 196.69 64.59 197.05 64.59 197.48 64.59 197.97 64.51L199.3 64.36C199.429 64.3321 199.561 64.3321 199.69 64.36 199.76 64.36 199.81 64.51 199.84 64.7L199.96 65.36C199.991 65.478 199.991 65.6021 199.96 65.72 199.96 65.81 199.82 65.9 199.63 65.98 199.402 66.0674 199.168 66.1376 198.93 66.19 198.66 66.25 198.38 66.3 198.08 66.34L197.2 66.44C196.934 66.4537 196.666 66.4537 196.4 66.44 195.608 66.4724 194.819 66.329 194.09 66.02 193.565 65.8017 193.107 65.4501 192.76 65 192.445 64.508 192.234 63.9567 192.14 63.38 192.039 62.7551 191.989 62.123 191.99 61.49 191.994 60.9446 192.034 60.4001 192.11 59.86 192.19 59.2667 192.38 58.6936 192.67 58.17 192.985 57.617 193.445 57.1605 194 56.85 194.708 56.4591 195.512 56.2754 196.32 56.32 197.067 56.2886 197.812 56.4253 198.5 56.72 199.004 56.9454 199.446 57.2883 199.79 57.72 200.105 58.1504 200.321 58.6458 200.42 59.17 200.537 59.699 200.6 60.2384 200.61 60.78 200.641 61.0881 200.579 61.3984 200.43 61.67 200.244 61.9197 199.939 62.0497 199.63 62.01ZM196.26 58.1C195.946 58.0918 195.633 58.1462 195.34 58.26 195.104 58.3646 194.898 58.5261 194.74 58.73 194.581 58.959 194.469 59.2173 194.41 59.49 194.343 59.8202 194.296 60.1541 194.27 60.49L198.27 60.49C198.274 60.1947 198.247 59.8997 198.19 59.61 198.144 59.3371 198.045 59.0757 197.9 58.84 197.753 58.6086 197.546 58.4218 197.3 58.3 196.974 58.1675 196.621 58.1127 196.27 58.14ZM198.93 52.1C199.13 52.21 199.16 52.36 199.01 52.55L197 55.37C196.93 55.5076 196.761 55.5621 196.623 55.4916 196.622 55.4911 196.621 55.4906 196.62 55.49L195.84 55.13C195.69 55.05 195.66 54.93 195.74 54.75L197.34 51.64C197.42 51.47 197.57 51.43 197.78 51.52Z" fill="#626366"/><path d="M204.46 62C204.46 62.4257 204.517 62.8496 204.63 63.26 204.707 63.5587 204.862 63.8315 205.08 64.05 205.286 64.2494 205.542 64.3908 205.82 64.46 206.165 64.5549 206.522 64.5987 206.88 64.59 207.25 64.59 207.67 64.59 208.17 64.51L209.49 64.36C209.619 64.3321 209.751 64.3321 209.88 64.36 209.96 64.36 210.01 64.51 210.03 64.7L210.15 65.36C210.186 65.4773 210.186 65.6027 210.15 65.72 210.15 65.81 210.01 65.9 209.82 65.98 209.593 66.0688 209.359 66.139 209.12 66.19 208.847 66.25 208.567 66.3 208.28 66.34L207.4 66.44C207.13 66.4535 206.86 66.4535 206.59 66.44 205.802 66.4736 205.016 66.3301 204.29 66.02 203.781 65.7947 203.337 65.4437 203 65 202.684 64.5094 202.476 63.9572 202.39 63.38 202.289 62.7551 202.239 62.123 202.24 61.49 202.244 60.9446 202.284 60.4001 202.36 59.86 202.437 59.2673 202.623 58.6942 202.91 58.17 203.218 57.6314 203.659 57.1804 204.19 56.86 204.899 56.4701 205.702 56.2865 206.51 56.33 207.257 56.2986 208.002 56.4353 208.69 56.73 209.195 56.9526 209.638 57.296 209.98 57.73 210.294 58.1621 210.513 58.6565 210.62 59.18 210.727 59.7107 210.79 60.2491 210.81 60.79 210.831 61.0975 210.769 61.405 210.63 61.68 210.439 61.928 210.131 62.0571 209.82 62.02ZM206.46 58.1C206.146 58.0928 205.833 58.1472 205.54 58.26 205.307 58.3646 205.104 58.5262 204.95 58.73 204.783 58.9546 204.67 59.2147 204.62 59.49 204.543 59.8184 204.496 60.1531 204.48 60.49L208.48 60.49C208.479 60.1949 208.452 59.9004 208.4 59.61 208.354 59.3371 208.255 59.0757 208.11 58.84 207.963 58.6086 207.756 58.4218 207.51 58.3 207.177 58.1658 206.818 58.1111 206.46 58.14Z" fill="#626366"/><path d="M221 66.25C220.922 66.3292 220.81 66.3663 220.7 66.35L219.24 66.35C219.055 66.3792 218.88 66.2525 218.851 66.067 218.846 66.0349 218.846 66.0022 218.85 65.97L218.85 60.33C218.875 59.8398 218.775 59.3513 218.56 58.91 218.319 58.5156 217.868 58.3001 217.41 58.36 217.177 58.3679 216.946 58.4015 216.72 58.46 216.451 58.53 216.188 58.6169 215.93 58.72L215.2 59.02 214.66 59.27 214.66 66C214.684 66.1863 214.552 66.3564 214.365 66.38 214.337 66.3836 214.308 66.3836 214.28 66.38L212.85 66.38C212.664 66.4036 212.494 66.2717 212.47 66.0854 212.466 66.057 212.466 66.0283 212.47 66L212.47 57C212.47 56.73 212.6 56.6 212.85 56.6L214.28 56.6C214.53 56.6 214.66 56.73 214.66 57L214.66 57.6 214.72 57.6C214.936 57.4514 215.159 57.3146 215.39 57.19 215.66 57.05 215.93 56.92 216.23 56.8 216.531 56.6765 216.842 56.5794 217.16 56.51 217.468 56.4346 217.783 56.3977 218.1 56.4 218.654 56.3709 219.207 56.4773 219.71 56.71 220.08 56.8961 220.389 57.1841 220.6 57.54 220.81 57.8958 220.946 58.2904 221 58.7 221.053 59.1815 221.08 59.6656 221.08 60.15L221.08 66C221.078 66.0892 221.05 66.176 221 66.25Z" fill="#626366"/><path d="M231.61 66.25C231.526 66.327 231.413 66.3635 231.3 66.35L229.84 66.35C229.654 66.3736 229.484 66.2417 229.46 66.0554 229.456 66.027 229.456 65.9983 229.46 65.97L229.46 60.33C229.481 59.8401 229.381 59.3525 229.17 58.91 228.929 58.5156 228.478 58.3001 228.02 58.36 227.784 58.3672 227.549 58.4008 227.32 58.46 227.054 58.5285 226.794 58.6154 226.54 58.72L225.81 59.02 225.27 59.27 225.27 66C225.294 66.1862 225.163 66.3569 224.977 66.3813 224.945 66.3855 224.912 66.3851 224.88 66.38L223.46 66.38C223.274 66.4036 223.104 66.2717 223.08 66.0854 223.076 66.057 223.076 66.0283 223.08 66L223.08 57C223.08 56.73 223.21 56.6 223.46 56.6L224.88 56.6C225.072 56.5757 225.247 56.7115 225.271 56.9032 225.275 56.9354 225.275 56.968 225.27 57L225.27 57.6 225.33 57.6C225.544 57.4492 225.768 57.3123 226 57.19 226.272 57.0442 226.553 56.914 226.84 56.8 227.138 56.6765 227.445 56.5794 227.76 56.51 228.071 56.4346 228.39 56.3977 228.71 56.4 229.264 56.3721 229.816 56.4784 230.32 56.71 230.687 56.8963 230.993 57.1845 231.2 57.54 231.414 57.9148 231.547 58.3305 231.59 58.76 231.643 59.2415 231.67 59.7256 231.67 60.21L231.67 66C231.674 66.0873 231.653 66.1739 231.61 66.25Z" fill="#626366"/><path d="M235.84 62C235.833 62.4387 235.887 62.8762 236 63.3 236.077 63.5987 236.232 63.8715 236.45 64.09 236.659 64.2913 236.918 64.4329 237.2 64.5 237.545 64.5956 237.902 64.6395 238.26 64.63 238.62 64.63 239.05 64.63 239.54 64.55L240.87 64.4C240.999 64.3721 241.131 64.3721 241.26 64.4 241.33 64.4 241.38 64.55 241.41 64.74L241.53 65.4C241.561 65.518 241.561 65.6421 241.53 65.76 241.53 65.85 241.39 65.94 241.2 66.02 240.972 66.1074 240.738 66.1776 240.5 66.23 240.23 66.29 239.95 66.34 239.65 66.38L238.77 66.48C238.504 66.4937 238.236 66.4937 237.97 66.48 237.178 66.5134 236.389 66.37 235.66 66.06 235.133 65.832 234.676 65.4658 234.34 65 234.021 64.5101 233.809 63.9579 233.72 63.38 233.619 62.7551 233.569 62.123 233.57 61.49 233.574 60.9446 233.614 60.4001 233.69 59.86 233.77 59.2667 233.96 58.6936 234.25 58.17 234.552 57.6272 234.994 57.1749 235.53 56.86 236.238 56.4691 237.042 56.2854 237.85 56.33 238.597 56.3003 239.342 56.4369 240.03 56.73 240.534 56.9554 240.976 57.2983 241.32 57.73 241.656 58.1616 241.889 58.6645 242 59.2 242.117 59.729 242.18 60.2684 242.19 60.81 242.221 61.1181 242.159 61.4284 242.01 61.7 241.824 61.9497 241.519 62.0797 241.21 62.04ZM237.84 58.1C237.523 58.0931 237.207 58.1474 236.91 58.26 236.679 58.3674 236.476 58.5285 236.32 58.73 236.161 58.959 236.049 59.2173 235.99 59.49 235.918 59.8193 235.871 60.1536 235.85 60.49L239.85 60.49C239.854 60.1947 239.827 59.8997 239.77 59.61 239.724 59.3371 239.625 59.0757 239.48 58.84 239.333 58.6086 239.126 58.4218 238.88 58.3 238.554 58.1675 238.201 58.1127 237.85 58.14Z" fill="#626366"/></g></g></svg>