<svg viewBox="0 0 96 96" xmlns="http://www.w3.org/2000/svg" xmlns:xlink="http://www.w3.org/1999/xlink" id="Icons_Chemicals" overflow="hidden"><g id="Icons"><path d="M70.687 49 78.77 35 68.955 18 52.732 18 46.67 7.5 41.475 10.5 47.565 21.049 41.243 32 29.082 32 23.021 21.5 17.821 24.5 23.749 34.768 15.536 49 25.351 66 41.243 66 49.325 80 65.918 80 71.4 89.5 76.6 86.5 70.9 76.631 78.77 63ZM71.842 35 65.49 46 53.064 46 46.576 34.762 52.79 24 65.49 24ZM22.464 49 28.815 38 41.243 38 47.593 49 41.243 60 28.815 60ZM46.576 63.238 53.064 52 65.49 52 71.842 63 65.49 74 52.79 74Z" stroke-width="1.43748" fill="#56676E"/></g></svg>