<svg viewBox="0 0 96 96" xmlns="http://www.w3.org/2000/svg" xmlns:xlink="http://www.w3.org/1999/xlink" id="Icons_WorkFlow_RTL" overflow="hidden"><circle cx="24.99" cy="73.06" r="10" fill="#22354B"/><circle cx="71.99" cy="24.06" r="10" fill="#22354B"/><path d="M14 24.05 24.99 13.42 35.98 24.05 24.99 35.04 14 24.05Z" fill="#22354B"/><rect x="61.99" y="63" width="20" height="20" fill="#22354B"/><path d="M39.12 75.07 54 75.07 52 77.07 52 77.07C51.3513 77.7939 51.4123 78.9066 52.1362 79.5553 52.8027 80.1525 53.8112 80.1545 54.48 79.56L59.73 74.31C60.0569 73.9801 60.2403 73.5344 60.24 73.07 60.236 72.6064 60.0533 72.1622 59.73 71.83L54.48 66.58C53.7952 65.8952 52.6848 65.8952 52 66.58 51.3152 67.2648 51.3152 68.3752 52 69.06L54 71.06 39.12 71.06Z" fill="#22354B"/><path d="M38.44 25.25 43.69 30.5C44.3804 31.1793 45.4907 31.1704 46.17 30.48 46.8493 29.7896 46.8404 28.6793 46.15 28L44.15 26 58 26 58 22 44.16 22 46.16 20C46.8448 19.3179 46.8471 18.2098 46.165 17.525 45.4829 16.8402 44.3748 16.8379 43.69 17.52L38.44 22.77C37.7587 23.4563 37.7587 24.5637 38.44 25.25Z" fill="#22354B"/><path d="M18.46 52.87C17.7724 53.557 17.772 54.6714 18.459 55.359 18.4593 55.3593 18.4597 55.3597 18.46 55.36L23.71 60.61C24.3963 61.2913 25.5037 61.2913 26.19 60.61L31.43 55.36C32.0296 54.6019 31.9011 53.5014 31.143 52.9018 30.5172 52.4069 29.6358 52.3979 29 52.88L27 54.88 27 39 23 39 23 54.86 21 52.86C20.3137 52.1787 19.2063 52.1787 18.52 52.86Z" fill="#22354B"/></svg>