<svg viewBox="0 0 96 96" xmlns="http://www.w3.org/2000/svg" xmlns:xlink="http://www.w3.org/1999/xlink" id="Icons_Network_M" overflow="hidden"><path d="M77.5 48C81.6625 48.0204 85.0535 44.6626 85.0739 40.5 85.0943 36.3375 81.7364 32.9466 77.5739 32.9262 73.4114 32.9058 70.0204 36.2636 70 40.4261 69.9968 41.0765 70.0778 41.7245 70.241 42.354L56.992 47.654C55.4806 44.5262 52.4557 42.4056 49 42.051L49 27.925C53.1052 27.3727 55.9853 23.5971 55.433 19.492 54.8807 15.3868 51.1051 12.5066 47 13.0589 42.8948 13.6112 40.0147 17.3868 40.567 21.492 41.0175 24.8406 43.6514 27.4745 47 27.925L47 42.051C43.545 42.4049 40.5202 44.5244 39.008 47.651L25.759 42.351C26.7837 38.3376 24.361 34.2534 20.3476 33.2287 16.3342 32.2039 12.25 34.6267 11.2253 38.6401 10.2005 42.6535 12.6233 46.7377 16.6367 47.7624 19.9102 48.5982 23.3385 47.1421 25.01 44.206L38.32 49.53C37.4863 52.7242 38.3044 56.1238 40.5 58.589L29.755 69.331C26.3388 66.9711 21.6563 67.8275 19.2964 71.2437 16.9365 74.66 17.7929 79.3425 21.2091 81.7023 24.6254 84.0622 29.3079 83.2058 31.6677 79.7896 33.5933 77.0021 33.4165 73.271 31.236 70.678L41.962 59.952C45.5243 62.6826 50.4757 62.6826 54.038 59.952L64.764 70.678C62.0937 73.8539 62.5037 78.5932 65.6796 81.2635 68.8555 83.9337 73.5948 83.5238 76.2651 80.3479 78.9353 77.1719 78.5254 72.4327 75.3495 69.7624 72.7584 67.5839 69.0304 67.4072 66.245 69.331L55.5 58.589C57.6936 56.1239 58.5105 52.7258 57.677 49.533L70.987 44.209C72.3194 46.5508 74.8056 47.998 77.5 48ZM18.5 46C15.4624 46 13 43.5376 13 40.5 13 37.4624 15.4624 35 18.5 35 21.5376 35 24 37.4624 24 40.5 23.9967 43.5362 21.5362 45.9967 18.5 46ZM42.5 20.5C42.5 17.4624 44.9624 15 48 15 51.0376 15 53.5 17.4624 53.5 20.5 53.5 23.5376 51.0376 26 48 26 44.9638 25.9967 42.5033 23.5362 42.5 20.5ZM25.5 81C22.4624 81 20 78.5376 20 75.5 20 72.4624 22.4624 70 25.5 70 28.5376 70 31 72.4624 31 75.5 30.9967 78.5362 28.5362 80.9967 25.5 81ZM76 75.5C76 78.5376 73.5376 81 70.5 81 67.4624 81 65 78.5376 65 75.5 65 72.4624 67.4624 70 70.5 70 73.5362 70.0033 75.9967 72.4638 76 75.5ZM48 60C43.5817 60 40 56.4183 40 52 40 47.5817 43.5817 44 48 44 52.4183 44 56 47.5817 56 52 55.995 56.4162 52.4162 59.995 48 60ZM77.5 35C80.5376 35 83 37.4624 83 40.5 83 43.5376 80.5376 46 77.5 46 74.4624 46 72 43.5376 72 40.5 72.0033 37.4638 74.4638 35.0033 77.5 35Z" stroke="#22354B" stroke-width="1.33333" fill="#22354B"/></svg>