<svg viewBox="0 0 256 256" xmlns="http://www.w3.org/2000/svg" xmlns:xlink="http://www.w3.org/1999/xlink" id="Layer_1" overflow="hidden"><path d="M528.43 89.63C529.59 77.04 534.06 65.44 540.95 55.61 535.32 30.12 512.61 11 485.48 11 454.18 11 428.69 36.48 428.69 67.81 428.69 95.06 447.98 117.87 473.66 123.33 486.54 105.74 506 93.32 528.43 89.63ZM462.76 81.33C462.76 79.27 464.34 77.66 466.43 77.66L478.08 77.66 478.08 74.95 476.48 72.21 466.43 72.21C464.34 72.21 462.76 70.63 462.76 68.54 462.76 66.48 464.34 64.87 466.43 64.87L472.16 64.87 459.76 44.51C459.11 43.37 458.45 41.96 458.45 40.65 458.45 35.48 463.25 33.81 466.53 33.81 470.46 33.81 472.26 36.89 472.91 38.2L485.51 62.15 498.08 38.2C498.73 36.89 500.53 33.81 504.46 33.81 507.74 33.81 512.54 35.48 512.54 40.65 512.54 41.96 511.89 43.37 511.23 44.51L498.83 64.87 504.56 64.87C506.62 64.87 508.2 66.47 508.2 68.54 508.2 70.63 506.62 72.21 504.56 72.21L494.5 72.21 492.9 74.95 492.9 77.66 504.55 77.66C506.61 77.66 508.22 79.26 508.22 81.33 508.22 83.39 506.62 85 504.55 85L492.9 85 492.9 94.29C492.9 98.78 490.18 101.79 485.5 101.79 480.79 101.79 478.07 98.78 478.07 94.29L478.07 85 466.42 85C464.34 84.99 462.76 83.39 462.76 81.33ZM599.1 39.39C570.41 39.39 546.7 60.77 542.9 88.41 553.418 88.5016 563.827 90.5427 573.6 94.43 574.21 92.97 575.52 92.05 577.56 92.05L579.52 92.05C577.56 89.24 576.71 85.67 576.71 82 576.71 70.38 587.02 62.19 600.27 62.19 616.73 62.19 624.69 71.02 624.69 78.33 624.69 82.57 621.78 84.9 617.65 84.9 609.4 84.9 614.44 73.45 601.78 73.45 596.25 73.45 590.98 76.75 590.98 82.84 590.98 86.05 592.58 89.23 594.09 92.04L604.33 92.04C608.16 92.04 610.15 93.47 610.15 96.55 610.15 99.66 608.16 101.07 604.33 101.07L596.9 101.07C597.19 101.82 597.36 102.48 597.36 103.32 597.36 104.82 597 106.33 596.42 107.81 599.48 110.33 602.32 113.15 605.01 116.08 607.61 116.61 609.94 117.22 612.68 117.22 614.28 117.22 618.14 116.18 619.62 116.18 623.09 116.18 625.08 118.8 625.08 122.17 625.08 127.49 620.33 129.79 615.45 130.11 618.7 135.55 621.4 141.32 623.38 147.44 642.58 138.34 655.9 118.8 655.9 96.16 655.88 64.87 630.4 39.39 599.1 39.39ZM546.05 180.36 546.05 203.58C553.08 203.12 560.49 199.84 560.49 192.07 560.49 184.1 552.38 181.77 546.05 180.36ZM525.86 152.53C525.86 158.43 530.2 161.8 539.01 163.58L539.01 142.56C531 142.8 525.86 147.48 525.86 152.53Z" fill="#596A71"/><path d="M542.29 102.58C503.14 102.58 471.28 134.44 471.28 173.59 471.28 212.73 503.14 244.6 542.29 244.6 581.43 244.6 613.3 212.74 613.3 173.59 613.29 134.45 581.43 102.58 542.29 102.58ZM546.05 215.58 546.05 222.86C546.05 224.85 544.52 226.84 542.53 226.84 540.54 226.84 539.01 224.85 539.01 222.86L539.01 215.58C519.18 215.11 509.31 203.25 509.31 193.98 509.31 189.3 512.12 186.58 516.58 186.58 529.71 186.58 519.49 202.79 539.01 203.61L539.01 179.08C521.61 175.9 511.08 168.28 511.08 155.25 511.08 139.28 524.33 131.05 539.01 130.59L539.01 124.33C539.01 122.34 540.54 120.35 542.53 120.35 544.52 120.35 546.05 122.34 546.05 124.33L546.05 130.59C555.19 130.83 573.98 136.56 573.98 148.08 573.98 152.65 570.56 155.34 566.57 155.34 558.95 155.34 559.05 142.8 546.04 142.55L546.04 164.85C561.55 168.15 575.26 172.71 575.26 190.81 575.27 206.55 563.52 214.53 546.05 215.58ZM902.77 161.77C896.02 155.87 888.48 150.82 880.26 146.82 888.73 138.12 894.45 127.13 896.72 114.92 899.75 98.61 896.25 82.1 886.87 68.42 877.48 54.74 863.33 45.54 847.02 42.51 830.71 39.48 814.2 42.98 800.52 52.36 772.29 71.74 765.08 110.47 784.46 138.7 786.45 141.6 788.66 144.3 791.08 146.8 756.8 163.45 734.07 198.37 733.38 237.08L733.22 246.02 762.29 246.02 762.47 237.42C763.31 197.05 796.83 164.87 837.19 165.73 854.16 166.08 869.65 172.13 881.86 182.05 887.149 173.748 894.311 166.803 902.77 161.77ZM835.69 136.62C817.48 136.61 802.66 121.78 802.64 103.58 802.64 85.36 817.46 70.54 835.68 70.54 853.9 70.54 868.72 85.36 868.72 103.58 868.73 121.8 853.9 136.62 835.69 136.62Z" fill="#596A71"/><g id="Group_1378" transform="translate(-22.999 -113.5)"><g id="Group_1357" transform="translate(22.999 113.5)"><g id="Group_1281"><g id="Group_1280"><path d="M248.86 129.31C248.86 196.1 194.72 250.24 127.93 250.24 61.14 250.24 7 196.1 7 129.31 7 62.52 61.14 8.38 127.93 8.38 194.24 7.91 248.39 61.28 248.86 127.6L248.86 129.31Z" id="Path_15008" fill="#F1F0F0"/></g></g><g id="Group_1307" transform="translate(4.745 8.781)"><g id="Group_1283" transform="matrix(1 0 0 1 0 46.756)"><g id="Group_1282"><path d="M16.65 131.02C21.9949 129.33 27.475 128.102 33.03 127.35L68.98 122.61 78.56 121.33 184.33 121.33C199.88 121.34 215.21 125.09 229 132.28 196.67 190.73 123.08 211.91 64.63 179.59 44.3072 168.34 27.6512 151.479 16.65 131.02Z" id="Path_15009" fill="#2FB672"/></g></g><g id="Group_1285" transform="translate(20.389 46.301)"><g id="Group_1284"><path d="M143.06 121.17C140.09 144.64 118.66 161.27 95.19 158.3 75.95 155.87 60.75 140.82 58.12 121.61L68.13 120.4 143.06 121.17Z" id="Path_15010" fill="#FBCDC8"/></g></g><g id="Group_1298" transform="translate(21.782 0)"><g id="Group_1289" transform="translate(0.63 9.329)"><g id="Group_1288"><g id="Group_1287"><g id="Group_1286"><path d="M155.76 45.21C155.76 45.21 181.37 120.35 136.16 132.5L136.16 163.87 62.23 163.87 63.36 67.23 155.76 45.21Z" id="Path_15011" fill="#FBCDC8"/></g></g></g></g><g id="Group_1293"><g id="Group_1292"><g id="Group_1291"><g id="Group_1290"><path d="M156.41 54.54C156.41 54.54 147.01 77.45 118.42 66.76 118.42 66.76 108.41 64.16 105.9 75.82 105.37 80.23 103.36 84.34 100.21 87.47 98.9927 88.5083 97.3768 88.9517 95.8 88.68 94.74 88.33 93.72 87.85 92.77 87.26 87.68 85.1 81.77 86.91 78.76 91.56 74.71 97.79 76.48 106.12 82.71 110.16 85.14 111.74 88.01 112.49 90.89 112.3 92.83 112.16 94.76 111.85 96.65 111.39 96.65 111.39 97.56 131.97 63.34 132.57L61.16 68.8C61.16 68.8 58.34 52.98 73.13 58.09L70.94 47.61C70.94 47.61 86.51 59.67 110.64 44.72 134.77 29.77 147.28 19.31 160.01 31.74 172.75 44.17 166.15 59.7 159.05 63.21L156.41 54.54Z" id="Path_15012" fill="#874B21"/></g></g></g></g><g id="Group_1297" transform="translate(11.029 35.091)"><g id="Group_1296"><g id="Group_1295"><g id="Group_1294"><path d="M125.76 106.74C125.76 106.74 98.57 110.47 83.37 97.61 83.37 97.61 91.05 116.22 125.64 117.29L125.76 106.74Z" id="Path_15013" fill="#F9B4AD"/></g></g></g></g></g><g id="Group_1300" transform="translate(16.284 43.023)"><g id="Group_1299"><path d="M68.76 113.73 68.76 124.2 105 141.64 142.26 124.39 142.41 115.67 155.01 125.75C155.01 125.75 139.7 167.22 137.37 167.42 135.04 167.61 73.42 168 73.42 168L49.78 138.74 55.79 125.76 68.76 113.73Z" id="Path_15014" fill="#2FB672"/></g></g><g id="Group_1302" transform="translate(18.136 47.495)"><g id="Group_1301"><path d="M89.19 156.16C88.9 156.16 88.63 156.05 88.41 155.86L53.93 124.86C53.45 124.43 53.41 123.7 53.84 123.22 54.27 122.74 55 122.7 55.48 123.13L89.07 153.33 101.86 137.79C102.274 137.3 103.007 137.239 103.496 137.653 103.963 138.048 104.044 138.738 103.68 139.23 103.67 139.24 103.66 139.26 103.65 139.27L90.1 155.73C89.9 155.97 89.61 156.13 89.29 156.15L89.19 156.16Z" id="Path_15015" fill="#FFFFFF"/></g></g><g id="Group_1304" transform="translate(34.106 47.303)"><g id="Group_1303"><path d="M100.75 155.77 100.67 155.77C100.35 155.75 100.06 155.6 99.86 155.35L86.29 138.88C85.87 138.39 85.92 137.66 86.41 137.24 86.9 136.82 87.63 136.87 88.05 137.36 88.06 137.37 88.07 137.39 88.08 137.4L100.88 152.94 134.47 122.74C134.95 122.31 135.68 122.35 136.11 122.83 136.54 123.31 136.5 124.04 136.02 124.47L101.53 155.48C101.31 155.67 101.03 155.77 100.75 155.77Z" id="Path_15016" fill="#FFFFFF"/></g></g><g id="Group_1306" transform="translate(33.404 56.629)"><g id="Group_1305"><path d="M90.01 144.1C90.01 145.6 88.8 146.81 87.3 146.81 85.8 146.81 84.59 145.6 84.59 144.1 84.59 142.6 85.8 141.39 87.3 141.39 88.8 141.39 90.01 142.61 90.01 144.1Z" id="Path_15017" fill="#FFFFFF"/></g></g></g></g></g></svg>