<svg viewBox="0 0 96 96" xmlns="http://www.w3.org/2000/svg" xmlns:xlink="http://www.w3.org/1999/xlink" id="Icons_GreekTemple_M" overflow="hidden"><style>
.MsftOfcThm_Text1_Fill_v2 {
 fill:#22354B; 
}
</style>
<g id="Icons"><path d="M86 78 86 72.063 80 72.063 80 69.648 77.985 67.634 77.02 40.585 80 38.6 80 36.063 84.012 36.063 83.965 30.063 87 30.063 87 26.4 48.026 9.978 9 26.4 9 30.065 12.008 30.065 12.055 36.065 16 36.065 16 38.6 18.98 40.587 18.015 67.636 16 69.648 16 72.063 10.049 72.063 10.049 78 6.049 78 6.049 86 90 86 90 78ZM78 70.477 78 72.063 69 72.063 69 70.477 70.414 69.063 76.586 69.063ZM29 36.063 33 36.063 33 38.6 35.98 40.587 35.015 67.636 33 69.648 33 72.063 29 72.063 29 69.648 26.985 67.634 26.02 40.585 29 38.6ZM37.965 41.063 41.035 41.063 41.964 67.063 37.036 67.063ZM41.697 39.063 37.3 39.063 35 37.527 35 36.063 44 36.063 44 37.527ZM35 70.477 36.414 69.063 42.586 69.063 44 70.477 44 72.063 35 72.063ZM43.985 67.634 43.02 40.585 46 38.6 46 36.063 50 36.063 50 38.6 52.98 40.587 52.015 67.636 50 69.648 50 72.063 46 72.063 46 69.648ZM54.965 41.063 58.035 41.063 58.964 67.063 54.036 67.063ZM58.697 39.063 54.3 39.063 52 37.527 52 36.063 61 36.063 61 37.527ZM52 70.477 53.414 69.063 59.586 69.063 61 70.477 61 72.063 52 72.063ZM60.985 67.634 60.02 40.585 63 38.6 63 36.063 67 36.063 67 38.6 69.98 40.587 69.015 67.636 67 69.648 67 72.063 63 72.063 63 69.648ZM71.965 41.063 75.035 41.063 75.964 67.063 71.036 67.063ZM78 37.527 75.7 39.063 71.3 39.063 69 37.527 69 36.063 78 36.063ZM11 28.063 11 27.727 48.025 12.147 85 27.726 85 28.063 11 28.063ZM14.039 34.063 14.008 30.063 81.965 30.063 81.997 34.063 14.039 34.063ZM18 37.527 18 36.063 27 36.063 27 37.527 24.7 39.063 20.3 39.063ZM20.965 41.063 24.035 41.063 24.964 67.063 20.036 67.063ZM18 70.477 19.414 69.063 25.586 69.063 27 70.477 27 72.063 18 72.063ZM12.049 74.063 84 74.063 84 77.969 12.049 77.969ZM88 84 8.051 84 8.051 80 88 80Z" class="MsftOfcThm_Text1_Fill_v2" fill="#22354B"/></g></svg>